%TF.GenerationSoftware,KiCad,Pcbnew,8.0.2*%
%TF.CreationDate,2024-06-15T19:42:01+02:00*%
%TF.ProjectId,interruptus,696e7465-7272-4757-9074-75732e6b6963,rev?*%
%TF.SameCoordinates,Original*%
%TF.FileFunction,Legend,Bot*%
%TF.FilePolarity,Positive*%
%FSLAX46Y46*%
G04 Gerber Fmt 4.6, Leading zero omitted, Abs format (unit mm)*
G04 Created by KiCad (PCBNEW 8.0.2) date 2024-06-15 19:42:01*
%MOMM*%
%LPD*%
G01*
G04 APERTURE LIST*
%ADD10C,0.150000*%
%ADD11C,0.120000*%
G04 APERTURE END LIST*
D10*
X149309057Y-135074819D02*
X149642390Y-134598628D01*
X149880485Y-135074819D02*
X149880485Y-134074819D01*
X149880485Y-134074819D02*
X149499533Y-134074819D01*
X149499533Y-134074819D02*
X149404295Y-134122438D01*
X149404295Y-134122438D02*
X149356676Y-134170057D01*
X149356676Y-134170057D02*
X149309057Y-134265295D01*
X149309057Y-134265295D02*
X149309057Y-134408152D01*
X149309057Y-134408152D02*
X149356676Y-134503390D01*
X149356676Y-134503390D02*
X149404295Y-134551009D01*
X149404295Y-134551009D02*
X149499533Y-134598628D01*
X149499533Y-134598628D02*
X149880485Y-134598628D01*
X148356676Y-135074819D02*
X148928104Y-135074819D01*
X148642390Y-135074819D02*
X148642390Y-134074819D01*
X148642390Y-134074819D02*
X148737628Y-134217676D01*
X148737628Y-134217676D02*
X148832866Y-134312914D01*
X148832866Y-134312914D02*
X148928104Y-134360533D01*
X148023342Y-134074819D02*
X147356676Y-134074819D01*
X147356676Y-134074819D02*
X147785247Y-135074819D01*
X97392857Y-141634819D02*
X97726190Y-141158628D01*
X97964285Y-141634819D02*
X97964285Y-140634819D01*
X97964285Y-140634819D02*
X97583333Y-140634819D01*
X97583333Y-140634819D02*
X97488095Y-140682438D01*
X97488095Y-140682438D02*
X97440476Y-140730057D01*
X97440476Y-140730057D02*
X97392857Y-140825295D01*
X97392857Y-140825295D02*
X97392857Y-140968152D01*
X97392857Y-140968152D02*
X97440476Y-141063390D01*
X97440476Y-141063390D02*
X97488095Y-141111009D01*
X97488095Y-141111009D02*
X97583333Y-141158628D01*
X97583333Y-141158628D02*
X97964285Y-141158628D01*
X96440476Y-141634819D02*
X97011904Y-141634819D01*
X96726190Y-141634819D02*
X96726190Y-140634819D01*
X96726190Y-140634819D02*
X96821428Y-140777676D01*
X96821428Y-140777676D02*
X96916666Y-140872914D01*
X96916666Y-140872914D02*
X97011904Y-140920533D01*
X95583333Y-140634819D02*
X95773809Y-140634819D01*
X95773809Y-140634819D02*
X95869047Y-140682438D01*
X95869047Y-140682438D02*
X95916666Y-140730057D01*
X95916666Y-140730057D02*
X96011904Y-140872914D01*
X96011904Y-140872914D02*
X96059523Y-141063390D01*
X96059523Y-141063390D02*
X96059523Y-141444342D01*
X96059523Y-141444342D02*
X96011904Y-141539580D01*
X96011904Y-141539580D02*
X95964285Y-141587200D01*
X95964285Y-141587200D02*
X95869047Y-141634819D01*
X95869047Y-141634819D02*
X95678571Y-141634819D01*
X95678571Y-141634819D02*
X95583333Y-141587200D01*
X95583333Y-141587200D02*
X95535714Y-141539580D01*
X95535714Y-141539580D02*
X95488095Y-141444342D01*
X95488095Y-141444342D02*
X95488095Y-141206247D01*
X95488095Y-141206247D02*
X95535714Y-141111009D01*
X95535714Y-141111009D02*
X95583333Y-141063390D01*
X95583333Y-141063390D02*
X95678571Y-141015771D01*
X95678571Y-141015771D02*
X95869047Y-141015771D01*
X95869047Y-141015771D02*
X95964285Y-141063390D01*
X95964285Y-141063390D02*
X96011904Y-141111009D01*
X96011904Y-141111009D02*
X96059523Y-141206247D01*
X96146857Y-134058819D02*
X96480190Y-133582628D01*
X96718285Y-134058819D02*
X96718285Y-133058819D01*
X96718285Y-133058819D02*
X96337333Y-133058819D01*
X96337333Y-133058819D02*
X96242095Y-133106438D01*
X96242095Y-133106438D02*
X96194476Y-133154057D01*
X96194476Y-133154057D02*
X96146857Y-133249295D01*
X96146857Y-133249295D02*
X96146857Y-133392152D01*
X96146857Y-133392152D02*
X96194476Y-133487390D01*
X96194476Y-133487390D02*
X96242095Y-133535009D01*
X96242095Y-133535009D02*
X96337333Y-133582628D01*
X96337333Y-133582628D02*
X96718285Y-133582628D01*
X95194476Y-134058819D02*
X95765904Y-134058819D01*
X95480190Y-134058819D02*
X95480190Y-133058819D01*
X95480190Y-133058819D02*
X95575428Y-133201676D01*
X95575428Y-133201676D02*
X95670666Y-133296914D01*
X95670666Y-133296914D02*
X95765904Y-133344533D01*
X94289714Y-133058819D02*
X94765904Y-133058819D01*
X94765904Y-133058819D02*
X94813523Y-133535009D01*
X94813523Y-133535009D02*
X94765904Y-133487390D01*
X94765904Y-133487390D02*
X94670666Y-133439771D01*
X94670666Y-133439771D02*
X94432571Y-133439771D01*
X94432571Y-133439771D02*
X94337333Y-133487390D01*
X94337333Y-133487390D02*
X94289714Y-133535009D01*
X94289714Y-133535009D02*
X94242095Y-133630247D01*
X94242095Y-133630247D02*
X94242095Y-133868342D01*
X94242095Y-133868342D02*
X94289714Y-133963580D01*
X94289714Y-133963580D02*
X94337333Y-134011200D01*
X94337333Y-134011200D02*
X94432571Y-134058819D01*
X94432571Y-134058819D02*
X94670666Y-134058819D01*
X94670666Y-134058819D02*
X94765904Y-134011200D01*
X94765904Y-134011200D02*
X94813523Y-133963580D01*
X165107857Y-55268019D02*
X165441190Y-54791828D01*
X165679285Y-55268019D02*
X165679285Y-54268019D01*
X165679285Y-54268019D02*
X165298333Y-54268019D01*
X165298333Y-54268019D02*
X165203095Y-54315638D01*
X165203095Y-54315638D02*
X165155476Y-54363257D01*
X165155476Y-54363257D02*
X165107857Y-54458495D01*
X165107857Y-54458495D02*
X165107857Y-54601352D01*
X165107857Y-54601352D02*
X165155476Y-54696590D01*
X165155476Y-54696590D02*
X165203095Y-54744209D01*
X165203095Y-54744209D02*
X165298333Y-54791828D01*
X165298333Y-54791828D02*
X165679285Y-54791828D01*
X164155476Y-55268019D02*
X164726904Y-55268019D01*
X164441190Y-55268019D02*
X164441190Y-54268019D01*
X164441190Y-54268019D02*
X164536428Y-54410876D01*
X164536428Y-54410876D02*
X164631666Y-54506114D01*
X164631666Y-54506114D02*
X164726904Y-54553733D01*
X163298333Y-54601352D02*
X163298333Y-55268019D01*
X163536428Y-54220400D02*
X163774523Y-54934685D01*
X163774523Y-54934685D02*
X163155476Y-54934685D01*
X166250857Y-50560619D02*
X166584190Y-50084428D01*
X166822285Y-50560619D02*
X166822285Y-49560619D01*
X166822285Y-49560619D02*
X166441333Y-49560619D01*
X166441333Y-49560619D02*
X166346095Y-49608238D01*
X166346095Y-49608238D02*
X166298476Y-49655857D01*
X166298476Y-49655857D02*
X166250857Y-49751095D01*
X166250857Y-49751095D02*
X166250857Y-49893952D01*
X166250857Y-49893952D02*
X166298476Y-49989190D01*
X166298476Y-49989190D02*
X166346095Y-50036809D01*
X166346095Y-50036809D02*
X166441333Y-50084428D01*
X166441333Y-50084428D02*
X166822285Y-50084428D01*
X165298476Y-50560619D02*
X165869904Y-50560619D01*
X165584190Y-50560619D02*
X165584190Y-49560619D01*
X165584190Y-49560619D02*
X165679428Y-49703476D01*
X165679428Y-49703476D02*
X165774666Y-49798714D01*
X165774666Y-49798714D02*
X165869904Y-49846333D01*
X164965142Y-49560619D02*
X164346095Y-49560619D01*
X164346095Y-49560619D02*
X164679428Y-49941571D01*
X164679428Y-49941571D02*
X164536571Y-49941571D01*
X164536571Y-49941571D02*
X164441333Y-49989190D01*
X164441333Y-49989190D02*
X164393714Y-50036809D01*
X164393714Y-50036809D02*
X164346095Y-50132047D01*
X164346095Y-50132047D02*
X164346095Y-50370142D01*
X164346095Y-50370142D02*
X164393714Y-50465380D01*
X164393714Y-50465380D02*
X164441333Y-50513000D01*
X164441333Y-50513000D02*
X164536571Y-50560619D01*
X164536571Y-50560619D02*
X164822285Y-50560619D01*
X164822285Y-50560619D02*
X164917523Y-50513000D01*
X164917523Y-50513000D02*
X164965142Y-50465380D01*
X166250857Y-45589819D02*
X166584190Y-45113628D01*
X166822285Y-45589819D02*
X166822285Y-44589819D01*
X166822285Y-44589819D02*
X166441333Y-44589819D01*
X166441333Y-44589819D02*
X166346095Y-44637438D01*
X166346095Y-44637438D02*
X166298476Y-44685057D01*
X166298476Y-44685057D02*
X166250857Y-44780295D01*
X166250857Y-44780295D02*
X166250857Y-44923152D01*
X166250857Y-44923152D02*
X166298476Y-45018390D01*
X166298476Y-45018390D02*
X166346095Y-45066009D01*
X166346095Y-45066009D02*
X166441333Y-45113628D01*
X166441333Y-45113628D02*
X166822285Y-45113628D01*
X165298476Y-45589819D02*
X165869904Y-45589819D01*
X165584190Y-45589819D02*
X165584190Y-44589819D01*
X165584190Y-44589819D02*
X165679428Y-44732676D01*
X165679428Y-44732676D02*
X165774666Y-44827914D01*
X165774666Y-44827914D02*
X165869904Y-44875533D01*
X164917523Y-44685057D02*
X164869904Y-44637438D01*
X164869904Y-44637438D02*
X164774666Y-44589819D01*
X164774666Y-44589819D02*
X164536571Y-44589819D01*
X164536571Y-44589819D02*
X164441333Y-44637438D01*
X164441333Y-44637438D02*
X164393714Y-44685057D01*
X164393714Y-44685057D02*
X164346095Y-44780295D01*
X164346095Y-44780295D02*
X164346095Y-44875533D01*
X164346095Y-44875533D02*
X164393714Y-45018390D01*
X164393714Y-45018390D02*
X164965142Y-45589819D01*
X164965142Y-45589819D02*
X164346095Y-45589819D01*
X139580857Y-130004319D02*
X139914190Y-129528128D01*
X140152285Y-130004319D02*
X140152285Y-129004319D01*
X140152285Y-129004319D02*
X139771333Y-129004319D01*
X139771333Y-129004319D02*
X139676095Y-129051938D01*
X139676095Y-129051938D02*
X139628476Y-129099557D01*
X139628476Y-129099557D02*
X139580857Y-129194795D01*
X139580857Y-129194795D02*
X139580857Y-129337652D01*
X139580857Y-129337652D02*
X139628476Y-129432890D01*
X139628476Y-129432890D02*
X139676095Y-129480509D01*
X139676095Y-129480509D02*
X139771333Y-129528128D01*
X139771333Y-129528128D02*
X140152285Y-129528128D01*
X138628476Y-130004319D02*
X139199904Y-130004319D01*
X138914190Y-130004319D02*
X138914190Y-129004319D01*
X138914190Y-129004319D02*
X139009428Y-129147176D01*
X139009428Y-129147176D02*
X139104666Y-129242414D01*
X139104666Y-129242414D02*
X139199904Y-129290033D01*
X137676095Y-130004319D02*
X138247523Y-130004319D01*
X137961809Y-130004319D02*
X137961809Y-129004319D01*
X137961809Y-129004319D02*
X138057047Y-129147176D01*
X138057047Y-129147176D02*
X138152285Y-129242414D01*
X138152285Y-129242414D02*
X138247523Y-129290033D01*
X143390857Y-134566819D02*
X143724190Y-134090628D01*
X143962285Y-134566819D02*
X143962285Y-133566819D01*
X143962285Y-133566819D02*
X143581333Y-133566819D01*
X143581333Y-133566819D02*
X143486095Y-133614438D01*
X143486095Y-133614438D02*
X143438476Y-133662057D01*
X143438476Y-133662057D02*
X143390857Y-133757295D01*
X143390857Y-133757295D02*
X143390857Y-133900152D01*
X143390857Y-133900152D02*
X143438476Y-133995390D01*
X143438476Y-133995390D02*
X143486095Y-134043009D01*
X143486095Y-134043009D02*
X143581333Y-134090628D01*
X143581333Y-134090628D02*
X143962285Y-134090628D01*
X142438476Y-134566819D02*
X143009904Y-134566819D01*
X142724190Y-134566819D02*
X142724190Y-133566819D01*
X142724190Y-133566819D02*
X142819428Y-133709676D01*
X142819428Y-133709676D02*
X142914666Y-133804914D01*
X142914666Y-133804914D02*
X143009904Y-133852533D01*
X141819428Y-133566819D02*
X141724190Y-133566819D01*
X141724190Y-133566819D02*
X141628952Y-133614438D01*
X141628952Y-133614438D02*
X141581333Y-133662057D01*
X141581333Y-133662057D02*
X141533714Y-133757295D01*
X141533714Y-133757295D02*
X141486095Y-133947771D01*
X141486095Y-133947771D02*
X141486095Y-134185866D01*
X141486095Y-134185866D02*
X141533714Y-134376342D01*
X141533714Y-134376342D02*
X141581333Y-134471580D01*
X141581333Y-134471580D02*
X141628952Y-134519200D01*
X141628952Y-134519200D02*
X141724190Y-134566819D01*
X141724190Y-134566819D02*
X141819428Y-134566819D01*
X141819428Y-134566819D02*
X141914666Y-134519200D01*
X141914666Y-134519200D02*
X141962285Y-134471580D01*
X141962285Y-134471580D02*
X142009904Y-134376342D01*
X142009904Y-134376342D02*
X142057523Y-134185866D01*
X142057523Y-134185866D02*
X142057523Y-133947771D01*
X142057523Y-133947771D02*
X142009904Y-133757295D01*
X142009904Y-133757295D02*
X141962285Y-133662057D01*
X141962285Y-133662057D02*
X141914666Y-133614438D01*
X141914666Y-133614438D02*
X141819428Y-133566819D01*
X160308266Y-132561819D02*
X160641599Y-132085628D01*
X160879694Y-132561819D02*
X160879694Y-131561819D01*
X160879694Y-131561819D02*
X160498742Y-131561819D01*
X160498742Y-131561819D02*
X160403504Y-131609438D01*
X160403504Y-131609438D02*
X160355885Y-131657057D01*
X160355885Y-131657057D02*
X160308266Y-131752295D01*
X160308266Y-131752295D02*
X160308266Y-131895152D01*
X160308266Y-131895152D02*
X160355885Y-131990390D01*
X160355885Y-131990390D02*
X160403504Y-132038009D01*
X160403504Y-132038009D02*
X160498742Y-132085628D01*
X160498742Y-132085628D02*
X160879694Y-132085628D01*
X159832075Y-132561819D02*
X159641599Y-132561819D01*
X159641599Y-132561819D02*
X159546361Y-132514200D01*
X159546361Y-132514200D02*
X159498742Y-132466580D01*
X159498742Y-132466580D02*
X159403504Y-132323723D01*
X159403504Y-132323723D02*
X159355885Y-132133247D01*
X159355885Y-132133247D02*
X159355885Y-131752295D01*
X159355885Y-131752295D02*
X159403504Y-131657057D01*
X159403504Y-131657057D02*
X159451123Y-131609438D01*
X159451123Y-131609438D02*
X159546361Y-131561819D01*
X159546361Y-131561819D02*
X159736837Y-131561819D01*
X159736837Y-131561819D02*
X159832075Y-131609438D01*
X159832075Y-131609438D02*
X159879694Y-131657057D01*
X159879694Y-131657057D02*
X159927313Y-131752295D01*
X159927313Y-131752295D02*
X159927313Y-131990390D01*
X159927313Y-131990390D02*
X159879694Y-132085628D01*
X159879694Y-132085628D02*
X159832075Y-132133247D01*
X159832075Y-132133247D02*
X159736837Y-132180866D01*
X159736837Y-132180866D02*
X159546361Y-132180866D01*
X159546361Y-132180866D02*
X159451123Y-132133247D01*
X159451123Y-132133247D02*
X159403504Y-132085628D01*
X159403504Y-132085628D02*
X159355885Y-131990390D01*
X160308266Y-137435819D02*
X160641599Y-136959628D01*
X160879694Y-137435819D02*
X160879694Y-136435819D01*
X160879694Y-136435819D02*
X160498742Y-136435819D01*
X160498742Y-136435819D02*
X160403504Y-136483438D01*
X160403504Y-136483438D02*
X160355885Y-136531057D01*
X160355885Y-136531057D02*
X160308266Y-136626295D01*
X160308266Y-136626295D02*
X160308266Y-136769152D01*
X160308266Y-136769152D02*
X160355885Y-136864390D01*
X160355885Y-136864390D02*
X160403504Y-136912009D01*
X160403504Y-136912009D02*
X160498742Y-136959628D01*
X160498742Y-136959628D02*
X160879694Y-136959628D01*
X159736837Y-136864390D02*
X159832075Y-136816771D01*
X159832075Y-136816771D02*
X159879694Y-136769152D01*
X159879694Y-136769152D02*
X159927313Y-136673914D01*
X159927313Y-136673914D02*
X159927313Y-136626295D01*
X159927313Y-136626295D02*
X159879694Y-136531057D01*
X159879694Y-136531057D02*
X159832075Y-136483438D01*
X159832075Y-136483438D02*
X159736837Y-136435819D01*
X159736837Y-136435819D02*
X159546361Y-136435819D01*
X159546361Y-136435819D02*
X159451123Y-136483438D01*
X159451123Y-136483438D02*
X159403504Y-136531057D01*
X159403504Y-136531057D02*
X159355885Y-136626295D01*
X159355885Y-136626295D02*
X159355885Y-136673914D01*
X159355885Y-136673914D02*
X159403504Y-136769152D01*
X159403504Y-136769152D02*
X159451123Y-136816771D01*
X159451123Y-136816771D02*
X159546361Y-136864390D01*
X159546361Y-136864390D02*
X159736837Y-136864390D01*
X159736837Y-136864390D02*
X159832075Y-136912009D01*
X159832075Y-136912009D02*
X159879694Y-136959628D01*
X159879694Y-136959628D02*
X159927313Y-137054866D01*
X159927313Y-137054866D02*
X159927313Y-137245342D01*
X159927313Y-137245342D02*
X159879694Y-137340580D01*
X159879694Y-137340580D02*
X159832075Y-137388200D01*
X159832075Y-137388200D02*
X159736837Y-137435819D01*
X159736837Y-137435819D02*
X159546361Y-137435819D01*
X159546361Y-137435819D02*
X159451123Y-137388200D01*
X159451123Y-137388200D02*
X159403504Y-137340580D01*
X159403504Y-137340580D02*
X159355885Y-137245342D01*
X159355885Y-137245342D02*
X159355885Y-137054866D01*
X159355885Y-137054866D02*
X159403504Y-136959628D01*
X159403504Y-136959628D02*
X159451123Y-136912009D01*
X159451123Y-136912009D02*
X159546361Y-136864390D01*
X162980666Y-141424819D02*
X163313999Y-140948628D01*
X163552094Y-141424819D02*
X163552094Y-140424819D01*
X163552094Y-140424819D02*
X163171142Y-140424819D01*
X163171142Y-140424819D02*
X163075904Y-140472438D01*
X163075904Y-140472438D02*
X163028285Y-140520057D01*
X163028285Y-140520057D02*
X162980666Y-140615295D01*
X162980666Y-140615295D02*
X162980666Y-140758152D01*
X162980666Y-140758152D02*
X163028285Y-140853390D01*
X163028285Y-140853390D02*
X163075904Y-140901009D01*
X163075904Y-140901009D02*
X163171142Y-140948628D01*
X163171142Y-140948628D02*
X163552094Y-140948628D01*
X162647332Y-140424819D02*
X161980666Y-140424819D01*
X161980666Y-140424819D02*
X162409237Y-141424819D01*
X163031466Y-129182019D02*
X163364799Y-128705828D01*
X163602894Y-129182019D02*
X163602894Y-128182019D01*
X163602894Y-128182019D02*
X163221942Y-128182019D01*
X163221942Y-128182019D02*
X163126704Y-128229638D01*
X163126704Y-128229638D02*
X163079085Y-128277257D01*
X163079085Y-128277257D02*
X163031466Y-128372495D01*
X163031466Y-128372495D02*
X163031466Y-128515352D01*
X163031466Y-128515352D02*
X163079085Y-128610590D01*
X163079085Y-128610590D02*
X163126704Y-128658209D01*
X163126704Y-128658209D02*
X163221942Y-128705828D01*
X163221942Y-128705828D02*
X163602894Y-128705828D01*
X162174323Y-128182019D02*
X162364799Y-128182019D01*
X162364799Y-128182019D02*
X162460037Y-128229638D01*
X162460037Y-128229638D02*
X162507656Y-128277257D01*
X162507656Y-128277257D02*
X162602894Y-128420114D01*
X162602894Y-128420114D02*
X162650513Y-128610590D01*
X162650513Y-128610590D02*
X162650513Y-128991542D01*
X162650513Y-128991542D02*
X162602894Y-129086780D01*
X162602894Y-129086780D02*
X162555275Y-129134400D01*
X162555275Y-129134400D02*
X162460037Y-129182019D01*
X162460037Y-129182019D02*
X162269561Y-129182019D01*
X162269561Y-129182019D02*
X162174323Y-129134400D01*
X162174323Y-129134400D02*
X162126704Y-129086780D01*
X162126704Y-129086780D02*
X162079085Y-128991542D01*
X162079085Y-128991542D02*
X162079085Y-128753447D01*
X162079085Y-128753447D02*
X162126704Y-128658209D01*
X162126704Y-128658209D02*
X162174323Y-128610590D01*
X162174323Y-128610590D02*
X162269561Y-128562971D01*
X162269561Y-128562971D02*
X162460037Y-128562971D01*
X162460037Y-128562971D02*
X162555275Y-128610590D01*
X162555275Y-128610590D02*
X162602894Y-128658209D01*
X162602894Y-128658209D02*
X162650513Y-128753447D01*
X117006666Y-71574819D02*
X117339999Y-71098628D01*
X117578094Y-71574819D02*
X117578094Y-70574819D01*
X117578094Y-70574819D02*
X117197142Y-70574819D01*
X117197142Y-70574819D02*
X117101904Y-70622438D01*
X117101904Y-70622438D02*
X117054285Y-70670057D01*
X117054285Y-70670057D02*
X117006666Y-70765295D01*
X117006666Y-70765295D02*
X117006666Y-70908152D01*
X117006666Y-70908152D02*
X117054285Y-71003390D01*
X117054285Y-71003390D02*
X117101904Y-71051009D01*
X117101904Y-71051009D02*
X117197142Y-71098628D01*
X117197142Y-71098628D02*
X117578094Y-71098628D01*
X116101904Y-70574819D02*
X116578094Y-70574819D01*
X116578094Y-70574819D02*
X116625713Y-71051009D01*
X116625713Y-71051009D02*
X116578094Y-71003390D01*
X116578094Y-71003390D02*
X116482856Y-70955771D01*
X116482856Y-70955771D02*
X116244761Y-70955771D01*
X116244761Y-70955771D02*
X116149523Y-71003390D01*
X116149523Y-71003390D02*
X116101904Y-71051009D01*
X116101904Y-71051009D02*
X116054285Y-71146247D01*
X116054285Y-71146247D02*
X116054285Y-71384342D01*
X116054285Y-71384342D02*
X116101904Y-71479580D01*
X116101904Y-71479580D02*
X116149523Y-71527200D01*
X116149523Y-71527200D02*
X116244761Y-71574819D01*
X116244761Y-71574819D02*
X116482856Y-71574819D01*
X116482856Y-71574819D02*
X116578094Y-71527200D01*
X116578094Y-71527200D02*
X116625713Y-71479580D01*
X103290666Y-126786819D02*
X103623999Y-126310628D01*
X103862094Y-126786819D02*
X103862094Y-125786819D01*
X103862094Y-125786819D02*
X103481142Y-125786819D01*
X103481142Y-125786819D02*
X103385904Y-125834438D01*
X103385904Y-125834438D02*
X103338285Y-125882057D01*
X103338285Y-125882057D02*
X103290666Y-125977295D01*
X103290666Y-125977295D02*
X103290666Y-126120152D01*
X103290666Y-126120152D02*
X103338285Y-126215390D01*
X103338285Y-126215390D02*
X103385904Y-126263009D01*
X103385904Y-126263009D02*
X103481142Y-126310628D01*
X103481142Y-126310628D02*
X103862094Y-126310628D01*
X102433523Y-126120152D02*
X102433523Y-126786819D01*
X102671618Y-125739200D02*
X102909713Y-126453485D01*
X102909713Y-126453485D02*
X102290666Y-126453485D01*
X144692666Y-81480819D02*
X145025999Y-81004628D01*
X145264094Y-81480819D02*
X145264094Y-80480819D01*
X145264094Y-80480819D02*
X144883142Y-80480819D01*
X144883142Y-80480819D02*
X144787904Y-80528438D01*
X144787904Y-80528438D02*
X144740285Y-80576057D01*
X144740285Y-80576057D02*
X144692666Y-80671295D01*
X144692666Y-80671295D02*
X144692666Y-80814152D01*
X144692666Y-80814152D02*
X144740285Y-80909390D01*
X144740285Y-80909390D02*
X144787904Y-80957009D01*
X144787904Y-80957009D02*
X144883142Y-81004628D01*
X144883142Y-81004628D02*
X145264094Y-81004628D01*
X144359332Y-80480819D02*
X143740285Y-80480819D01*
X143740285Y-80480819D02*
X144073618Y-80861771D01*
X144073618Y-80861771D02*
X143930761Y-80861771D01*
X143930761Y-80861771D02*
X143835523Y-80909390D01*
X143835523Y-80909390D02*
X143787904Y-80957009D01*
X143787904Y-80957009D02*
X143740285Y-81052247D01*
X143740285Y-81052247D02*
X143740285Y-81290342D01*
X143740285Y-81290342D02*
X143787904Y-81385580D01*
X143787904Y-81385580D02*
X143835523Y-81433200D01*
X143835523Y-81433200D02*
X143930761Y-81480819D01*
X143930761Y-81480819D02*
X144216475Y-81480819D01*
X144216475Y-81480819D02*
X144311713Y-81433200D01*
X144311713Y-81433200D02*
X144359332Y-81385580D01*
X96813666Y-124457619D02*
X97146999Y-123981428D01*
X97385094Y-124457619D02*
X97385094Y-123457619D01*
X97385094Y-123457619D02*
X97004142Y-123457619D01*
X97004142Y-123457619D02*
X96908904Y-123505238D01*
X96908904Y-123505238D02*
X96861285Y-123552857D01*
X96861285Y-123552857D02*
X96813666Y-123648095D01*
X96813666Y-123648095D02*
X96813666Y-123790952D01*
X96813666Y-123790952D02*
X96861285Y-123886190D01*
X96861285Y-123886190D02*
X96908904Y-123933809D01*
X96908904Y-123933809D02*
X97004142Y-123981428D01*
X97004142Y-123981428D02*
X97385094Y-123981428D01*
X96432713Y-123552857D02*
X96385094Y-123505238D01*
X96385094Y-123505238D02*
X96289856Y-123457619D01*
X96289856Y-123457619D02*
X96051761Y-123457619D01*
X96051761Y-123457619D02*
X95956523Y-123505238D01*
X95956523Y-123505238D02*
X95908904Y-123552857D01*
X95908904Y-123552857D02*
X95861285Y-123648095D01*
X95861285Y-123648095D02*
X95861285Y-123743333D01*
X95861285Y-123743333D02*
X95908904Y-123886190D01*
X95908904Y-123886190D02*
X96480332Y-124457619D01*
X96480332Y-124457619D02*
X95861285Y-124457619D01*
X140374666Y-75892819D02*
X140707999Y-75416628D01*
X140946094Y-75892819D02*
X140946094Y-74892819D01*
X140946094Y-74892819D02*
X140565142Y-74892819D01*
X140565142Y-74892819D02*
X140469904Y-74940438D01*
X140469904Y-74940438D02*
X140422285Y-74988057D01*
X140422285Y-74988057D02*
X140374666Y-75083295D01*
X140374666Y-75083295D02*
X140374666Y-75226152D01*
X140374666Y-75226152D02*
X140422285Y-75321390D01*
X140422285Y-75321390D02*
X140469904Y-75369009D01*
X140469904Y-75369009D02*
X140565142Y-75416628D01*
X140565142Y-75416628D02*
X140946094Y-75416628D01*
X139422285Y-75892819D02*
X139993713Y-75892819D01*
X139707999Y-75892819D02*
X139707999Y-74892819D01*
X139707999Y-74892819D02*
X139803237Y-75035676D01*
X139803237Y-75035676D02*
X139898475Y-75130914D01*
X139898475Y-75130914D02*
X139993713Y-75178533D01*
X123850304Y-65647219D02*
X123850304Y-66456742D01*
X123850304Y-66456742D02*
X123802685Y-66551980D01*
X123802685Y-66551980D02*
X123755066Y-66599600D01*
X123755066Y-66599600D02*
X123659828Y-66647219D01*
X123659828Y-66647219D02*
X123469352Y-66647219D01*
X123469352Y-66647219D02*
X123374114Y-66599600D01*
X123374114Y-66599600D02*
X123326495Y-66551980D01*
X123326495Y-66551980D02*
X123278876Y-66456742D01*
X123278876Y-66456742D02*
X123278876Y-65647219D01*
X122850304Y-65742457D02*
X122802685Y-65694838D01*
X122802685Y-65694838D02*
X122707447Y-65647219D01*
X122707447Y-65647219D02*
X122469352Y-65647219D01*
X122469352Y-65647219D02*
X122374114Y-65694838D01*
X122374114Y-65694838D02*
X122326495Y-65742457D01*
X122326495Y-65742457D02*
X122278876Y-65837695D01*
X122278876Y-65837695D02*
X122278876Y-65932933D01*
X122278876Y-65932933D02*
X122326495Y-66075790D01*
X122326495Y-66075790D02*
X122897923Y-66647219D01*
X122897923Y-66647219D02*
X122278876Y-66647219D01*
X137595238Y-82550057D02*
X137690476Y-82502438D01*
X137690476Y-82502438D02*
X137785714Y-82407200D01*
X137785714Y-82407200D02*
X137928571Y-82264342D01*
X137928571Y-82264342D02*
X138023809Y-82216723D01*
X138023809Y-82216723D02*
X138119047Y-82216723D01*
X138071428Y-82454819D02*
X138166666Y-82407200D01*
X138166666Y-82407200D02*
X138261904Y-82311961D01*
X138261904Y-82311961D02*
X138309523Y-82121485D01*
X138309523Y-82121485D02*
X138309523Y-81788152D01*
X138309523Y-81788152D02*
X138261904Y-81597676D01*
X138261904Y-81597676D02*
X138166666Y-81502438D01*
X138166666Y-81502438D02*
X138071428Y-81454819D01*
X138071428Y-81454819D02*
X137880952Y-81454819D01*
X137880952Y-81454819D02*
X137785714Y-81502438D01*
X137785714Y-81502438D02*
X137690476Y-81597676D01*
X137690476Y-81597676D02*
X137642857Y-81788152D01*
X137642857Y-81788152D02*
X137642857Y-82121485D01*
X137642857Y-82121485D02*
X137690476Y-82311961D01*
X137690476Y-82311961D02*
X137785714Y-82407200D01*
X137785714Y-82407200D02*
X137880952Y-82454819D01*
X137880952Y-82454819D02*
X138071428Y-82454819D01*
X136690476Y-82454819D02*
X137261904Y-82454819D01*
X136976190Y-82454819D02*
X136976190Y-81454819D01*
X136976190Y-81454819D02*
X137071428Y-81597676D01*
X137071428Y-81597676D02*
X137166666Y-81692914D01*
X137166666Y-81692914D02*
X137261904Y-81740533D01*
X91315904Y-133770019D02*
X91315904Y-134579542D01*
X91315904Y-134579542D02*
X91268285Y-134674780D01*
X91268285Y-134674780D02*
X91220666Y-134722400D01*
X91220666Y-134722400D02*
X91125428Y-134770019D01*
X91125428Y-134770019D02*
X90934952Y-134770019D01*
X90934952Y-134770019D02*
X90839714Y-134722400D01*
X90839714Y-134722400D02*
X90792095Y-134674780D01*
X90792095Y-134674780D02*
X90744476Y-134579542D01*
X90744476Y-134579542D02*
X90744476Y-133770019D01*
X89839714Y-133770019D02*
X90030190Y-133770019D01*
X90030190Y-133770019D02*
X90125428Y-133817638D01*
X90125428Y-133817638D02*
X90173047Y-133865257D01*
X90173047Y-133865257D02*
X90268285Y-134008114D01*
X90268285Y-134008114D02*
X90315904Y-134198590D01*
X90315904Y-134198590D02*
X90315904Y-134579542D01*
X90315904Y-134579542D02*
X90268285Y-134674780D01*
X90268285Y-134674780D02*
X90220666Y-134722400D01*
X90220666Y-134722400D02*
X90125428Y-134770019D01*
X90125428Y-134770019D02*
X89934952Y-134770019D01*
X89934952Y-134770019D02*
X89839714Y-134722400D01*
X89839714Y-134722400D02*
X89792095Y-134674780D01*
X89792095Y-134674780D02*
X89744476Y-134579542D01*
X89744476Y-134579542D02*
X89744476Y-134341447D01*
X89744476Y-134341447D02*
X89792095Y-134246209D01*
X89792095Y-134246209D02*
X89839714Y-134198590D01*
X89839714Y-134198590D02*
X89934952Y-134150971D01*
X89934952Y-134150971D02*
X90125428Y-134150971D01*
X90125428Y-134150971D02*
X90220666Y-134198590D01*
X90220666Y-134198590D02*
X90268285Y-134246209D01*
X90268285Y-134246209D02*
X90315904Y-134341447D01*
X125729904Y-58268819D02*
X125729904Y-59078342D01*
X125729904Y-59078342D02*
X125682285Y-59173580D01*
X125682285Y-59173580D02*
X125634666Y-59221200D01*
X125634666Y-59221200D02*
X125539428Y-59268819D01*
X125539428Y-59268819D02*
X125348952Y-59268819D01*
X125348952Y-59268819D02*
X125253714Y-59221200D01*
X125253714Y-59221200D02*
X125206095Y-59173580D01*
X125206095Y-59173580D02*
X125158476Y-59078342D01*
X125158476Y-59078342D02*
X125158476Y-58268819D01*
X124777523Y-58268819D02*
X124158476Y-58268819D01*
X124158476Y-58268819D02*
X124491809Y-58649771D01*
X124491809Y-58649771D02*
X124348952Y-58649771D01*
X124348952Y-58649771D02*
X124253714Y-58697390D01*
X124253714Y-58697390D02*
X124206095Y-58745009D01*
X124206095Y-58745009D02*
X124158476Y-58840247D01*
X124158476Y-58840247D02*
X124158476Y-59078342D01*
X124158476Y-59078342D02*
X124206095Y-59173580D01*
X124206095Y-59173580D02*
X124253714Y-59221200D01*
X124253714Y-59221200D02*
X124348952Y-59268819D01*
X124348952Y-59268819D02*
X124634666Y-59268819D01*
X124634666Y-59268819D02*
X124729904Y-59221200D01*
X124729904Y-59221200D02*
X124777523Y-59173580D01*
X126809066Y-121211680D02*
X126856685Y-121259300D01*
X126856685Y-121259300D02*
X126999542Y-121306919D01*
X126999542Y-121306919D02*
X127094780Y-121306919D01*
X127094780Y-121306919D02*
X127237637Y-121259300D01*
X127237637Y-121259300D02*
X127332875Y-121164061D01*
X127332875Y-121164061D02*
X127380494Y-121068823D01*
X127380494Y-121068823D02*
X127428113Y-120878347D01*
X127428113Y-120878347D02*
X127428113Y-120735490D01*
X127428113Y-120735490D02*
X127380494Y-120545014D01*
X127380494Y-120545014D02*
X127332875Y-120449776D01*
X127332875Y-120449776D02*
X127237637Y-120354538D01*
X127237637Y-120354538D02*
X127094780Y-120306919D01*
X127094780Y-120306919D02*
X126999542Y-120306919D01*
X126999542Y-120306919D02*
X126856685Y-120354538D01*
X126856685Y-120354538D02*
X126809066Y-120402157D01*
X125904304Y-120306919D02*
X126380494Y-120306919D01*
X126380494Y-120306919D02*
X126428113Y-120783109D01*
X126428113Y-120783109D02*
X126380494Y-120735490D01*
X126380494Y-120735490D02*
X126285256Y-120687871D01*
X126285256Y-120687871D02*
X126047161Y-120687871D01*
X126047161Y-120687871D02*
X125951923Y-120735490D01*
X125951923Y-120735490D02*
X125904304Y-120783109D01*
X125904304Y-120783109D02*
X125856685Y-120878347D01*
X125856685Y-120878347D02*
X125856685Y-121116442D01*
X125856685Y-121116442D02*
X125904304Y-121211680D01*
X125904304Y-121211680D02*
X125951923Y-121259300D01*
X125951923Y-121259300D02*
X126047161Y-121306919D01*
X126047161Y-121306919D02*
X126285256Y-121306919D01*
X126285256Y-121306919D02*
X126380494Y-121259300D01*
X126380494Y-121259300D02*
X126428113Y-121211680D01*
X133954190Y-119026128D02*
X133954190Y-119502319D01*
X134287523Y-118502319D02*
X133954190Y-119026128D01*
X133954190Y-119026128D02*
X133620857Y-118502319D01*
X132763714Y-119502319D02*
X133335142Y-119502319D01*
X133049428Y-119502319D02*
X133049428Y-118502319D01*
X133049428Y-118502319D02*
X133144666Y-118645176D01*
X133144666Y-118645176D02*
X133239904Y-118740414D01*
X133239904Y-118740414D02*
X133335142Y-118788033D01*
X116166666Y-60859580D02*
X116214285Y-60907200D01*
X116214285Y-60907200D02*
X116357142Y-60954819D01*
X116357142Y-60954819D02*
X116452380Y-60954819D01*
X116452380Y-60954819D02*
X116595237Y-60907200D01*
X116595237Y-60907200D02*
X116690475Y-60811961D01*
X116690475Y-60811961D02*
X116738094Y-60716723D01*
X116738094Y-60716723D02*
X116785713Y-60526247D01*
X116785713Y-60526247D02*
X116785713Y-60383390D01*
X116785713Y-60383390D02*
X116738094Y-60192914D01*
X116738094Y-60192914D02*
X116690475Y-60097676D01*
X116690475Y-60097676D02*
X116595237Y-60002438D01*
X116595237Y-60002438D02*
X116452380Y-59954819D01*
X116452380Y-59954819D02*
X116357142Y-59954819D01*
X116357142Y-59954819D02*
X116214285Y-60002438D01*
X116214285Y-60002438D02*
X116166666Y-60050057D01*
X115833332Y-59954819D02*
X115214285Y-59954819D01*
X115214285Y-59954819D02*
X115547618Y-60335771D01*
X115547618Y-60335771D02*
X115404761Y-60335771D01*
X115404761Y-60335771D02*
X115309523Y-60383390D01*
X115309523Y-60383390D02*
X115261904Y-60431009D01*
X115261904Y-60431009D02*
X115214285Y-60526247D01*
X115214285Y-60526247D02*
X115214285Y-60764342D01*
X115214285Y-60764342D02*
X115261904Y-60859580D01*
X115261904Y-60859580D02*
X115309523Y-60907200D01*
X115309523Y-60907200D02*
X115404761Y-60954819D01*
X115404761Y-60954819D02*
X115690475Y-60954819D01*
X115690475Y-60954819D02*
X115785713Y-60907200D01*
X115785713Y-60907200D02*
X115833332Y-60859580D01*
X128739904Y-129050319D02*
X128739904Y-129859842D01*
X128739904Y-129859842D02*
X128692285Y-129955080D01*
X128692285Y-129955080D02*
X128644666Y-130002700D01*
X128644666Y-130002700D02*
X128549428Y-130050319D01*
X128549428Y-130050319D02*
X128358952Y-130050319D01*
X128358952Y-130050319D02*
X128263714Y-130002700D01*
X128263714Y-130002700D02*
X128216095Y-129955080D01*
X128216095Y-129955080D02*
X128168476Y-129859842D01*
X128168476Y-129859842D02*
X128168476Y-129050319D01*
X127263714Y-129383652D02*
X127263714Y-130050319D01*
X127501809Y-129002700D02*
X127739904Y-129716985D01*
X127739904Y-129716985D02*
X127120857Y-129716985D01*
X92416666Y-72679580D02*
X92464285Y-72727200D01*
X92464285Y-72727200D02*
X92607142Y-72774819D01*
X92607142Y-72774819D02*
X92702380Y-72774819D01*
X92702380Y-72774819D02*
X92845237Y-72727200D01*
X92845237Y-72727200D02*
X92940475Y-72631961D01*
X92940475Y-72631961D02*
X92988094Y-72536723D01*
X92988094Y-72536723D02*
X93035713Y-72346247D01*
X93035713Y-72346247D02*
X93035713Y-72203390D01*
X93035713Y-72203390D02*
X92988094Y-72012914D01*
X92988094Y-72012914D02*
X92940475Y-71917676D01*
X92940475Y-71917676D02*
X92845237Y-71822438D01*
X92845237Y-71822438D02*
X92702380Y-71774819D01*
X92702380Y-71774819D02*
X92607142Y-71774819D01*
X92607142Y-71774819D02*
X92464285Y-71822438D01*
X92464285Y-71822438D02*
X92416666Y-71870057D01*
X91464285Y-72774819D02*
X92035713Y-72774819D01*
X91749999Y-72774819D02*
X91749999Y-71774819D01*
X91749999Y-71774819D02*
X91845237Y-71917676D01*
X91845237Y-71917676D02*
X91940475Y-72012914D01*
X91940475Y-72012914D02*
X92035713Y-72060533D01*
X130214666Y-59127580D02*
X130262285Y-59175200D01*
X130262285Y-59175200D02*
X130405142Y-59222819D01*
X130405142Y-59222819D02*
X130500380Y-59222819D01*
X130500380Y-59222819D02*
X130643237Y-59175200D01*
X130643237Y-59175200D02*
X130738475Y-59079961D01*
X130738475Y-59079961D02*
X130786094Y-58984723D01*
X130786094Y-58984723D02*
X130833713Y-58794247D01*
X130833713Y-58794247D02*
X130833713Y-58651390D01*
X130833713Y-58651390D02*
X130786094Y-58460914D01*
X130786094Y-58460914D02*
X130738475Y-58365676D01*
X130738475Y-58365676D02*
X130643237Y-58270438D01*
X130643237Y-58270438D02*
X130500380Y-58222819D01*
X130500380Y-58222819D02*
X130405142Y-58222819D01*
X130405142Y-58222819D02*
X130262285Y-58270438D01*
X130262285Y-58270438D02*
X130214666Y-58318057D01*
X129833713Y-58318057D02*
X129786094Y-58270438D01*
X129786094Y-58270438D02*
X129690856Y-58222819D01*
X129690856Y-58222819D02*
X129452761Y-58222819D01*
X129452761Y-58222819D02*
X129357523Y-58270438D01*
X129357523Y-58270438D02*
X129309904Y-58318057D01*
X129309904Y-58318057D02*
X129262285Y-58413295D01*
X129262285Y-58413295D02*
X129262285Y-58508533D01*
X129262285Y-58508533D02*
X129309904Y-58651390D01*
X129309904Y-58651390D02*
X129881332Y-59222819D01*
X129881332Y-59222819D02*
X129262285Y-59222819D01*
X141561866Y-123700880D02*
X141609485Y-123748500D01*
X141609485Y-123748500D02*
X141752342Y-123796119D01*
X141752342Y-123796119D02*
X141847580Y-123796119D01*
X141847580Y-123796119D02*
X141990437Y-123748500D01*
X141990437Y-123748500D02*
X142085675Y-123653261D01*
X142085675Y-123653261D02*
X142133294Y-123558023D01*
X142133294Y-123558023D02*
X142180913Y-123367547D01*
X142180913Y-123367547D02*
X142180913Y-123224690D01*
X142180913Y-123224690D02*
X142133294Y-123034214D01*
X142133294Y-123034214D02*
X142085675Y-122938976D01*
X142085675Y-122938976D02*
X141990437Y-122843738D01*
X141990437Y-122843738D02*
X141847580Y-122796119D01*
X141847580Y-122796119D02*
X141752342Y-122796119D01*
X141752342Y-122796119D02*
X141609485Y-122843738D01*
X141609485Y-122843738D02*
X141561866Y-122891357D01*
X140704723Y-122796119D02*
X140895199Y-122796119D01*
X140895199Y-122796119D02*
X140990437Y-122843738D01*
X140990437Y-122843738D02*
X141038056Y-122891357D01*
X141038056Y-122891357D02*
X141133294Y-123034214D01*
X141133294Y-123034214D02*
X141180913Y-123224690D01*
X141180913Y-123224690D02*
X141180913Y-123605642D01*
X141180913Y-123605642D02*
X141133294Y-123700880D01*
X141133294Y-123700880D02*
X141085675Y-123748500D01*
X141085675Y-123748500D02*
X140990437Y-123796119D01*
X140990437Y-123796119D02*
X140799961Y-123796119D01*
X140799961Y-123796119D02*
X140704723Y-123748500D01*
X140704723Y-123748500D02*
X140657104Y-123700880D01*
X140657104Y-123700880D02*
X140609485Y-123605642D01*
X140609485Y-123605642D02*
X140609485Y-123367547D01*
X140609485Y-123367547D02*
X140657104Y-123272309D01*
X140657104Y-123272309D02*
X140704723Y-123224690D01*
X140704723Y-123224690D02*
X140799961Y-123177071D01*
X140799961Y-123177071D02*
X140990437Y-123177071D01*
X140990437Y-123177071D02*
X141085675Y-123224690D01*
X141085675Y-123224690D02*
X141133294Y-123272309D01*
X141133294Y-123272309D02*
X141180913Y-123367547D01*
X103219238Y-121301657D02*
X103314476Y-121254038D01*
X103314476Y-121254038D02*
X103409714Y-121158800D01*
X103409714Y-121158800D02*
X103552571Y-121015942D01*
X103552571Y-121015942D02*
X103647809Y-120968323D01*
X103647809Y-120968323D02*
X103743047Y-120968323D01*
X103695428Y-121206419D02*
X103790666Y-121158800D01*
X103790666Y-121158800D02*
X103885904Y-121063561D01*
X103885904Y-121063561D02*
X103933523Y-120873085D01*
X103933523Y-120873085D02*
X103933523Y-120539752D01*
X103933523Y-120539752D02*
X103885904Y-120349276D01*
X103885904Y-120349276D02*
X103790666Y-120254038D01*
X103790666Y-120254038D02*
X103695428Y-120206419D01*
X103695428Y-120206419D02*
X103504952Y-120206419D01*
X103504952Y-120206419D02*
X103409714Y-120254038D01*
X103409714Y-120254038D02*
X103314476Y-120349276D01*
X103314476Y-120349276D02*
X103266857Y-120539752D01*
X103266857Y-120539752D02*
X103266857Y-120873085D01*
X103266857Y-120873085D02*
X103314476Y-121063561D01*
X103314476Y-121063561D02*
X103409714Y-121158800D01*
X103409714Y-121158800D02*
X103504952Y-121206419D01*
X103504952Y-121206419D02*
X103695428Y-121206419D01*
X102885904Y-120301657D02*
X102838285Y-120254038D01*
X102838285Y-120254038D02*
X102743047Y-120206419D01*
X102743047Y-120206419D02*
X102504952Y-120206419D01*
X102504952Y-120206419D02*
X102409714Y-120254038D01*
X102409714Y-120254038D02*
X102362095Y-120301657D01*
X102362095Y-120301657D02*
X102314476Y-120396895D01*
X102314476Y-120396895D02*
X102314476Y-120492133D01*
X102314476Y-120492133D02*
X102362095Y-120634990D01*
X102362095Y-120634990D02*
X102933523Y-121206419D01*
X102933523Y-121206419D02*
X102314476Y-121206419D01*
X163804504Y-122086019D02*
X163804504Y-122895542D01*
X163804504Y-122895542D02*
X163756885Y-122990780D01*
X163756885Y-122990780D02*
X163709266Y-123038400D01*
X163709266Y-123038400D02*
X163614028Y-123086019D01*
X163614028Y-123086019D02*
X163423552Y-123086019D01*
X163423552Y-123086019D02*
X163328314Y-123038400D01*
X163328314Y-123038400D02*
X163280695Y-122990780D01*
X163280695Y-122990780D02*
X163233076Y-122895542D01*
X163233076Y-122895542D02*
X163233076Y-122086019D01*
X162852123Y-122086019D02*
X162185457Y-122086019D01*
X162185457Y-122086019D02*
X162614028Y-123086019D01*
X166963133Y-141608019D02*
X166963133Y-142322304D01*
X166963133Y-142322304D02*
X167010752Y-142465161D01*
X167010752Y-142465161D02*
X167105990Y-142560400D01*
X167105990Y-142560400D02*
X167248847Y-142608019D01*
X167248847Y-142608019D02*
X167344085Y-142608019D01*
X166582180Y-141608019D02*
X165963133Y-141608019D01*
X165963133Y-141608019D02*
X166296466Y-141988971D01*
X166296466Y-141988971D02*
X166153609Y-141988971D01*
X166153609Y-141988971D02*
X166058371Y-142036590D01*
X166058371Y-142036590D02*
X166010752Y-142084209D01*
X166010752Y-142084209D02*
X165963133Y-142179447D01*
X165963133Y-142179447D02*
X165963133Y-142417542D01*
X165963133Y-142417542D02*
X166010752Y-142512780D01*
X166010752Y-142512780D02*
X166058371Y-142560400D01*
X166058371Y-142560400D02*
X166153609Y-142608019D01*
X166153609Y-142608019D02*
X166439323Y-142608019D01*
X166439323Y-142608019D02*
X166534561Y-142560400D01*
X166534561Y-142560400D02*
X166582180Y-142512780D01*
X145638966Y-130003080D02*
X145686585Y-130050700D01*
X145686585Y-130050700D02*
X145829442Y-130098319D01*
X145829442Y-130098319D02*
X145924680Y-130098319D01*
X145924680Y-130098319D02*
X146067537Y-130050700D01*
X146067537Y-130050700D02*
X146162775Y-129955461D01*
X146162775Y-129955461D02*
X146210394Y-129860223D01*
X146210394Y-129860223D02*
X146258013Y-129669747D01*
X146258013Y-129669747D02*
X146258013Y-129526890D01*
X146258013Y-129526890D02*
X146210394Y-129336414D01*
X146210394Y-129336414D02*
X146162775Y-129241176D01*
X146162775Y-129241176D02*
X146067537Y-129145938D01*
X146067537Y-129145938D02*
X145924680Y-129098319D01*
X145924680Y-129098319D02*
X145829442Y-129098319D01*
X145829442Y-129098319D02*
X145686585Y-129145938D01*
X145686585Y-129145938D02*
X145638966Y-129193557D01*
X145305632Y-129098319D02*
X144638966Y-129098319D01*
X144638966Y-129098319D02*
X145067537Y-130098319D01*
X145613966Y-127799880D02*
X145661585Y-127847500D01*
X145661585Y-127847500D02*
X145804442Y-127895119D01*
X145804442Y-127895119D02*
X145899680Y-127895119D01*
X145899680Y-127895119D02*
X146042537Y-127847500D01*
X146042537Y-127847500D02*
X146137775Y-127752261D01*
X146137775Y-127752261D02*
X146185394Y-127657023D01*
X146185394Y-127657023D02*
X146233013Y-127466547D01*
X146233013Y-127466547D02*
X146233013Y-127323690D01*
X146233013Y-127323690D02*
X146185394Y-127133214D01*
X146185394Y-127133214D02*
X146137775Y-127037976D01*
X146137775Y-127037976D02*
X146042537Y-126942738D01*
X146042537Y-126942738D02*
X145899680Y-126895119D01*
X145899680Y-126895119D02*
X145804442Y-126895119D01*
X145804442Y-126895119D02*
X145661585Y-126942738D01*
X145661585Y-126942738D02*
X145613966Y-126990357D01*
X145042537Y-127323690D02*
X145137775Y-127276071D01*
X145137775Y-127276071D02*
X145185394Y-127228452D01*
X145185394Y-127228452D02*
X145233013Y-127133214D01*
X145233013Y-127133214D02*
X145233013Y-127085595D01*
X145233013Y-127085595D02*
X145185394Y-126990357D01*
X145185394Y-126990357D02*
X145137775Y-126942738D01*
X145137775Y-126942738D02*
X145042537Y-126895119D01*
X145042537Y-126895119D02*
X144852061Y-126895119D01*
X144852061Y-126895119D02*
X144756823Y-126942738D01*
X144756823Y-126942738D02*
X144709204Y-126990357D01*
X144709204Y-126990357D02*
X144661585Y-127085595D01*
X144661585Y-127085595D02*
X144661585Y-127133214D01*
X144661585Y-127133214D02*
X144709204Y-127228452D01*
X144709204Y-127228452D02*
X144756823Y-127276071D01*
X144756823Y-127276071D02*
X144852061Y-127323690D01*
X144852061Y-127323690D02*
X145042537Y-127323690D01*
X145042537Y-127323690D02*
X145137775Y-127371309D01*
X145137775Y-127371309D02*
X145185394Y-127418928D01*
X145185394Y-127418928D02*
X145233013Y-127514166D01*
X145233013Y-127514166D02*
X145233013Y-127704642D01*
X145233013Y-127704642D02*
X145185394Y-127799880D01*
X145185394Y-127799880D02*
X145137775Y-127847500D01*
X145137775Y-127847500D02*
X145042537Y-127895119D01*
X145042537Y-127895119D02*
X144852061Y-127895119D01*
X144852061Y-127895119D02*
X144756823Y-127847500D01*
X144756823Y-127847500D02*
X144709204Y-127799880D01*
X144709204Y-127799880D02*
X144661585Y-127704642D01*
X144661585Y-127704642D02*
X144661585Y-127514166D01*
X144661585Y-127514166D02*
X144709204Y-127418928D01*
X144709204Y-127418928D02*
X144756823Y-127371309D01*
X144756823Y-127371309D02*
X144852061Y-127323690D01*
X100837904Y-132246019D02*
X100837904Y-133055542D01*
X100837904Y-133055542D02*
X100790285Y-133150780D01*
X100790285Y-133150780D02*
X100742666Y-133198400D01*
X100742666Y-133198400D02*
X100647428Y-133246019D01*
X100647428Y-133246019D02*
X100456952Y-133246019D01*
X100456952Y-133246019D02*
X100361714Y-133198400D01*
X100361714Y-133198400D02*
X100314095Y-133150780D01*
X100314095Y-133150780D02*
X100266476Y-133055542D01*
X100266476Y-133055542D02*
X100266476Y-132246019D01*
X99314095Y-132246019D02*
X99790285Y-132246019D01*
X99790285Y-132246019D02*
X99837904Y-132722209D01*
X99837904Y-132722209D02*
X99790285Y-132674590D01*
X99790285Y-132674590D02*
X99695047Y-132626971D01*
X99695047Y-132626971D02*
X99456952Y-132626971D01*
X99456952Y-132626971D02*
X99361714Y-132674590D01*
X99361714Y-132674590D02*
X99314095Y-132722209D01*
X99314095Y-132722209D02*
X99266476Y-132817447D01*
X99266476Y-132817447D02*
X99266476Y-133055542D01*
X99266476Y-133055542D02*
X99314095Y-133150780D01*
X99314095Y-133150780D02*
X99361714Y-133198400D01*
X99361714Y-133198400D02*
X99456952Y-133246019D01*
X99456952Y-133246019D02*
X99695047Y-133246019D01*
X99695047Y-133246019D02*
X99790285Y-133198400D01*
X99790285Y-133198400D02*
X99837904Y-133150780D01*
X119800666Y-59127580D02*
X119848285Y-59175200D01*
X119848285Y-59175200D02*
X119991142Y-59222819D01*
X119991142Y-59222819D02*
X120086380Y-59222819D01*
X120086380Y-59222819D02*
X120229237Y-59175200D01*
X120229237Y-59175200D02*
X120324475Y-59079961D01*
X120324475Y-59079961D02*
X120372094Y-58984723D01*
X120372094Y-58984723D02*
X120419713Y-58794247D01*
X120419713Y-58794247D02*
X120419713Y-58651390D01*
X120419713Y-58651390D02*
X120372094Y-58460914D01*
X120372094Y-58460914D02*
X120324475Y-58365676D01*
X120324475Y-58365676D02*
X120229237Y-58270438D01*
X120229237Y-58270438D02*
X120086380Y-58222819D01*
X120086380Y-58222819D02*
X119991142Y-58222819D01*
X119991142Y-58222819D02*
X119848285Y-58270438D01*
X119848285Y-58270438D02*
X119800666Y-58318057D01*
X118943523Y-58556152D02*
X118943523Y-59222819D01*
X119181618Y-58175200D02*
X119419713Y-58889485D01*
X119419713Y-58889485D02*
X118800666Y-58889485D01*
D11*
%TO.C,R17*%
X148143700Y-132080724D02*
X148143700Y-131571276D01*
X149188700Y-132080724D02*
X149188700Y-131571276D01*
%TO.C,R16*%
X97004724Y-140272500D02*
X96495276Y-140272500D01*
X97004724Y-139227500D02*
X96495276Y-139227500D01*
%TO.C,R15*%
X95235500Y-136144724D02*
X95235500Y-135635276D01*
X96280500Y-136144724D02*
X96280500Y-135635276D01*
%TO.C,R14*%
X164692424Y-56834300D02*
X164182976Y-56834300D01*
X164692424Y-55789300D02*
X164182976Y-55789300D01*
%TO.C,R13*%
X165353276Y-51365500D02*
X165862724Y-51365500D01*
X165353276Y-52410500D02*
X165862724Y-52410500D01*
%TO.C,R12*%
X165353276Y-46365500D02*
X165862724Y-46365500D01*
X165353276Y-47410500D02*
X165862724Y-47410500D01*
%TO.C,R11*%
X139192724Y-128642000D02*
X138683276Y-128642000D01*
X139192724Y-127597000D02*
X138683276Y-127597000D01*
%TO.C,R10*%
X143002724Y-133110500D02*
X142493276Y-133110500D01*
X143002724Y-132065500D02*
X142493276Y-132065500D01*
%TO.C,R9*%
X160396324Y-133108500D02*
X159886876Y-133108500D01*
X160396324Y-134153500D02*
X159886876Y-134153500D01*
%TO.C,R8*%
X160396324Y-135028500D02*
X159886876Y-135028500D01*
X160396324Y-136073500D02*
X159886876Y-136073500D01*
%TO.C,R7*%
X163336500Y-138057276D02*
X163336500Y-138566724D01*
X162291500Y-138057276D02*
X162291500Y-138566724D01*
%TO.C,R6*%
X162316900Y-131267924D02*
X162316900Y-130758476D01*
X163361900Y-131267924D02*
X163361900Y-130758476D01*
%TO.C,R5*%
X118227500Y-71254724D02*
X118227500Y-70745276D01*
X119272500Y-71254724D02*
X119272500Y-70745276D01*
%TO.C,R4*%
X102869276Y-127239500D02*
X103378724Y-127239500D01*
X102869276Y-128284500D02*
X103378724Y-128284500D01*
%TO.C,R3*%
X144003500Y-83754724D02*
X144003500Y-83245276D01*
X145048500Y-83754724D02*
X145048500Y-83245276D01*
%TO.C,R2*%
X96825524Y-123077500D02*
X96316076Y-123077500D01*
X96825524Y-122032500D02*
X96316076Y-122032500D01*
%TO.C,R1*%
X139685500Y-78232724D02*
X139685500Y-77723276D01*
X140730500Y-78232724D02*
X140730500Y-77723276D01*
%TO.C,U2*%
X118140000Y-65312500D02*
X118140000Y-66112500D01*
X118140000Y-66912500D02*
X118140000Y-66112500D01*
X121260000Y-65312500D02*
X121260000Y-66112500D01*
X121260000Y-66912500D02*
X121260000Y-66112500D01*
X118190000Y-64812500D02*
X117860000Y-65052500D01*
X117860000Y-64572500D01*
X118190000Y-64812500D01*
G36*
X118190000Y-64812500D02*
G01*
X117860000Y-65052500D01*
X117860000Y-64572500D01*
X118190000Y-64812500D01*
G37*
%TO.C,Q1*%
X138740000Y-81912500D02*
X138740000Y-82562500D01*
X138740000Y-83212500D02*
X138740000Y-82562500D01*
X141860000Y-81912500D02*
X141860000Y-82562500D01*
X141860000Y-83212500D02*
X141860000Y-82562500D01*
X142140000Y-83965000D02*
X141810000Y-83725000D01*
X142140000Y-83485000D01*
X142140000Y-83965000D01*
G36*
X142140000Y-83965000D02*
G01*
X141810000Y-83725000D01*
X142140000Y-83485000D01*
X142140000Y-83965000D01*
G37*
%TO.C,U6*%
X87594000Y-136200000D02*
X87594000Y-137000000D01*
X87594000Y-137800000D02*
X87594000Y-137000000D01*
X90714000Y-136200000D02*
X90714000Y-137000000D01*
X90714000Y-137800000D02*
X90714000Y-137000000D01*
X87644000Y-135700000D02*
X87314000Y-135940000D01*
X87314000Y-135460000D01*
X87644000Y-135700000D01*
G36*
X87644000Y-135700000D02*
G01*
X87314000Y-135940000D01*
X87314000Y-135460000D01*
X87644000Y-135700000D01*
G37*
%TO.C,U3*%
X124168000Y-59654000D02*
X124968000Y-59654000D01*
X124168000Y-62774000D02*
X124968000Y-62774000D01*
X125768000Y-59654000D02*
X124968000Y-59654000D01*
X125768000Y-62774000D02*
X124968000Y-62774000D01*
X126268000Y-59704000D02*
X126028000Y-59374000D01*
X126508000Y-59374000D01*
X126268000Y-59704000D01*
G36*
X126268000Y-59704000D02*
G01*
X126028000Y-59374000D01*
X126508000Y-59374000D01*
X126268000Y-59704000D01*
G37*
%TO.C,C5*%
X126236000Y-123176233D02*
X126236000Y-123468767D01*
X127256000Y-123176233D02*
X127256000Y-123468767D01*
%TO.C,Y1*%
X127978000Y-120622500D02*
X127978000Y-126022500D01*
X127978000Y-126022500D02*
X137978000Y-126022500D01*
X137978000Y-120622500D02*
X127978000Y-120622500D01*
%TO.C,C3*%
X115490000Y-62853733D02*
X115490000Y-63146267D01*
X116510000Y-62853733D02*
X116510000Y-63146267D01*
%TO.C,U4*%
X129868000Y-130485500D02*
X130318000Y-130485500D01*
X129868000Y-130935500D02*
X129868000Y-130485500D01*
X129868000Y-137255500D02*
X129868000Y-137705500D01*
X129868000Y-137705500D02*
X130318000Y-137705500D01*
X137088000Y-130485500D02*
X136638000Y-130485500D01*
X137088000Y-130935500D02*
X137088000Y-130485500D01*
X137088000Y-137255500D02*
X137088000Y-137705500D01*
X137088000Y-137705500D02*
X136638000Y-137705500D01*
X137678000Y-130935500D02*
X137338000Y-130465500D01*
X138018000Y-130465500D01*
X137678000Y-130935500D01*
G36*
X137678000Y-130935500D02*
G01*
X137338000Y-130465500D01*
X138018000Y-130465500D01*
X137678000Y-130935500D01*
G37*
%TO.C,C1*%
X92103733Y-73240000D02*
X92396267Y-73240000D01*
X92103733Y-74260000D02*
X92396267Y-74260000D01*
%TO.C,C2*%
X129901733Y-59688000D02*
X130194267Y-59688000D01*
X129901733Y-60708000D02*
X130194267Y-60708000D01*
%TO.C,C6*%
X138936000Y-123176233D02*
X138936000Y-123468767D01*
X139956000Y-123176233D02*
X139956000Y-123468767D01*
%TO.C,Q2*%
X101377500Y-122850000D02*
X101377500Y-123500000D01*
X101377500Y-124150000D02*
X101377500Y-123500000D01*
X104497500Y-122850000D02*
X104497500Y-123500000D01*
X104497500Y-124150000D02*
X104497500Y-123500000D01*
X104777500Y-124902500D02*
X104447500Y-124662500D01*
X104777500Y-124422500D01*
X104777500Y-124902500D01*
G36*
X104777500Y-124902500D02*
G01*
X104447500Y-124662500D01*
X104777500Y-124422500D01*
X104777500Y-124902500D01*
G37*
%TO.C,U7*%
X165263000Y-124853800D02*
X165263000Y-125653800D01*
X162143000Y-124853800D02*
X162143000Y-125653800D01*
X165263000Y-126453800D02*
X165263000Y-125653800D01*
X162143000Y-126453800D02*
X162143000Y-125653800D01*
X165543000Y-127193800D02*
X165213000Y-126953800D01*
X165543000Y-126713800D01*
X165543000Y-127193800D01*
G36*
X165543000Y-127193800D02*
G01*
X165213000Y-126953800D01*
X165543000Y-126713800D01*
X165543000Y-127193800D01*
G37*
%TO.C,J3*%
X168447200Y-139177200D02*
X169857200Y-139177200D01*
X168447200Y-130017200D02*
X169857200Y-130017200D01*
X165927200Y-130837200D02*
X165777200Y-130837200D01*
X165777200Y-130837200D02*
X165777200Y-131637200D01*
%TO.C,C7*%
X142601733Y-129133500D02*
X142894267Y-129133500D01*
X142601733Y-130153500D02*
X142894267Y-130153500D01*
%TO.C,C8*%
X142601733Y-126847500D02*
X142894267Y-126847500D01*
X142601733Y-127867500D02*
X142894267Y-127867500D01*
%TO.C,U5*%
X100690000Y-135300000D02*
X100690000Y-137250000D01*
X100690000Y-139200000D02*
X100690000Y-137250000D01*
X105810000Y-135300000D02*
X105810000Y-137250000D01*
X105810000Y-139200000D02*
X105810000Y-137250000D01*
X100785000Y-134550000D02*
X100455000Y-134790000D01*
X100455000Y-134310000D01*
X100785000Y-134550000D01*
G36*
X100785000Y-134550000D02*
G01*
X100455000Y-134790000D01*
X100455000Y-134310000D01*
X100785000Y-134550000D01*
G37*
%TO.C,C4*%
X119487733Y-59688000D02*
X119780267Y-59688000D01*
X119487733Y-60708000D02*
X119780267Y-60708000D01*
%TD*%
M02*
