%TF.GenerationSoftware,KiCad,Pcbnew,8.0.2*%
%TF.CreationDate,2024-06-07T17:43:05+02:00*%
%TF.ProjectId,interruptus,696e7465-7272-4757-9074-75732e6b6963,rev?*%
%TF.SameCoordinates,Original*%
%TF.FileFunction,Soldermask,Top*%
%TF.FilePolarity,Negative*%
%FSLAX46Y46*%
G04 Gerber Fmt 4.6, Leading zero omitted, Abs format (unit mm)*
G04 Created by KiCad (PCBNEW 8.0.2) date 2024-06-07 17:43:05*
%MOMM*%
%LPD*%
G01*
G04 APERTURE LIST*
G04 Aperture macros list*
%AMRoundRect*
0 Rectangle with rounded corners*
0 $1 Rounding radius*
0 $2 $3 $4 $5 $6 $7 $8 $9 X,Y pos of 4 corners*
0 Add a 4 corners polygon primitive as box body*
4,1,4,$2,$3,$4,$5,$6,$7,$8,$9,$2,$3,0*
0 Add four circle primitives for the rounded corners*
1,1,$1+$1,$2,$3*
1,1,$1+$1,$4,$5*
1,1,$1+$1,$6,$7*
1,1,$1+$1,$8,$9*
0 Add four rect primitives between the rounded corners*
20,1,$1+$1,$2,$3,$4,$5,0*
20,1,$1+$1,$4,$5,$6,$7,0*
20,1,$1+$1,$6,$7,$8,$9,0*
20,1,$1+$1,$8,$9,$2,$3,0*%
G04 Aperture macros list end*
%ADD10C,0.650000*%
%ADD11RoundRect,0.147500X-0.147500X-0.172500X0.147500X-0.172500X0.147500X0.172500X-0.147500X0.172500X0*%
%ADD12RoundRect,0.100000X0.217500X0.100000X-0.217500X0.100000X-0.217500X-0.100000X0.217500X-0.100000X0*%
%ADD13R,1.422400X1.422400*%
%ADD14C,1.422400*%
%ADD15C,2.850000*%
%ADD16RoundRect,0.249999X0.525001X-0.525001X0.525001X0.525001X-0.525001X0.525001X-0.525001X-0.525001X0*%
%ADD17C,1.550000*%
%ADD18R,1.700000X1.700000*%
%ADD19O,1.700000X1.700000*%
G04 APERTURE END LIST*
D10*
%TO.C,J3*%
X143145000Y-120110000D03*
X143145000Y-125890000D03*
%TD*%
D11*
%TO.C,D4*%
X137727500Y-69110000D03*
X138697500Y-69110000D03*
%TD*%
D12*
%TO.C,R14*%
X142407500Y-73500000D03*
X141592500Y-73500000D03*
%TD*%
D13*
%TO.C,U1*%
X112740000Y-78460000D03*
D14*
X112740000Y-81000000D03*
X110200000Y-78460000D03*
X110200000Y-81000000D03*
X107660000Y-78460000D03*
X107660000Y-81000000D03*
X105120000Y-78460000D03*
X105120000Y-81000000D03*
X102580000Y-78460000D03*
X102580000Y-81000000D03*
X100040000Y-78460000D03*
X97500000Y-81000000D03*
X100040000Y-81000000D03*
X97500000Y-83540000D03*
X100040000Y-83540000D03*
X97500000Y-86080000D03*
X100040000Y-86080000D03*
X97500000Y-88620000D03*
X100040000Y-88620000D03*
X97500000Y-91160000D03*
X100040000Y-91160000D03*
X97500000Y-93700000D03*
X100040000Y-93700000D03*
X97500000Y-96240000D03*
X100040000Y-96240000D03*
X97500000Y-98780000D03*
X100040000Y-98780000D03*
X97500000Y-101320000D03*
X100040000Y-101320000D03*
X97500000Y-103860000D03*
X100040000Y-103860000D03*
X97500000Y-106400000D03*
X100040000Y-108940000D03*
X100040000Y-106400000D03*
X102580000Y-108940000D03*
X102580000Y-106400000D03*
X105120000Y-108940000D03*
X105120000Y-106400000D03*
X107660000Y-108940000D03*
X107660000Y-106400000D03*
X110200000Y-108940000D03*
X110200000Y-106400000D03*
X112740000Y-108940000D03*
X112740000Y-106400000D03*
X115280000Y-108940000D03*
X115280000Y-106400000D03*
X117820000Y-108940000D03*
X117820000Y-106400000D03*
X120360000Y-108940000D03*
X120360000Y-106400000D03*
X122900000Y-108940000D03*
X122900000Y-106400000D03*
X125440000Y-108940000D03*
X127980000Y-106400000D03*
X125440000Y-106400000D03*
X127980000Y-103860000D03*
X125440000Y-103860000D03*
X127980000Y-101320000D03*
X125440000Y-101320000D03*
X127980000Y-98780000D03*
X125440000Y-98780000D03*
X127980000Y-96240000D03*
X125440000Y-96240000D03*
X127980000Y-93700000D03*
X125440000Y-93700000D03*
X127980000Y-91160000D03*
X125440000Y-91160000D03*
X127980000Y-88620000D03*
X125440000Y-88620000D03*
X127980000Y-86080000D03*
X125440000Y-86080000D03*
X127980000Y-83540000D03*
X125440000Y-83540000D03*
X127980000Y-81000000D03*
X125440000Y-78460000D03*
X125440000Y-81000000D03*
X122900000Y-78460000D03*
X122900000Y-81000000D03*
X120360000Y-78460000D03*
X120360000Y-81000000D03*
X117820000Y-78460000D03*
X117820000Y-81000000D03*
X115280000Y-78460000D03*
X115280000Y-81000000D03*
%TD*%
D15*
%TO.C,P1*%
X76960000Y-138200000D03*
X76960000Y-49300000D03*
D16*
X79500000Y-133120000D03*
D17*
X79500000Y-130580000D03*
X79500000Y-128040000D03*
X79500000Y-125500000D03*
X79500000Y-122960000D03*
X79500000Y-120420000D03*
X79500000Y-117880000D03*
X79500000Y-115340000D03*
X79500000Y-112800000D03*
X79500000Y-110260000D03*
X79500000Y-107720000D03*
X79500000Y-105180000D03*
X79500000Y-102640000D03*
X79500000Y-100100000D03*
X79500000Y-97560000D03*
X79500000Y-95020000D03*
X79500000Y-92480000D03*
X79500000Y-89940000D03*
X79500000Y-87400000D03*
X79500000Y-84860000D03*
X79500000Y-82320000D03*
X79500000Y-79780000D03*
X79500000Y-77240000D03*
X79500000Y-74700000D03*
X79500000Y-72160000D03*
X79500000Y-69620000D03*
X79500000Y-67080000D03*
X79500000Y-64540000D03*
X79500000Y-62000000D03*
X79500000Y-59460000D03*
X79500000Y-56920000D03*
X79500000Y-54380000D03*
X82040000Y-133120000D03*
X82040000Y-130580000D03*
X82040000Y-128040000D03*
X82040000Y-125500000D03*
X82040000Y-122960000D03*
X82040000Y-120420000D03*
X82040000Y-117880000D03*
X82040000Y-115340000D03*
X82040000Y-112800000D03*
X82040000Y-110260000D03*
X82040000Y-107720000D03*
X82040000Y-105180000D03*
X82040000Y-102640000D03*
X82040000Y-100100000D03*
X82040000Y-97560000D03*
X82040000Y-95020000D03*
X82040000Y-92480000D03*
X82040000Y-89940000D03*
X82040000Y-87400000D03*
X82040000Y-84860000D03*
X82040000Y-82320000D03*
X82040000Y-79780000D03*
X82040000Y-77240000D03*
X82040000Y-74700000D03*
X82040000Y-72160000D03*
X82040000Y-69620000D03*
X82040000Y-67080000D03*
X82040000Y-64540000D03*
X82040000Y-62000000D03*
X82040000Y-59460000D03*
X82040000Y-56920000D03*
X82040000Y-54380000D03*
X84580000Y-133120000D03*
X84580000Y-130580000D03*
X84580000Y-128040000D03*
X84580000Y-125500000D03*
X84580000Y-122960000D03*
X84580000Y-120420000D03*
X84580000Y-117880000D03*
X84580000Y-115340000D03*
X84580000Y-112800000D03*
X84580000Y-110260000D03*
X84580000Y-107720000D03*
X84580000Y-105180000D03*
X84580000Y-102640000D03*
X84580000Y-100100000D03*
X84580000Y-97560000D03*
X84580000Y-95020000D03*
X84580000Y-92480000D03*
X84580000Y-89940000D03*
X84580000Y-87400000D03*
X84580000Y-84860000D03*
X84580000Y-82320000D03*
X84580000Y-79780000D03*
X84580000Y-77240000D03*
X84580000Y-74700000D03*
X84580000Y-72160000D03*
X84580000Y-69620000D03*
X84580000Y-67080000D03*
X84580000Y-64540000D03*
X84580000Y-62000000D03*
X84580000Y-59460000D03*
X84580000Y-56920000D03*
X84580000Y-54380000D03*
%TD*%
D12*
%TO.C,R13*%
X142407500Y-69000000D03*
X141592500Y-69000000D03*
%TD*%
D11*
%TO.C,D3*%
X137727500Y-64000000D03*
X138697500Y-64000000D03*
%TD*%
D12*
%TO.C,R12*%
X142407500Y-64000000D03*
X141592500Y-64000000D03*
%TD*%
D18*
%TO.C,J2*%
X142775000Y-110875000D03*
D19*
X140235000Y-110875000D03*
X142775000Y-108335000D03*
X140235000Y-108335000D03*
X142775000Y-105795000D03*
X140235000Y-105795000D03*
X142775000Y-103255000D03*
X140235000Y-103255000D03*
X142775000Y-100715000D03*
X140235000Y-100715000D03*
X142775000Y-98175000D03*
X140235000Y-98175000D03*
X142775000Y-95635000D03*
X140235000Y-95635000D03*
X142775000Y-93095000D03*
X140235000Y-93095000D03*
%TD*%
D18*
%TO.C,J1*%
X111137500Y-60010000D03*
D19*
X111137500Y-62550000D03*
X111137500Y-65090000D03*
%TD*%
D11*
%TO.C,D5*%
X137727500Y-73500000D03*
X138697500Y-73500000D03*
%TD*%
M02*
