M48
; DRILL file {KiCad 8.0.2} date 2024-06-07T17:45:41+0200
; FORMAT={-:-/ absolute / inch / decimal}
; #@! TF.CreationDate,2024-06-07T17:45:41+02:00
; #@! TF.GenerationSoftware,Kicad,Pcbnew,8.0.2
; #@! TF.FileFunction,Plated,1,4,PTH
FMAT,2
INCH
; #@! TA.AperFunction,Plated,PTH,ViaDrill
T1C0.0118
; #@! TA.AperFunction,Plated,PTH,ComponentDrill
T2C0.0315
; #@! TA.AperFunction,Plated,PTH,ComponentDrill
T3C0.0394
%
G90
G05
T1
X3.1562Y-2.8857
X3.4067Y-4.4751
X3.5399Y-3.9085
X3.5487Y-4.3774
X3.5535Y-2.8991
X3.5711Y-4.4197
X3.5727Y-2.8675
X3.6072Y-3.8835
X3.6537Y-4.4047
X3.6676Y-3.2074
X3.6713Y-5.2559
X3.6715Y-4.6991
X3.7303Y-2.8839
X3.7914Y-3.3907
X3.7992Y-4.8031
X3.8681Y-3.1201
X3.9723Y-4.919
X4.0428Y-3.9671
X4.0657Y-3.3478
X4.1077Y-4.9512
X4.2302Y-4.0129
X4.2378Y-5.0406
X4.2796Y-3.6793
X4.3779Y-4.5451
X4.3947Y-3.5447
X4.4202Y-4.5451
X4.4488Y-5.2854
X4.4538Y-4.9467
X4.4754Y-4.6276
X4.4983Y-4.5474
X4.4994Y-3.6138
X4.5278Y-5.4494
X4.544Y-3.8881
X4.546Y-2.4825
X4.5517Y-3.6289
X4.5719Y-3.7849
X4.5889Y-5.2316
X4.6107Y-3.7148
X4.6149Y-3.251
X4.626Y-5.1969
X4.6386Y-3.4784
X4.654Y-2.3966
X4.6862Y-5.37
X4.6943Y-5.1795
X4.6983Y-4.4995
X4.7201Y-2.5015
X4.7229Y-4.089
X4.729Y-5.1841
X4.7539Y-5.5315
X4.7694Y-5.1891
X4.7817Y-5.3794
X4.7994Y-4.478
X4.8008Y-4.6166
X4.8031Y-3.5158
X4.8425Y-5.1181
X4.8575Y-4.4631
X4.906Y-3.8228
X4.9213Y-5.1969
X4.9213Y-5.2264
X4.9291Y-5.0181
X4.9705Y-2.3327
X4.9765Y-4.3939
X5.0231Y-2.4197
X5.0394Y-2.4606
X5.0546Y-4.3028
X5.0591Y-2.3228
X5.0637Y-5.1292
X5.0749Y-5.0802
X5.0975Y-3.6112
X5.1673Y-4.7343
X5.1805Y-2.3975
X5.374Y-2.5197
X5.374Y-2.7264
X5.443Y-4.239
X5.4724Y-2.9528
X5.4724Y-3.061
X5.4886Y-5.151
X5.5123Y-4.7073
X5.5131Y-4.6242
X5.5219Y-3.2977
X5.5324Y-4.9636
X5.5974Y-3.2947
X5.6589Y-3.6079
X5.6737Y-3.5387
X5.6959Y-5.0351
X5.7201Y-5.1517
X5.8478Y-4.687
T2
X3.8386Y-3.189
X3.8386Y-3.289
X3.8386Y-3.389
X3.8386Y-3.489
X3.8386Y-3.589
X3.8386Y-3.689
X3.8386Y-3.789
X3.8386Y-3.889
X3.8386Y-3.989
X3.8386Y-4.089
X3.8386Y-4.189
X3.9386Y-3.089
X3.9386Y-3.189
X3.9386Y-3.289
X3.9386Y-3.389
X3.9386Y-3.489
X3.9386Y-3.589
X3.9386Y-3.689
X3.9386Y-3.789
X3.9386Y-3.889
X3.9386Y-3.989
X3.9386Y-4.089
X3.9386Y-4.189
X3.9386Y-4.289
X4.0386Y-3.089
X4.0386Y-3.189
X4.0386Y-4.189
X4.0386Y-4.289
X4.1386Y-3.089
X4.1386Y-3.189
X4.1386Y-4.189
X4.1386Y-4.289
X4.2386Y-3.089
X4.2386Y-3.189
X4.2386Y-4.189
X4.2386Y-4.289
X4.3386Y-3.089
X4.3386Y-3.189
X4.3386Y-4.189
X4.3386Y-4.289
X4.4386Y-3.089
X4.4386Y-3.189
X4.4386Y-4.189
X4.4386Y-4.289
X4.5386Y-3.089
X4.5386Y-3.189
X4.5386Y-4.189
X4.5386Y-4.289
X4.6386Y-3.089
X4.6386Y-3.189
X4.6386Y-4.189
X4.6386Y-4.289
X4.7386Y-3.089
X4.7386Y-3.189
X4.7386Y-4.189
X4.7386Y-4.289
X4.8386Y-3.089
X4.8386Y-3.189
X4.8386Y-4.189
X4.8386Y-4.289
X4.9386Y-3.089
X4.9386Y-3.189
X4.9386Y-3.289
X4.9386Y-3.389
X4.9386Y-3.489
X4.9386Y-3.589
X4.9386Y-3.689
X4.9386Y-3.789
X4.9386Y-3.889
X4.9386Y-3.989
X4.9386Y-4.089
X4.9386Y-4.189
X4.9386Y-4.289
X5.0386Y-3.189
X5.0386Y-3.289
X5.0386Y-3.389
X5.0386Y-3.489
X5.0386Y-3.589
X5.0386Y-3.689
X5.0386Y-3.789
X5.0386Y-3.889
X5.0386Y-3.989
X5.0386Y-4.089
X5.0386Y-4.189
T3
X3.1299Y-2.1409
X3.1299Y-2.2409
X3.1299Y-2.3409
X3.1299Y-2.4409
X3.1299Y-2.5409
X3.1299Y-2.6409
X3.1299Y-2.7409
X3.1299Y-2.8409
X3.1299Y-2.9409
X3.1299Y-3.0409
X3.1299Y-3.1409
X3.1299Y-3.2409
X3.1299Y-3.3409
X3.1299Y-3.4409
X3.1299Y-3.5409
X3.1299Y-3.6409
X3.1299Y-3.7409
X3.1299Y-3.8409
X3.1299Y-3.9409
X3.1299Y-4.0409
X3.1299Y-4.1409
X3.1299Y-4.2409
X3.1299Y-4.3409
X3.1299Y-4.4409
X3.1299Y-4.5409
X3.1299Y-4.6409
X3.1299Y-4.7409
X3.1299Y-4.8409
X3.1299Y-4.9409
X3.1299Y-5.0409
X3.1299Y-5.1409
X3.1299Y-5.2409
X3.2299Y-2.1409
X3.2299Y-2.2409
X3.2299Y-2.3409
X3.2299Y-2.4409
X3.2299Y-2.5409
X3.2299Y-2.6409
X3.2299Y-2.7409
X3.2299Y-2.8409
X3.2299Y-2.9409
X3.2299Y-3.0409
X3.2299Y-3.1409
X3.2299Y-3.2409
X3.2299Y-3.3409
X3.2299Y-3.4409
X3.2299Y-3.5409
X3.2299Y-3.6409
X3.2299Y-3.7409
X3.2299Y-3.8409
X3.2299Y-3.9409
X3.2299Y-4.0409
X3.2299Y-4.1409
X3.2299Y-4.2409
X3.2299Y-4.3409
X3.2299Y-4.4409
X3.2299Y-4.5409
X3.2299Y-4.6409
X3.2299Y-4.7409
X3.2299Y-4.8409
X3.2299Y-4.9409
X3.2299Y-5.0409
X3.2299Y-5.1409
X3.2299Y-5.2409
X3.3299Y-2.1409
X3.3299Y-2.2409
X3.3299Y-2.3409
X3.3299Y-2.4409
X3.3299Y-2.5409
X3.3299Y-2.6409
X3.3299Y-2.7409
X3.3299Y-2.8409
X3.3299Y-2.9409
X3.3299Y-3.0409
X3.3299Y-3.1409
X3.3299Y-3.2409
X3.3299Y-3.3409
X3.3299Y-3.4409
X3.3299Y-3.5409
X3.3299Y-3.6409
X3.3299Y-3.7409
X3.3299Y-3.8409
X3.3299Y-3.9409
X3.3299Y-4.0409
X3.3299Y-4.1409
X3.3299Y-4.2409
X3.3299Y-4.3409
X3.3299Y-4.4409
X3.3299Y-4.5409
X3.3299Y-4.6409
X3.3299Y-4.7409
X3.3299Y-4.8409
X3.3299Y-4.9409
X3.3299Y-5.0409
X3.3299Y-5.1409
X3.3299Y-5.2409
X4.3755Y-2.3626
X4.3755Y-2.4626
X4.3755Y-2.5626
X5.5211Y-3.6652
X5.5211Y-3.7652
X5.5211Y-3.8652
X5.5211Y-3.9652
X5.5211Y-4.0652
X5.5211Y-4.1652
X5.5211Y-4.2652
X5.5211Y-4.3652
X5.6211Y-3.6652
X5.6211Y-3.7652
X5.6211Y-3.8652
X5.6211Y-3.9652
X5.6211Y-4.0652
X5.6211Y-4.1652
X5.6211Y-4.2652
X5.6211Y-4.3652
M30
