M48
; DRILL file {KiCad 8.0.2} date 2024-06-15T19:42:11+0200
; FORMAT={-:-/ absolute / inch / decimal}
; #@! TF.CreationDate,2024-06-15T19:42:11+02:00
; #@! TF.GenerationSoftware,Kicad,Pcbnew,8.0.2
; #@! TF.FileFunction,Plated,1,4,PTH
FMAT,2
INCH
; #@! TA.AperFunction,Plated,PTH,ViaDrill
T1C0.0118
; #@! TA.AperFunction,Plated,PTH,ComponentDrill
T2C0.0315
; #@! TA.AperFunction,Plated,PTH,ComponentDrill
T3C0.0394
%
G90
G05
T1
X3.1164Y-3.0909
X3.1556Y-3.9909
X3.3906Y-3.6783
X3.423Y-5.439
X3.424Y-2.5257
X3.4316Y-4.3623
X3.4316Y-4.5618
X3.4316Y-4.7183
X3.4505Y-4.2536
X3.4729Y-3.7111
X3.4766Y-3.7569
X3.5139Y-5.4137
X3.5475Y-2.8287
X3.557Y-4.4292
X3.631Y-4.4543
X3.666Y-2.95
X3.6693Y-3.2916
X3.712Y-4.825
X3.7512Y-3.919
X3.7817Y-4.6639
X3.8664Y-3.0704
X3.89Y-5.502
X3.938Y-5.501
X3.9881Y-3.0176
X3.9931Y-3.1322
X4.012Y-4.451
X4.0199Y-3.0331
X4.0263Y-3.315
X4.0383Y-4.9526
X4.0711Y-3.7846
X4.0826Y-4.2444
X4.1213Y-3.9805
X4.1239Y-5.1558
X4.1277Y-5.613
X4.2436Y-3.9791
X4.2438Y-2.4825
X4.2607Y-5.2623
X4.3432Y-4.357
X4.3609Y-4.3954
X4.3799Y-4.6808
X4.4644Y-3.8933
X4.5046Y-3.7677
X4.549Y-3.7202
X4.5749Y-4.3554
X4.5919Y-2.3664
X4.6664Y-4.0893
X4.6699Y-4.9995
X4.6708Y-2.3298
X4.6826Y-4.6052
X4.6918Y-5.0561
X4.6976Y-3.8687
X4.7065Y-4.7993
X4.7139Y-3.775
X4.7273Y-4.07
X4.7336Y-2.4883
X4.7339Y-4.5081
X4.7724Y-3.5267
X4.8006Y-3.9963
X4.8134Y-5.195
X4.8207Y-3.712
X4.8265Y-4.8004
X4.8331Y-3.9927
X4.8331Y-4.687
X4.8377Y-4.6243
X4.9011Y-4.4539
X4.9634Y-5.1234
X4.9645Y-3.2356
X4.965Y-2.316
X4.9758Y-4.6558
X4.9818Y-4.5397
X4.9822Y-5.046
X4.9846Y-4.9385
X5.017Y-5.1328
X5.026Y-2.447
X5.0292Y-4.4127
X5.0314Y-2.3664
X5.0427Y-5.3948
X5.056Y-4.4543
X5.0673Y-4.5967
X5.0712Y-4.7706
X5.086Y-2.417
X5.089Y-5.4174
X5.0995Y-3.3396
X5.1245Y-4.9737
X5.1275Y-3.357
X5.1395Y-5.195
X5.1418Y-2.3298
X5.143Y-5.27
X5.153Y-3.6967
X5.1531Y-5.3212
X5.157Y-5.0314
X5.1665Y-5.3697
X5.172Y-4.9457
X5.1838Y-5.0563
X5.1841Y-3.2218
X5.1981Y-3.3421
X5.2006Y-5.1785
X5.2199Y-3.3117
X5.2224Y-2.5294
X5.223Y-4.9977
X5.234Y-5.053
X5.257Y-4.0925
X5.2586Y-5.1768
X5.261Y-5.4916
X5.288Y-4.475
X5.299Y-5.1762
X5.3018Y-3.5405
X5.333Y-5.516
X5.3405Y-5.2183
X5.3681Y-5.3063
X5.388Y-5.055
X5.4019Y-3.921
X5.4169Y-5.1291
X5.482Y-5.205
X5.5135Y-5.1206
X5.5201Y-4.092
X5.5235Y-3.2976
X5.5414Y-4.9417
X5.594Y-3.021
X5.6507Y-5.0591
X5.6784Y-3.4107
X5.6963Y-5.1158
X5.7054Y-4.1539
X5.7226Y-5.1705
X5.817Y-5.151
X5.8668Y-4.9878
X5.8691Y-3.7223
X5.8996Y-4.5084
X5.976Y-4.879
X5.9842Y-3.7765
X6.0647Y-3.5632
X6.1002Y-3.6967
X6.1692Y-4.0771
X6.3151Y-3.2775
X6.3323Y-3.9777
X6.3498Y-3.2526
X6.4095Y-5.5289
X6.411Y-5.078
X6.4218Y-4.2359
X6.439Y-2.3598
X6.445Y-5.047
X6.482Y-4.85
X6.484Y-1.994
X6.496Y-5.425
X6.516Y-5.138
X6.544Y-2.217
X6.5552Y-5.0251
X6.5643Y-5.613
X6.5966Y-2.1624
X6.604Y-5.291
X6.606Y-5.34
X6.62Y-2.1
X6.6467Y-2.3598
X6.6803Y-5.613
X6.682Y-1.79
X6.6895Y-5.016
X6.78Y-2.095
X6.781Y-1.895
X6.781Y-2.265
T2
X3.8386Y-3.189
X3.8386Y-3.289
X3.8386Y-3.389
X3.8386Y-3.489
X3.8386Y-3.589
X3.8386Y-3.689
X3.8386Y-3.789
X3.8386Y-3.889
X3.8386Y-3.989
X3.8386Y-4.089
X3.8386Y-4.189
X3.9386Y-3.089
X3.9386Y-3.189
X3.9386Y-3.289
X3.9386Y-3.389
X3.9386Y-3.489
X3.9386Y-3.589
X3.9386Y-3.689
X3.9386Y-3.789
X3.9386Y-3.889
X3.9386Y-3.989
X3.9386Y-4.089
X3.9386Y-4.189
X3.9386Y-4.289
X4.0386Y-3.089
X4.0386Y-3.189
X4.0386Y-4.189
X4.0386Y-4.289
X4.1386Y-3.089
X4.1386Y-3.189
X4.1386Y-4.189
X4.1386Y-4.289
X4.2386Y-3.089
X4.2386Y-3.189
X4.2386Y-4.189
X4.2386Y-4.289
X4.3386Y-3.089
X4.3386Y-3.189
X4.3386Y-4.189
X4.3386Y-4.289
X4.4386Y-3.089
X4.4386Y-3.189
X4.4386Y-4.189
X4.4386Y-4.289
X4.5386Y-3.089
X4.5386Y-3.189
X4.5386Y-4.189
X4.5386Y-4.289
X4.6386Y-3.089
X4.6386Y-3.189
X4.6386Y-4.189
X4.6386Y-4.289
X4.7386Y-3.089
X4.7386Y-3.189
X4.7386Y-4.189
X4.7386Y-4.289
X4.8386Y-3.089
X4.8386Y-3.189
X4.8386Y-4.189
X4.8386Y-4.289
X4.9386Y-3.089
X4.9386Y-3.189
X4.9386Y-3.289
X4.9386Y-3.389
X4.9386Y-3.489
X4.9386Y-3.589
X4.9386Y-3.689
X4.9386Y-3.789
X4.9386Y-3.889
X4.9386Y-3.989
X4.9386Y-4.089
X4.9386Y-4.189
X4.9386Y-4.289
X5.0386Y-3.189
X5.0386Y-3.289
X5.0386Y-3.389
X5.0386Y-3.489
X5.0386Y-3.589
X5.0386Y-3.689
X5.0386Y-3.789
X5.0386Y-3.889
X5.0386Y-3.989
X5.0386Y-4.089
X5.0386Y-4.189
T3
X3.1299Y-2.1409
X3.1299Y-2.2409
X3.1299Y-2.3409
X3.1299Y-2.4409
X3.1299Y-2.5409
X3.1299Y-2.6409
X3.1299Y-2.7409
X3.1299Y-2.8409
X3.1299Y-2.9409
X3.1299Y-3.0409
X3.1299Y-3.1409
X3.1299Y-3.2409
X3.1299Y-3.3409
X3.1299Y-3.4409
X3.1299Y-3.5409
X3.1299Y-3.6409
X3.1299Y-3.7409
X3.1299Y-3.8409
X3.1299Y-3.9409
X3.1299Y-4.0409
X3.1299Y-4.1409
X3.1299Y-4.2409
X3.1299Y-4.3409
X3.1299Y-4.4409
X3.1299Y-4.5409
X3.1299Y-4.6409
X3.1299Y-4.7409
X3.1299Y-4.8409
X3.1299Y-4.9409
X3.1299Y-5.0409
X3.1299Y-5.1409
X3.1299Y-5.2409
X3.2299Y-2.1409
X3.2299Y-2.2409
X3.2299Y-2.3409
X3.2299Y-2.4409
X3.2299Y-2.5409
X3.2299Y-2.6409
X3.2299Y-2.7409
X3.2299Y-2.8409
X3.2299Y-2.9409
X3.2299Y-3.0409
X3.2299Y-3.1409
X3.2299Y-3.2409
X3.2299Y-3.3409
X3.2299Y-3.4409
X3.2299Y-3.5409
X3.2299Y-3.6409
X3.2299Y-3.7409
X3.2299Y-3.8409
X3.2299Y-3.9409
X3.2299Y-4.0409
X3.2299Y-4.1409
X3.2299Y-4.2409
X3.2299Y-4.3409
X3.2299Y-4.4409
X3.2299Y-4.5409
X3.2299Y-4.6409
X3.2299Y-4.7409
X3.2299Y-4.8409
X3.2299Y-4.9409
X3.2299Y-5.0409
X3.2299Y-5.1409
X3.2299Y-5.2409
X3.3299Y-2.1409
X3.3299Y-2.2409
X3.3299Y-2.3409
X3.3299Y-2.4409
X3.3299Y-2.5409
X3.3299Y-2.6409
X3.3299Y-2.7409
X3.3299Y-2.8409
X3.3299Y-2.9409
X3.3299Y-3.0409
X3.3299Y-3.1409
X3.3299Y-3.2409
X3.3299Y-3.3409
X3.3299Y-3.4409
X3.3299Y-3.5409
X3.3299Y-3.6409
X3.3299Y-3.7409
X3.3299Y-3.8409
X3.3299Y-3.9409
X3.3299Y-4.0409
X3.3299Y-4.1409
X3.3299Y-4.2409
X3.3299Y-4.3409
X3.3299Y-4.4409
X3.3299Y-4.5409
X3.3299Y-4.6409
X3.3299Y-4.7409
X3.3299Y-4.8409
X3.3299Y-4.9409
X3.3299Y-5.0409
X3.3299Y-5.1409
X3.3299Y-5.2409
X4.3755Y-2.3626
X4.3755Y-2.4626
X4.3755Y-2.5626
X6.52Y-2.75
X6.52Y-2.85
X6.52Y-2.95
X6.52Y-3.05
X6.52Y-3.15
X6.52Y-3.25
X6.52Y-3.35
X6.52Y-3.45
X6.52Y-3.55
X6.52Y-3.65
X6.52Y-3.75
X6.52Y-3.85
X6.52Y-3.95
X6.52Y-4.05
X6.52Y-4.15
X6.52Y-4.25
X6.52Y-4.35
X6.52Y-4.45
X6.52Y-4.55
X6.52Y-4.65
X6.62Y-2.75
X6.62Y-2.85
X6.62Y-2.95
X6.62Y-3.05
X6.62Y-3.15
X6.62Y-3.25
X6.62Y-3.35
X6.62Y-3.45
X6.62Y-3.55
X6.62Y-3.65
X6.62Y-3.75
X6.62Y-3.85
X6.62Y-3.95
X6.62Y-4.05
X6.62Y-4.15
X6.62Y-4.25
X6.62Y-4.35
X6.62Y-4.45
X6.62Y-4.55
X6.62Y-4.65
M30
