%TF.GenerationSoftware,KiCad,Pcbnew,8.0.2*%
%TF.CreationDate,2024-06-07T17:43:04+02:00*%
%TF.ProjectId,interruptus,696e7465-7272-4757-9074-75732e6b6963,rev?*%
%TF.SameCoordinates,Original*%
%TF.FileFunction,Copper,L4,Bot*%
%TF.FilePolarity,Positive*%
%FSLAX46Y46*%
G04 Gerber Fmt 4.6, Leading zero omitted, Abs format (unit mm)*
G04 Created by KiCad (PCBNEW 8.0.2) date 2024-06-07 17:43:04*
%MOMM*%
%LPD*%
G01*
G04 APERTURE LIST*
G04 Aperture macros list*
%AMRoundRect*
0 Rectangle with rounded corners*
0 $1 Rounding radius*
0 $2 $3 $4 $5 $6 $7 $8 $9 X,Y pos of 4 corners*
0 Add a 4 corners polygon primitive as box body*
4,1,4,$2,$3,$4,$5,$6,$7,$8,$9,$2,$3,0*
0 Add four circle primitives for the rounded corners*
1,1,$1+$1,$2,$3*
1,1,$1+$1,$4,$5*
1,1,$1+$1,$6,$7*
1,1,$1+$1,$8,$9*
0 Add four rect primitives between the rounded corners*
20,1,$1+$1,$2,$3,$4,$5,0*
20,1,$1+$1,$4,$5,$6,$7,0*
20,1,$1+$1,$6,$7,$8,$9,0*
20,1,$1+$1,$8,$9,$2,$3,0*%
G04 Aperture macros list end*
%TA.AperFunction,SMDPad,CuDef*%
%ADD10RoundRect,0.150000X-0.425000X0.150000X-0.425000X-0.150000X0.425000X-0.150000X0.425000X0.150000X0*%
%TD*%
%TA.AperFunction,SMDPad,CuDef*%
%ADD11RoundRect,0.075000X-0.500000X0.075000X-0.500000X-0.075000X0.500000X-0.075000X0.500000X0.075000X0*%
%TD*%
%TA.AperFunction,SMDPad,CuDef*%
%ADD12RoundRect,0.250000X-0.750000X0.840000X-0.750000X-0.840000X0.750000X-0.840000X0.750000X0.840000X0*%
%TD*%
%TA.AperFunction,ComponentPad*%
%ADD13R,1.422400X1.422400*%
%TD*%
%TA.AperFunction,ComponentPad*%
%ADD14C,1.422400*%
%TD*%
%TA.AperFunction,ComponentPad*%
%ADD15RoundRect,0.249999X0.525001X-0.525001X0.525001X0.525001X-0.525001X0.525001X-0.525001X-0.525001X0*%
%TD*%
%TA.AperFunction,ComponentPad*%
%ADD16C,1.550000*%
%TD*%
%TA.AperFunction,ComponentPad*%
%ADD17R,1.700000X1.700000*%
%TD*%
%TA.AperFunction,ComponentPad*%
%ADD18O,1.700000X1.700000*%
%TD*%
%TA.AperFunction,SMDPad,CuDef*%
%ADD19RoundRect,0.150000X-0.150000X0.512500X-0.150000X-0.512500X0.150000X-0.512500X0.150000X0.512500X0*%
%TD*%
%TA.AperFunction,SMDPad,CuDef*%
%ADD20R,1.200000X1.200000*%
%TD*%
%TA.AperFunction,SMDPad,CuDef*%
%ADD21RoundRect,0.100000X-0.217500X-0.100000X0.217500X-0.100000X0.217500X0.100000X-0.217500X0.100000X0*%
%TD*%
%TA.AperFunction,SMDPad,CuDef*%
%ADD22RoundRect,0.100000X-0.100000X0.217500X-0.100000X-0.217500X0.100000X-0.217500X0.100000X0.217500X0*%
%TD*%
%TA.AperFunction,SMDPad,CuDef*%
%ADD23RoundRect,0.150000X0.150000X-0.587500X0.150000X0.587500X-0.150000X0.587500X-0.150000X-0.587500X0*%
%TD*%
%TA.AperFunction,SMDPad,CuDef*%
%ADD24RoundRect,0.150000X0.512500X0.150000X-0.512500X0.150000X-0.512500X-0.150000X0.512500X-0.150000X0*%
%TD*%
%TA.AperFunction,SMDPad,CuDef*%
%ADD25RoundRect,0.237500X0.237500X-0.300000X0.237500X0.300000X-0.237500X0.300000X-0.237500X-0.300000X0*%
%TD*%
%TA.AperFunction,SMDPad,CuDef*%
%ADD26R,2.500000X3.000000*%
%TD*%
%TA.AperFunction,SMDPad,CuDef*%
%ADD27RoundRect,0.075000X0.662500X0.075000X-0.662500X0.075000X-0.662500X-0.075000X0.662500X-0.075000X0*%
%TD*%
%TA.AperFunction,SMDPad,CuDef*%
%ADD28RoundRect,0.075000X0.075000X0.662500X-0.075000X0.662500X-0.075000X-0.662500X0.075000X-0.662500X0*%
%TD*%
%TA.AperFunction,SMDPad,CuDef*%
%ADD29RoundRect,0.237500X0.300000X0.237500X-0.300000X0.237500X-0.300000X-0.237500X0.300000X-0.237500X0*%
%TD*%
%TA.AperFunction,SMDPad,CuDef*%
%ADD30RoundRect,0.100000X0.100000X-0.217500X0.100000X0.217500X-0.100000X0.217500X-0.100000X-0.217500X0*%
%TD*%
%TA.AperFunction,ViaPad*%
%ADD31C,0.600000*%
%TD*%
%TA.AperFunction,Conductor*%
%ADD32C,0.300000*%
%TD*%
%TA.AperFunction,Conductor*%
%ADD33C,0.200000*%
%TD*%
G04 APERTURE END LIST*
D10*
%TO.P,J3,A1/B12,GND*%
%TO.N,GND*%
X142070000Y-119800000D03*
%TO.P,J3,A4/B9,VBUS*%
%TO.N,/JTAG-Interface/VBUS*%
X142070000Y-120600000D03*
D11*
%TO.P,J3,A5,CC1*%
%TO.N,Net-(J3-CC1)*%
X142070000Y-121750000D03*
%TO.P,J3,A6,DP1*%
%TO.N,/JTAG-Interface/USB_DATA+*%
X142070000Y-122750000D03*
%TO.P,J3,A7,DN1*%
%TO.N,/JTAG-Interface/USB_DATA-*%
X142070000Y-123250000D03*
%TO.P,J3,A8,SBU1*%
%TO.N,unconnected-(J3-SBU1-PadA8)*%
X142070000Y-124250000D03*
D10*
%TO.P,J3,A12/B1,GND*%
%TO.N,GND*%
X142070000Y-126200000D03*
%TO.P,J3,B4/A9*%
%TO.N,N/C*%
X142070000Y-125400000D03*
D11*
%TO.P,J3,B5,CC2*%
%TO.N,Net-(J3-CC2)*%
X142070000Y-124750000D03*
%TO.P,J3,B6,DP2*%
%TO.N,unconnected-(J3-DP2-PadB6)*%
X142070000Y-123750000D03*
%TO.P,J3,B7,DN2*%
%TO.N,unconnected-(J3-DN2-PadB7)*%
X142070000Y-122250000D03*
%TO.P,J3,B8,SBU2*%
%TO.N,unconnected-(J3-SBU2-PadB8)*%
X142070000Y-121250000D03*
D12*
%TO.P,J3,S1,SHLD*%
%TO.N,GND*%
X142645000Y-117890000D03*
X146575000Y-117890000D03*
X142645000Y-128110000D03*
X146575000Y-128110000D03*
%TD*%
D13*
%TO.P,U1,1,INPUT/GCLR*%
%TO.N,/I{slash}GCLR*%
X112740000Y-78460000D03*
D14*
%TO.P,U1,2,INPUT/OE2/GCLK2*%
%TO.N,/I{slash}OE2{slash}GCLK2*%
X112740000Y-81000000D03*
%TO.P,U1,3,VCCINT_1*%
%TO.N,+5V*%
X110200000Y-78460000D03*
%TO.P,U1,4,I/O_1*%
%TO.N,B_D5*%
X110200000Y-81000000D03*
%TO.P,U1,5,I/O_2*%
%TO.N,B_D6*%
X107660000Y-78460000D03*
%TO.P,U1,6,I/O_3*%
%TO.N,B_D7*%
X107660000Y-81000000D03*
%TO.P,U1,7,GND_1*%
%TO.N,GND*%
X105120000Y-78460000D03*
%TO.P,U1,8,I/O_4*%
%TO.N,B_D8*%
X105120000Y-81000000D03*
%TO.P,U1,9,I/O_5*%
%TO.N,B_D9*%
X102580000Y-78460000D03*
%TO.P,U1,10,I/O_6*%
%TO.N,B_D10*%
X102580000Y-81000000D03*
%TO.P,U1,11,I/O_7*%
%TO.N,B_D11*%
X100040000Y-78460000D03*
%TO.P,U1,12,I/O/PD1*%
%TO.N,/I{slash}O{slash}PD1*%
X97500000Y-81000000D03*
%TO.P,U1,13,VCCIO_1*%
%TO.N,+5V*%
X100040000Y-81000000D03*
%TO.P,U1,14,I/O/TDI*%
%TO.N,/TDI*%
X97500000Y-83540000D03*
%TO.P,U1,15,I/O_8*%
%TO.N,/B_{slash}IRQ0*%
X100040000Y-83540000D03*
%TO.P,U1,16,I/O_9*%
%TO.N,/B_{slash}IRQ1*%
X97500000Y-86080000D03*
%TO.P,U1,17,I/O_10*%
%TO.N,/B_{slash}IRQ2*%
X100040000Y-86080000D03*
%TO.P,U1,18,I/O_11*%
%TO.N,/B_{slash}IRQ3*%
X97500000Y-88620000D03*
%TO.P,U1,19,GND_2*%
%TO.N,GND*%
X100040000Y-88620000D03*
%TO.P,U1,20,I/O_12*%
%TO.N,/B_{slash}IRQ4*%
X97500000Y-91160000D03*
%TO.P,U1,21,I/O_13*%
%TO.N,/B_{slash}IRQ5*%
X100040000Y-91160000D03*
%TO.P,U1,22,I/O_14*%
%TO.N,/B_{slash}IRQ6*%
X97500000Y-93700000D03*
%TO.P,U1,23,I/O/TMS*%
%TO.N,/TMS*%
X100040000Y-93700000D03*
%TO.P,U1,24,I/O_15*%
%TO.N,/B_{slash}IRQ7*%
X97500000Y-96240000D03*
%TO.P,U1,25,I/O_16*%
%TO.N,/B_{slash}M1*%
X100040000Y-96240000D03*
%TO.P,U1,26,VCCIO_2*%
%TO.N,+5V*%
X97500000Y-98780000D03*
%TO.P,U1,27,I/O_17*%
%TO.N,/B_{slash}INT*%
X100040000Y-98780000D03*
%TO.P,U1,28,I/O_18*%
%TO.N,/B_{slash}WR*%
X97500000Y-101320000D03*
%TO.P,U1,29,I/O_19*%
%TO.N,/B_{slash}RD*%
X100040000Y-101320000D03*
%TO.P,U1,30,I/O_20*%
%TO.N,/B_{slash}INTA*%
X97500000Y-103860000D03*
%TO.P,U1,31,I/O_21*%
%TO.N,/B_{slash}DREQ*%
X100040000Y-103860000D03*
%TO.P,U1,32,GND_3*%
%TO.N,GND*%
X97500000Y-106400000D03*
%TO.P,U1,33,I/O_22*%
%TO.N,/B_{slash}RESOUT*%
X100040000Y-108940000D03*
%TO.P,U1,34,I/O_23*%
%TO.N,/B_{slash}IORQ*%
X100040000Y-106400000D03*
%TO.P,U1,35,I/O_24*%
%TO.N,/B_{slash}RESET*%
X102580000Y-108940000D03*
%TO.P,U1,36,I/O_25*%
%TO.N,B_D13*%
X102580000Y-106400000D03*
%TO.P,U1,37,I/O_26*%
%TO.N,B_D14*%
X105120000Y-108940000D03*
%TO.P,U1,38,VCCIO_3*%
%TO.N,+5V*%
X105120000Y-106400000D03*
%TO.P,U1,39,I/O_27*%
%TO.N,B_D15*%
X107660000Y-108940000D03*
%TO.P,U1,40,I/O_28*%
%TO.N,B_ {slash} SXTAK*%
X107660000Y-106400000D03*
%TO.P,U1,41,I/O_29*%
%TO.N,B_ {slash} SXTRQ*%
X110200000Y-108940000D03*
%TO.P,U1,42,GND_4*%
%TO.N,GND*%
X110200000Y-106400000D03*
%TO.P,U1,43,VCCINT_2*%
%TO.N,+5V*%
X112740000Y-108940000D03*
%TO.P,U1,44,I/O_30*%
%TO.N,B_D12*%
X112740000Y-106400000D03*
%TO.P,U1,45,I/O/PD2*%
%TO.N,/I{slash}O{slash}PD2*%
X115280000Y-108940000D03*
%TO.P,U1,46,I/O_31*%
%TO.N,B_ {slash} DS0*%
X115280000Y-106400000D03*
%TO.P,U1,47,GND_5*%
%TO.N,GND*%
X117820000Y-108940000D03*
%TO.P,U1,48,I/O_32*%
%TO.N,B_ {slash} DS1*%
X117820000Y-106400000D03*
%TO.P,U1,49,I/O_33*%
%TO.N,B_A19*%
X120360000Y-108940000D03*
%TO.P,U1,50,I/O_34*%
%TO.N,B_A18*%
X120360000Y-106400000D03*
%TO.P,U1,51,I/O_35*%
%TO.N,B_A17*%
X122900000Y-108940000D03*
%TO.P,U1,52,I/O_36*%
%TO.N,B_A16*%
X122900000Y-106400000D03*
%TO.P,U1,53,VCCIO_4*%
%TO.N,+5V*%
X125440000Y-108940000D03*
%TO.P,U1,54,I/O_37*%
%TO.N,B_A15*%
X127980000Y-106400000D03*
%TO.P,U1,55,I/O_38*%
%TO.N,B_A14*%
X125440000Y-106400000D03*
%TO.P,U1,56,I/O_39*%
%TO.N,B_A13*%
X127980000Y-103860000D03*
%TO.P,U1,57,I/O_40*%
%TO.N,B_A12*%
X125440000Y-103860000D03*
%TO.P,U1,58,I/O_41*%
%TO.N,B_A11*%
X127980000Y-101320000D03*
%TO.P,U1,59,GND_6*%
%TO.N,GND*%
X125440000Y-101320000D03*
%TO.P,U1,60,I/O_42*%
%TO.N,B_A10*%
X127980000Y-98780000D03*
%TO.P,U1,61,I/O_43*%
%TO.N,B_A9*%
X125440000Y-98780000D03*
%TO.P,U1,62,I/O/TCK*%
%TO.N,/TCK*%
X127980000Y-96240000D03*
%TO.P,U1,63,I/O_44*%
%TO.N,B_A8*%
X125440000Y-96240000D03*
%TO.P,U1,64,I/O_45*%
%TO.N,B_A7*%
X127980000Y-93700000D03*
%TO.P,U1,65,I/O_46*%
%TO.N,B_A6*%
X125440000Y-93700000D03*
%TO.P,U1,66,VCCIO_5*%
%TO.N,+5V*%
X127980000Y-91160000D03*
%TO.P,U1,67,I/O_47*%
%TO.N,B_A5*%
X125440000Y-91160000D03*
%TO.P,U1,68,I/O_48*%
%TO.N,B_A4*%
X127980000Y-88620000D03*
%TO.P,U1,69,I/O_49*%
%TO.N,B_A3*%
X125440000Y-88620000D03*
%TO.P,U1,70,I/O_50*%
%TO.N,B_A2*%
X127980000Y-86080000D03*
%TO.P,U1,71,I/O/TDO*%
%TO.N,/TDO*%
X125440000Y-86080000D03*
%TO.P,U1,72,GND_7*%
%TO.N,GND*%
X127980000Y-83540000D03*
%TO.P,U1,73,I/O_51*%
%TO.N,B_A1*%
X125440000Y-83540000D03*
%TO.P,U1,74,I/O_52*%
%TO.N,B_A0*%
X127980000Y-81000000D03*
%TO.P,U1,75,I/O_53*%
%TO.N,B_D0*%
X125440000Y-78460000D03*
%TO.P,U1,76,I/O_54*%
%TO.N,B_D1*%
X125440000Y-81000000D03*
%TO.P,U1,77,I/O_55*%
%TO.N,B_D2*%
X122900000Y-78460000D03*
%TO.P,U1,78,VCCIO_6*%
%TO.N,+5V*%
X122900000Y-81000000D03*
%TO.P,U1,79,I/O_56*%
%TO.N,B_D3*%
X120360000Y-78460000D03*
%TO.P,U1,80,I/O_57*%
%TO.N,B_D4*%
X120360000Y-81000000D03*
%TO.P,U1,81,I/O/GCLK3*%
%TO.N,/I{slash}O{slash}GCLK3*%
X117820000Y-78460000D03*
%TO.P,U1,82,GND_8*%
%TO.N,GND*%
X117820000Y-81000000D03*
%TO.P,U1,83,INPUT/GCLK1*%
%TO.N,/GCLK1*%
X115280000Y-78460000D03*
%TO.P,U1,84,INPUT/OE1*%
%TO.N,/I{slash}OE1*%
X115280000Y-81000000D03*
%TD*%
D15*
%TO.P,P1,a1,1A*%
%TO.N,B_VCC*%
X79500000Y-133120000D03*
D16*
%TO.P,P1,a2,2A*%
%TO.N,B_D5*%
X79500000Y-130580000D03*
%TO.P,P1,a3,3A*%
%TO.N,B_D6*%
X79500000Y-128040000D03*
%TO.P,P1,a4,4A*%
%TO.N,B_D3*%
X79500000Y-125500000D03*
%TO.P,P1,a5,5A*%
%TO.N,B_D4*%
X79500000Y-122960000D03*
%TO.P,P1,a6,6A*%
%TO.N,B_A2*%
X79500000Y-120420000D03*
%TO.P,P1,a7,7A*%
%TO.N,B_A4*%
X79500000Y-117880000D03*
%TO.P,P1,a8,8A*%
%TO.N,B_A5*%
X79500000Y-115340000D03*
%TO.P,P1,a9,9A*%
%TO.N,B_A6*%
X79500000Y-112800000D03*
%TO.P,P1,a10,10A*%
%TO.N,unconnected-(P1-10A-Pada10)*%
X79500000Y-110260000D03*
%TO.P,P1,a11,11A*%
%TO.N,unconnected-(P1-11A-Pada11)*%
X79500000Y-107720000D03*
%TO.P,P1,a12,12A*%
%TO.N,/BAI{slash}O*%
X79500000Y-105180000D03*
%TO.P,P1,a13,13A*%
%TO.N,unconnected-(P1-13A-Pada13)*%
X79500000Y-102640000D03*
%TO.P,P1,a14,14A*%
%TO.N,B_A19*%
X79500000Y-100100000D03*
%TO.P,P1,a15,15A*%
%TO.N,unconnected-(P1-15A-Pada15)*%
X79500000Y-97560000D03*
%TO.P,P1,a16,16A*%
%TO.N,unconnected-(P1-16A-Pada16)*%
X79500000Y-95020000D03*
%TO.P,P1,a17,17A*%
%TO.N,/BAI{slash}O*%
X79500000Y-92480000D03*
%TO.P,P1,a18,18A*%
%TO.N,B_A14*%
X79500000Y-89940000D03*
%TO.P,P1,a19,19A*%
%TO.N,unconnected-(P1-19A-Pada19)*%
X79500000Y-87400000D03*
%TO.P,P1,a20,20A*%
%TO.N,/B_{slash}M1*%
X79500000Y-84860000D03*
%TO.P,P1,a21,21A*%
%TO.N,unconnected-(P1-21A-Pada21)*%
X79500000Y-82320000D03*
%TO.P,P1,a22,22A*%
%TO.N,unconnected-(P1-22A-Pada22)*%
X79500000Y-79780000D03*
%TO.P,P1,a23,23A*%
%TO.N,unconnected-(P1-23A-Pada23)*%
X79500000Y-77240000D03*
%TO.P,P1,a24,24A*%
%TO.N,/B_VBAT*%
X79500000Y-74700000D03*
%TO.P,P1,a25,25A*%
%TO.N,unconnected-(P1-25A-Pada25)*%
X79500000Y-72160000D03*
%TO.P,P1,a26,26A*%
%TO.N,unconnected-(P1-26A-Pada26)*%
X79500000Y-69620000D03*
%TO.P,P1,a27,27A*%
%TO.N,/B_{slash}IORQ*%
X79500000Y-67080000D03*
%TO.P,P1,a28,28A*%
%TO.N,B_A15*%
X79500000Y-64540000D03*
%TO.P,P1,a29,29A*%
%TO.N,B_A13*%
X79500000Y-62000000D03*
%TO.P,P1,a30,30A*%
%TO.N,B_A9*%
X79500000Y-59460000D03*
%TO.P,P1,a31,31A*%
%TO.N,unconnected-(P1-31A-Pada31)*%
X79500000Y-56920000D03*
%TO.P,P1,a32,32A*%
%TO.N,GND*%
X79500000Y-54380000D03*
%TO.P,P1,b1,1B*%
%TO.N,B_VCC*%
X82040000Y-133120000D03*
%TO.P,P1,b2,2B*%
%TO.N,unconnected-(P1-2B-Padb2)*%
X82040000Y-130580000D03*
%TO.P,P1,b3,3B*%
%TO.N,unconnected-(P1-3B-Padb3)*%
X82040000Y-128040000D03*
%TO.P,P1,b4,4B*%
%TO.N,unconnected-(P1-4B-Padb4)*%
X82040000Y-125500000D03*
%TO.P,P1,b5,5B*%
%TO.N,unconnected-(P1-5B-Padb5)*%
X82040000Y-122960000D03*
%TO.P,P1,b6,6B*%
%TO.N,B_D8*%
X82040000Y-120420000D03*
%TO.P,P1,b7,7B*%
%TO.N,B_D9*%
X82040000Y-117880000D03*
%TO.P,P1,b8,8B*%
%TO.N,B_D10*%
X82040000Y-115340000D03*
%TO.P,P1,b9,9B*%
%TO.N,B_D11*%
X82040000Y-112800000D03*
%TO.P,P1,b10,10B*%
%TO.N,B_D12*%
X82040000Y-110260000D03*
%TO.P,P1,b11,11B*%
%TO.N,B_D13*%
X82040000Y-107720000D03*
%TO.P,P1,b12,12B*%
%TO.N,B_D14*%
X82040000Y-105180000D03*
%TO.P,P1,b13,13B*%
%TO.N,B_D15*%
X82040000Y-102640000D03*
%TO.P,P1,b14,14B*%
%TO.N,/B_{slash}IRQ7*%
X82040000Y-100100000D03*
%TO.P,P1,b15,15B*%
%TO.N,/B_{slash}IRQ6*%
X82040000Y-97560000D03*
%TO.P,P1,b16,16B*%
%TO.N,/B_{slash}IRQ5*%
X82040000Y-95020000D03*
%TO.P,P1,b17,17B*%
%TO.N,/B_{slash}IRQ4*%
X82040000Y-92480000D03*
%TO.P,P1,b18,18B*%
%TO.N,/B_{slash}IRQ3*%
X82040000Y-89940000D03*
%TO.P,P1,b19,19B*%
%TO.N,/B_{slash}IRQ2*%
X82040000Y-87400000D03*
%TO.P,P1,b20,20B*%
%TO.N,/B_{slash}IRQ1*%
X82040000Y-84860000D03*
%TO.P,P1,b21,21B*%
%TO.N,/B_{slash}IRQ0*%
X82040000Y-82320000D03*
%TO.P,P1,b22,22B*%
%TO.N,B_ {slash} SXTAK*%
X82040000Y-79780000D03*
%TO.P,P1,b23,23B*%
%TO.N,/B_{slash}DREQ*%
X82040000Y-77240000D03*
%TO.P,P1,b24,24B*%
%TO.N,B_ {slash} SXTRQ*%
X82040000Y-74700000D03*
%TO.P,P1,b25,25B*%
%TO.N,/B_{slash}INTA*%
X82040000Y-72160000D03*
%TO.P,P1,b26,26B*%
%TO.N,unconnected-(P1-26B-Padb26)*%
X82040000Y-69620000D03*
%TO.P,P1,b27,27B*%
%TO.N,unconnected-(P1-27B-Padb27)*%
X82040000Y-67080000D03*
%TO.P,P1,b28,28B*%
%TO.N,B_ {slash} DS0*%
X82040000Y-64540000D03*
%TO.P,P1,b29,29B*%
%TO.N,B_ {slash} DS1*%
X82040000Y-62000000D03*
%TO.P,P1,b30,30B*%
%TO.N,unconnected-(P1-30B-Padb30)*%
X82040000Y-59460000D03*
%TO.P,P1,b31,31B*%
%TO.N,unconnected-(P1-31B-Padb31)*%
X82040000Y-56920000D03*
%TO.P,P1,b32,32B*%
%TO.N,GND*%
X82040000Y-54380000D03*
%TO.P,P1,c1,1C*%
%TO.N,B_VCC*%
X84580000Y-133120000D03*
%TO.P,P1,c2,2C*%
%TO.N,B_D0*%
X84580000Y-130580000D03*
%TO.P,P1,c3,3C*%
%TO.N,B_D7*%
X84580000Y-128040000D03*
%TO.P,P1,c4,4C*%
%TO.N,B_D2*%
X84580000Y-125500000D03*
%TO.P,P1,c5,5C*%
%TO.N,B_A0*%
X84580000Y-122960000D03*
%TO.P,P1,c6,6C*%
%TO.N,B_A3*%
X84580000Y-120420000D03*
%TO.P,P1,c7,7C*%
%TO.N,B_A1*%
X84580000Y-117880000D03*
%TO.P,P1,c8,8C*%
%TO.N,B_A8*%
X84580000Y-115340000D03*
%TO.P,P1,c9,9C*%
%TO.N,B_A7*%
X84580000Y-112800000D03*
%TO.P,P1,c10,10C*%
%TO.N,B_A16*%
X84580000Y-110260000D03*
%TO.P,P1,c11,11C*%
%TO.N,/IEI{slash}O*%
X84580000Y-107720000D03*
%TO.P,P1,c12,12C*%
%TO.N,B_A17*%
X84580000Y-105180000D03*
%TO.P,P1,c13,13C*%
%TO.N,B_A18*%
X84580000Y-102640000D03*
%TO.P,P1,c14,14C*%
%TO.N,B_D1*%
X84580000Y-100100000D03*
%TO.P,P1,c15,15C*%
%TO.N,unconnected-(P1-15C-Padc15)*%
X84580000Y-97560000D03*
%TO.P,P1,c16,16C*%
%TO.N,/IEI{slash}O*%
X84580000Y-95020000D03*
%TO.P,P1,c17,17C*%
%TO.N,B_A11*%
X84580000Y-92480000D03*
%TO.P,P1,c18,18C*%
%TO.N,B_A10*%
X84580000Y-89940000D03*
%TO.P,P1,c19,19C*%
%TO.N,unconnected-(P1-19C-Padc19)*%
X84580000Y-87400000D03*
%TO.P,P1,c20,20C*%
%TO.N,unconnected-(P1-20C-Padc20)*%
X84580000Y-84860000D03*
%TO.P,P1,c21,21C*%
%TO.N,/B_{slash}INT*%
X84580000Y-82320000D03*
%TO.P,P1,c22,22C*%
%TO.N,/B_{slash}WR*%
X84580000Y-79780000D03*
%TO.P,P1,c23,23C*%
%TO.N,unconnected-(P1-23C-Padc23)*%
X84580000Y-77240000D03*
%TO.P,P1,c24,24C*%
%TO.N,/B_{slash}RD*%
X84580000Y-74700000D03*
%TO.P,P1,c25,25C*%
%TO.N,unconnected-(P1-25C-Padc25)*%
X84580000Y-72160000D03*
%TO.P,P1,c26,26C*%
%TO.N,/B_{slash}RESOUT*%
X84580000Y-69620000D03*
%TO.P,P1,c27,27C*%
%TO.N,B_A12*%
X84580000Y-67080000D03*
%TO.P,P1,c28,28C*%
%TO.N,unconnected-(P1-28C-Padc28)*%
X84580000Y-64540000D03*
%TO.P,P1,c29,29C*%
%TO.N,unconnected-(P1-29C-Padc29)*%
X84580000Y-62000000D03*
%TO.P,P1,c30,30C*%
%TO.N,unconnected-(P1-30C-Padc30)*%
X84580000Y-59460000D03*
%TO.P,P1,c31,31C*%
%TO.N,/B_{slash}RESET*%
X84580000Y-56920000D03*
%TO.P,P1,c32,32C*%
%TO.N,GND*%
X84580000Y-54380000D03*
%TD*%
D17*
%TO.P,J2,1,Pin_1*%
%TO.N,/TDI*%
X142775000Y-110875000D03*
D18*
%TO.P,J2,2,Pin_2*%
%TO.N,/TDO*%
X140235000Y-110875000D03*
%TO.P,J2,3,Pin_3*%
%TO.N,/TCK*%
X142775000Y-108335000D03*
%TO.P,J2,4,Pin_4*%
%TO.N,/TMS*%
X140235000Y-108335000D03*
%TO.P,J2,5,Pin_5*%
%TO.N,unconnected-(J2-Pin_5-Pad5)*%
X142775000Y-105795000D03*
%TO.P,J2,6,Pin_6*%
%TO.N,unconnected-(J2-Pin_6-Pad6)*%
X140235000Y-105795000D03*
%TO.P,J2,7,Pin_7*%
%TO.N,+3.3V*%
X142775000Y-103255000D03*
%TO.P,J2,8,Pin_8*%
%TO.N,+5V*%
X140235000Y-103255000D03*
%TO.P,J2,9,Pin_9*%
%TO.N,GND*%
X142775000Y-100715000D03*
%TO.P,J2,10,Pin_10*%
X140235000Y-100715000D03*
%TO.P,J2,11,Pin_11*%
%TO.N,/I{slash}OE1*%
X142775000Y-98175000D03*
%TO.P,J2,12,Pin_12*%
%TO.N,/I{slash}GCLR*%
X140235000Y-98175000D03*
%TO.P,J2,13,Pin_13*%
%TO.N,/I{slash}O{slash}GCLK3*%
X142775000Y-95635000D03*
%TO.P,J2,14,Pin_14*%
%TO.N,/I{slash}OE2{slash}GCLK2*%
X140235000Y-95635000D03*
%TO.P,J2,15,Pin_15*%
%TO.N,/I{slash}O{slash}PD2*%
X142775000Y-93095000D03*
%TO.P,J2,16,Pin_16*%
%TO.N,/I{slash}O{slash}PD1*%
X140235000Y-93095000D03*
%TD*%
D17*
%TO.P,J1,1,Pin_1*%
%TO.N,+3.3V*%
X111137500Y-60010000D03*
D18*
%TO.P,J1,2,Pin_2*%
%TO.N,Net-(J1-Pin_2)*%
X111137500Y-62550000D03*
%TO.P,J1,3,Pin_3*%
%TO.N,GND*%
X111137500Y-65090000D03*
%TD*%
D19*
%TO.P,U2,1,VDD*%
%TO.N,+3.3V*%
X118750000Y-64975000D03*
%TO.P,U2,2,GND*%
%TO.N,GND*%
X119700000Y-64975000D03*
%TO.P,U2,3,OE*%
%TO.N,unconnected-(U2-OE-Pad3)*%
X120650000Y-64975000D03*
%TO.P,U2,4,DIV*%
%TO.N,Net-(J1-Pin_2)*%
X120650000Y-67250000D03*
%TO.P,U2,5,OUT*%
%TO.N,Net-(U2-OUT)*%
X118750000Y-67250000D03*
%TD*%
D20*
%TO.P,D2,1,K*%
%TO.N,+5V*%
X91400000Y-133500000D03*
%TO.P,D2,2,A*%
%TO.N,B_VCC*%
X88600000Y-133500000D03*
%TD*%
D21*
%TO.P,R2,1*%
%TO.N,+5V*%
X97660000Y-122000000D03*
%TO.P,R2,2*%
%TO.N,/B_{slash}RESET*%
X98475000Y-122000000D03*
%TD*%
D22*
%TO.P,R1,1*%
%TO.N,+5V*%
X140250000Y-78342500D03*
%TO.P,R1,2*%
%TO.N,/I{slash}GCLR*%
X140250000Y-79157500D03*
%TD*%
D23*
%TO.P,Q1,1,G*%
%TO.N,/GCLR_FTDI*%
X141250000Y-83500000D03*
%TO.P,Q1,2,S*%
%TO.N,GND*%
X139350000Y-83500000D03*
%TO.P,Q1,3,D*%
%TO.N,/I{slash}GCLR*%
X140300000Y-81625000D03*
%TD*%
D24*
%TO.P,U3,1,INPUT*%
%TO.N,+5V*%
X126275000Y-60600000D03*
%TO.P,U3,2,GND*%
%TO.N,GND*%
X126275000Y-61550000D03*
%TO.P,U3,3,ENABLE*%
%TO.N,+5V*%
X126275000Y-62500000D03*
%TO.P,U3,4*%
%TO.N,N/C*%
X124000000Y-62500000D03*
%TO.P,U3,5,OUT*%
%TO.N,+3.3V*%
X124000000Y-60600000D03*
%TD*%
D21*
%TO.P,R8,1*%
%TO.N,/JTAG-Interface/FTDI_USB_DATA-*%
X139025000Y-123500000D03*
%TO.P,R8,2*%
%TO.N,/JTAG-Interface/USB_DATA-*%
X139840000Y-123500000D03*
%TD*%
D25*
%TO.P,C5,1*%
%TO.N,GND*%
X111000000Y-125862500D03*
%TO.P,C5,2*%
%TO.N,Net-(U4-XTIN)*%
X111000000Y-124137500D03*
%TD*%
D26*
%TO.P,Y1,1,1*%
%TO.N,Net-(U4-XTIN)*%
X115750000Y-124775000D03*
%TO.P,Y1,2,2*%
%TO.N,Net-(U4-XTOUT)*%
X122250000Y-124775000D03*
%TD*%
D25*
%TO.P,C3,1*%
%TO.N,+3.3V*%
X116750000Y-64975000D03*
%TO.P,C3,2*%
%TO.N,GND*%
X116750000Y-63250000D03*
%TD*%
D27*
%TO.P,U4,1,EECLK*%
%TO.N,unconnected-(U4-EECLK-Pad1)*%
X123162500Y-131750000D03*
%TO.P,U4,2,EEDATA*%
%TO.N,unconnected-(U4-EEDATA-Pad2)*%
X123162500Y-132250000D03*
%TO.P,U4,3,VCC*%
%TO.N,+5V*%
X123162500Y-132750000D03*
%TO.P,U4,4,~{RESET}*%
X123162500Y-133250000D03*
%TO.P,U4,5,~{RSTOUT}*%
%TO.N,Net-(U4-~{RSTOUT})*%
X123162500Y-133750000D03*
%TO.P,U4,6,3V3OUT*%
%TO.N,Net-(U4-3V3OUT)*%
X123162500Y-134250000D03*
%TO.P,U4,7,USBDP*%
%TO.N,/JTAG-Interface/FTDI_USB_DATA+*%
X123162500Y-134750000D03*
%TO.P,U4,8,USBDM*%
%TO.N,/JTAG-Interface/FTDI_USB_DATA-*%
X123162500Y-135250000D03*
%TO.P,U4,9,GND*%
%TO.N,GND*%
X123162500Y-135750000D03*
%TO.P,U4,10,SI/WUA*%
%TO.N,unconnected-(U4-SI{slash}WUA-Pad10)*%
X123162500Y-136250000D03*
%TO.P,U4,11,ACBUS3*%
%TO.N,unconnected-(U4-ACBUS3-Pad11)*%
X123162500Y-136750000D03*
%TO.P,U4,12,ACBUS2*%
%TO.N,unconnected-(U4-ACBUS2-Pad12)*%
X123162500Y-137250000D03*
D28*
%TO.P,U4,13,ACBUS1*%
%TO.N,/RESET_FTDI*%
X121750000Y-138662500D03*
%TO.P,U4,14,VCCIOA*%
%TO.N,+5V*%
X121250000Y-138662500D03*
%TO.P,U4,15,ACBUS0*%
%TO.N,/GCLR_FTDI*%
X120750000Y-138662500D03*
%TO.P,U4,16,ADBUS7*%
%TO.N,unconnected-(U4-ADBUS7-Pad16)*%
X120250000Y-138662500D03*
%TO.P,U4,17,ADBUS6*%
%TO.N,unconnected-(U4-ADBUS6-Pad17)*%
X119750000Y-138662500D03*
%TO.P,U4,18,GND*%
%TO.N,GND*%
X119250000Y-138662500D03*
%TO.P,U4,19,ADBUS5*%
%TO.N,unconnected-(U4-ADBUS5-Pad19)*%
X118750000Y-138662500D03*
%TO.P,U4,20,ADBUS4*%
%TO.N,unconnected-(U4-ADBUS4-Pad20)*%
X118250000Y-138662500D03*
%TO.P,U4,21,ADBUS3*%
%TO.N,/TMS*%
X117750000Y-138662500D03*
%TO.P,U4,22,ADBUS2*%
%TO.N,/TDO*%
X117250000Y-138662500D03*
%TO.P,U4,23,ADBUS1*%
%TO.N,/TDI*%
X116750000Y-138662500D03*
%TO.P,U4,24,ADBUS0*%
%TO.N,/TCK*%
X116250000Y-138662500D03*
D27*
%TO.P,U4,25,GND*%
%TO.N,GND*%
X114837500Y-137250000D03*
%TO.P,U4,26,SI/WUB*%
%TO.N,unconnected-(U4-SI{slash}WUB-Pad26)*%
X114837500Y-136750000D03*
%TO.P,U4,27,BCBUS3*%
%TO.N,unconnected-(U4-BCBUS3-Pad27)*%
X114837500Y-136250000D03*
%TO.P,U4,28,BCBUS2*%
%TO.N,unconnected-(U4-BCBUS2-Pad28)*%
X114837500Y-135750000D03*
%TO.P,U4,29,BCBUS1*%
%TO.N,unconnected-(U4-BCBUS1-Pad29)*%
X114837500Y-135250000D03*
%TO.P,U4,30,BCBUS0*%
%TO.N,unconnected-(U4-BCBUS0-Pad30)*%
X114837500Y-134750000D03*
%TO.P,U4,31,VCCIOB*%
%TO.N,+5V*%
X114837500Y-134250000D03*
%TO.P,U4,32,BDBUS7*%
%TO.N,unconnected-(U4-BDBUS7-Pad32)*%
X114837500Y-133750000D03*
%TO.P,U4,33,BDBUS6*%
%TO.N,unconnected-(U4-BDBUS6-Pad33)*%
X114837500Y-133250000D03*
%TO.P,U4,34,GND*%
%TO.N,GND*%
X114837500Y-132750000D03*
%TO.P,U4,35,BDBUS5*%
%TO.N,unconnected-(U4-BDBUS5-Pad35)*%
X114837500Y-132250000D03*
%TO.P,U4,36,BDBUS4*%
%TO.N,unconnected-(U4-BDBUS4-Pad36)*%
X114837500Y-131750000D03*
D28*
%TO.P,U4,37,BDBUS3*%
%TO.N,unconnected-(U4-BDBUS3-Pad37)*%
X116250000Y-130337500D03*
%TO.P,U4,38,BDBUS2*%
%TO.N,unconnected-(U4-BDBUS2-Pad38)*%
X116750000Y-130337500D03*
%TO.P,U4,39,BDBUS1*%
%TO.N,unconnected-(U4-BDBUS1-Pad39)*%
X117250000Y-130337500D03*
%TO.P,U4,40,BDBUS0*%
%TO.N,unconnected-(U4-BDBUS0-Pad40)*%
X117750000Y-130337500D03*
%TO.P,U4,41,~{PWREN}*%
%TO.N,unconnected-(U4-~{PWREN}-Pad41)*%
X118250000Y-130337500D03*
%TO.P,U4,42,VCC*%
%TO.N,+5V*%
X118750000Y-130337500D03*
%TO.P,U4,43,XTIN*%
%TO.N,Net-(U4-XTIN)*%
X119250000Y-130337500D03*
%TO.P,U4,44,XTOUT*%
%TO.N,Net-(U4-XTOUT)*%
X119750000Y-130337500D03*
%TO.P,U4,45,AGND*%
%TO.N,GND*%
X120250000Y-130337500D03*
%TO.P,U4,46,AVCC*%
%TO.N,Net-(U4-AVCC)*%
X120750000Y-130337500D03*
%TO.P,U4,47,TEST*%
%TO.N,GND*%
X121250000Y-130337500D03*
%TO.P,U4,48,EECS*%
%TO.N,unconnected-(U4-EECS-Pad48)*%
X121750000Y-130337500D03*
%TD*%
D29*
%TO.P,C1,1*%
%TO.N,+5V*%
X93112500Y-73750000D03*
%TO.P,C1,2*%
%TO.N,GND*%
X91387500Y-73750000D03*
%TD*%
D22*
%TO.P,R6,1*%
%TO.N,GND*%
X139000000Y-117592500D03*
%TO.P,R6,2*%
%TO.N,Net-(J3-CC1)*%
X139000000Y-118407500D03*
%TD*%
D21*
%TO.P,R4,1*%
%TO.N,/RESET_FTDI*%
X106342500Y-126500000D03*
%TO.P,R4,2*%
%TO.N,GND*%
X107157500Y-126500000D03*
%TD*%
D22*
%TO.P,R10,1*%
%TO.N,Net-(U4-~{RSTOUT})*%
X125500000Y-133775000D03*
%TO.P,R10,2*%
%TO.N,/JTAG-Interface/FTDI_USB_DATA+*%
X125500000Y-134590000D03*
%TD*%
%TO.P,R3,1*%
%TO.N,/GCLR_FTDI*%
X143000000Y-83092500D03*
%TO.P,R3,2*%
%TO.N,GND*%
X143000000Y-83907500D03*
%TD*%
D29*
%TO.P,C2,1*%
%TO.N,GND*%
X130500000Y-60550000D03*
%TO.P,C2,2*%
%TO.N,+5V*%
X128775000Y-60550000D03*
%TD*%
D22*
%TO.P,R5,1*%
%TO.N,Net-(U2-OUT)*%
X118750000Y-70592500D03*
%TO.P,R5,2*%
%TO.N,/GCLK1*%
X118750000Y-71407500D03*
%TD*%
D25*
%TO.P,C6,1*%
%TO.N,GND*%
X125000000Y-125862500D03*
%TO.P,C6,2*%
%TO.N,Net-(U4-XTOUT)*%
X125000000Y-124137500D03*
%TD*%
D23*
%TO.P,Q2,1,G*%
%TO.N,/RESET_FTDI*%
X103887500Y-124437500D03*
%TO.P,Q2,2,S*%
%TO.N,GND*%
X101987500Y-124437500D03*
%TO.P,Q2,3,D*%
%TO.N,/B_{slash}RESET*%
X102937500Y-122562500D03*
%TD*%
D29*
%TO.P,C7,1*%
%TO.N,GND*%
X127475000Y-130750000D03*
%TO.P,C7,2*%
%TO.N,Net-(U4-3V3OUT)*%
X125750000Y-130750000D03*
%TD*%
%TO.P,C8,1*%
%TO.N,GND*%
X127500000Y-129000000D03*
%TO.P,C8,2*%
%TO.N,Net-(U4-AVCC)*%
X125775000Y-129000000D03*
%TD*%
D20*
%TO.P,D1,1,K*%
%TO.N,+5V*%
X133100000Y-119750000D03*
%TO.P,D1,2,A*%
%TO.N,/JTAG-Interface/VBUS*%
X135900000Y-119750000D03*
%TD*%
D30*
%TO.P,R7,1*%
%TO.N,GND*%
X139000000Y-128907500D03*
%TO.P,R7,2*%
%TO.N,Net-(J3-CC2)*%
X139000000Y-128092500D03*
%TD*%
D21*
%TO.P,R9,1*%
%TO.N,/JTAG-Interface/FTDI_USB_DATA+*%
X139025000Y-122500000D03*
%TO.P,R9,2*%
%TO.N,/JTAG-Interface/USB_DATA+*%
X139840000Y-122500000D03*
%TD*%
D29*
%TO.P,C4,1*%
%TO.N,+3.3V*%
X121112500Y-60500000D03*
%TO.P,C4,2*%
%TO.N,GND*%
X119387500Y-60500000D03*
%TD*%
D21*
%TO.P,R11,1*%
%TO.N,+5V*%
X123592500Y-129000000D03*
%TO.P,R11,2*%
%TO.N,Net-(U4-AVCC)*%
X124407500Y-129000000D03*
%TD*%
D31*
%TO.N,+5V*%
X94750000Y-73250000D03*
X98250000Y-79250000D03*
X125000000Y-132750000D03*
X125000000Y-132000000D03*
X126250000Y-59250000D03*
X128000000Y-62500000D03*
%TO.N,GND*%
X136500000Y-64000000D03*
X136500000Y-69250000D03*
X139000000Y-75000000D03*
%TO.N,+5V*%
X96500000Y-122000000D03*
X93250000Y-133500000D03*
X120750000Y-140500000D03*
X113000000Y-134250000D03*
X117500000Y-132000000D03*
X123000000Y-130000000D03*
X131250000Y-120250000D03*
X139000000Y-77750000D03*
X128500000Y-59000000D03*
%TO.N,/GCLR_FTDI*%
X145290900Y-130852300D03*
X144111800Y-89882600D03*
%TO.N,B_ {slash} SXTRQ*%
X108700700Y-93454500D03*
X93157500Y-81468800D03*
%TO.N,B_D10*%
X112274000Y-115445100D03*
X111626600Y-90035300D03*
%TO.N,B_D9*%
X80167700Y-73296800D03*
%TO.N,B_ {slash} DS0*%
X114285100Y-91789900D03*
%TO.N,B_ {slash} DS1*%
X117820000Y-88351000D03*
%TO.N,B_ {slash} SXTAK*%
X91623900Y-98639700D03*
%TO.N,/B_{slash}RESET*%
X93255300Y-119357400D03*
%TO.N,/B_{slash}INT*%
X96302400Y-86124200D03*
%TO.N,/B_{slash}M1*%
X89913800Y-99276600D03*
%TO.N,B_D3*%
X104335500Y-125760300D03*
%TO.N,B_A15*%
X90745800Y-72835200D03*
X102687000Y-100763300D03*
%TO.N,B_D1*%
X107446000Y-101928500D03*
X117217300Y-82574700D03*
%TO.N,B_D2*%
X113675700Y-117539800D03*
%TO.N,B_D4*%
X111198900Y-115445000D03*
%TO.N,B_A18*%
X90135800Y-111185000D03*
%TO.N,/I{slash}OE1*%
X143735000Y-91641900D03*
%TO.N,/TCK*%
X119236400Y-131559500D03*
%TO.N,/I{slash}O{slash}PD2*%
X117112000Y-94355600D03*
%TO.N,B_A13*%
X129475600Y-91724100D03*
%TO.N,B_A14*%
X92804500Y-111879400D03*
%TO.N,B_A8*%
X114257400Y-115503200D03*
X116127400Y-96137300D03*
%TO.N,B_A6*%
X86530600Y-113667400D03*
X123379600Y-113363900D03*
%TO.N,B_A7*%
X126404000Y-111604400D03*
%TO.N,B_A12*%
X124612000Y-97100000D03*
X103268700Y-85034000D03*
%TO.N,B_A2*%
X138251000Y-107669600D03*
%TO.N,B_A1*%
X119336100Y-114286700D03*
%TO.N,B_A0*%
X119960900Y-103861200D03*
%TO.N,B_A4*%
X121941400Y-117262200D03*
X121998400Y-89302300D03*
%TO.N,B_A3*%
X90705200Y-112261100D03*
X128386400Y-109290200D03*
%TO.N,B_A9*%
X115417700Y-98756500D03*
X115612000Y-92173000D03*
%TO.N,B_A5*%
X121903700Y-113741700D03*
%TO.N,GND*%
X128616900Y-130281100D03*
X139411000Y-130836400D03*
X140032000Y-117454700D03*
X128901900Y-129037300D03*
X131585200Y-60897400D03*
X121143000Y-131804400D03*
X120116300Y-131676900D03*
X116558100Y-132882100D03*
X121455200Y-136637300D03*
X118211600Y-60872400D03*
X115468300Y-63054700D03*
X125199400Y-127460600D03*
X113125400Y-125646200D03*
X142175100Y-83684400D03*
X107640900Y-128032400D03*
X100895700Y-124943800D03*
X140257100Y-83760500D03*
X127587400Y-61459400D03*
X119891000Y-63538600D03*
X144676200Y-127890900D03*
X140523800Y-126074400D03*
X140011600Y-119565600D03*
X115007200Y-138415200D03*
X90258400Y-73638400D03*
X119029800Y-136398900D03*
X148533000Y-119049600D03*
%TD*%
D32*
%TO.N,+3.3V*%
X121112500Y-60500000D02*
X123900000Y-60500000D01*
X123900000Y-60500000D02*
X124000000Y-60600000D01*
%TO.N,+5V*%
X93112500Y-73750000D02*
X94250000Y-73750000D01*
X94250000Y-73750000D02*
X94750000Y-73250000D01*
X100040000Y-81000000D02*
X100000000Y-81000000D01*
X100000000Y-81000000D02*
X98250000Y-79250000D01*
X123162500Y-133250000D02*
X124500000Y-133250000D01*
X124500000Y-133250000D02*
X125000000Y-132750000D01*
X123162500Y-132750000D02*
X124250000Y-132750000D01*
X124250000Y-132750000D02*
X125000000Y-132000000D01*
%TO.N,+3.3V*%
X121112500Y-60500000D02*
X121112500Y-61529900D01*
X121112500Y-61529900D02*
X120700400Y-61942000D01*
%TO.N,+5V*%
X126275000Y-60600000D02*
X126275000Y-59275000D01*
X126275000Y-59275000D02*
X126250000Y-59250000D01*
X126275000Y-62500000D02*
X128000000Y-62500000D01*
X97660000Y-122000000D02*
X96500000Y-122000000D01*
X91400000Y-133500000D02*
X93250000Y-133500000D01*
D33*
%TO.N,/RESET_FTDI*%
X121019239Y-141150000D02*
X121750000Y-140419239D01*
X115300000Y-141150000D02*
X121019239Y-141150000D01*
X121750000Y-140419239D02*
X121750000Y-138662500D01*
X106342500Y-132192500D02*
X115300000Y-141150000D01*
X106342500Y-126500000D02*
X106342500Y-132192500D01*
D32*
%TO.N,+5V*%
X121250000Y-138662500D02*
X121250000Y-140000000D01*
X121250000Y-140000000D02*
X120750000Y-140500000D01*
X114837500Y-134250000D02*
X113000000Y-134250000D01*
X117904945Y-132000000D02*
X117500000Y-132000000D01*
X118750000Y-131154945D02*
X117904945Y-132000000D01*
X118750000Y-130337500D02*
X118750000Y-131154945D01*
X123592500Y-129407500D02*
X123000000Y-130000000D01*
X123592500Y-129000000D02*
X123592500Y-129407500D01*
X131750000Y-119750000D02*
X131250000Y-120250000D01*
X133100000Y-119750000D02*
X131750000Y-119750000D01*
X139592500Y-78342500D02*
X139000000Y-77750000D01*
X140250000Y-78342500D02*
X139592500Y-78342500D01*
X128775000Y-59275000D02*
X128500000Y-59000000D01*
X128775000Y-60550000D02*
X128775000Y-59275000D01*
D33*
%TO.N,/JTAG-Interface/FTDI_USB_DATA+*%
X123162000Y-134750000D02*
X123162500Y-134750000D01*
X124294000Y-134775000D02*
X125522000Y-134775000D01*
X124269000Y-134750000D02*
X124294000Y-134775000D01*
X123162500Y-134750000D02*
X124269000Y-134750000D01*
X126750000Y-134775000D02*
X139025000Y-122500000D01*
X125522000Y-134775000D02*
X126750000Y-134775000D01*
X125500000Y-134753000D02*
X125500000Y-134590000D01*
X125522000Y-134775000D02*
X125500000Y-134753000D01*
%TO.N,/JTAG-Interface/FTDI_USB_DATA-*%
X123162000Y-135250000D02*
X123162500Y-135250000D01*
X138661000Y-123500000D02*
X139025000Y-123500000D01*
X126936000Y-135225000D02*
X138661000Y-123500000D01*
X124294000Y-135225000D02*
X126936000Y-135225000D01*
X124269000Y-135250000D02*
X124294000Y-135225000D01*
X123162500Y-135250000D02*
X124269000Y-135250000D01*
%TO.N,Net-(U2-OUT)*%
X118750000Y-70592500D02*
X118750000Y-67250000D01*
%TO.N,Net-(J1-Pin_2)*%
X116012700Y-66293500D02*
X112269200Y-62550000D01*
X119693500Y-66293500D02*
X116012700Y-66293500D01*
X120650000Y-67250000D02*
X119693500Y-66293500D01*
X111137500Y-62550000D02*
X112269200Y-62550000D01*
%TO.N,Net-(J3-CC2)*%
X139000000Y-126775600D02*
X139000000Y-128092500D01*
X141025600Y-124750000D02*
X139000000Y-126775600D01*
X142070000Y-124750000D02*
X141025600Y-124750000D01*
%TO.N,Net-(J3-CC1)*%
X135594000Y-118407500D02*
X139000000Y-118407500D01*
X135018300Y-118983200D02*
X135594000Y-118407500D01*
X135018300Y-120486700D02*
X135018300Y-118983200D01*
X136281600Y-121750000D02*
X135018300Y-120486700D01*
X142070000Y-121750000D02*
X136281600Y-121750000D01*
%TO.N,/JTAG-Interface/USB_DATA+*%
X141207000Y-122750000D02*
X142070000Y-122750000D01*
X141182000Y-122775000D02*
X141207000Y-122750000D01*
X140591000Y-122775000D02*
X141182000Y-122775000D01*
X140316000Y-122500000D02*
X140591000Y-122775000D01*
X139840000Y-122500000D02*
X140316000Y-122500000D01*
%TO.N,/JTAG-Interface/USB_DATA-*%
X141207000Y-123250000D02*
X142070000Y-123250000D01*
X141182000Y-123225000D02*
X141207000Y-123250000D01*
X140591000Y-123225000D02*
X141182000Y-123225000D01*
X140316000Y-123500000D02*
X140591000Y-123225000D01*
X139840000Y-123500000D02*
X140316000Y-123500000D01*
%TO.N,/RESET_FTDI*%
X105950000Y-126500000D02*
X103887500Y-124437500D01*
X106342500Y-126500000D02*
X105950000Y-126500000D01*
%TO.N,/GCLR_FTDI*%
X141657500Y-83092500D02*
X141250000Y-83500000D01*
X143000000Y-83092500D02*
X141657500Y-83092500D01*
X141250000Y-87020800D02*
X144111800Y-89882600D01*
X141250000Y-83500000D02*
X141250000Y-87020800D01*
X138418000Y-137725200D02*
X145290900Y-130852300D01*
X122395400Y-137725200D02*
X138418000Y-137725200D01*
X122293400Y-137623200D02*
X122395400Y-137725200D01*
X121034400Y-137623200D02*
X122293400Y-137623200D01*
X120750000Y-137907600D02*
X121034400Y-137623200D01*
X120750000Y-138662500D02*
X120750000Y-137907600D01*
%TO.N,B_D15*%
X106188800Y-107468800D02*
X107660000Y-108940000D01*
X88622500Y-107468800D02*
X106188800Y-107468800D01*
X85063700Y-103910000D02*
X88622500Y-107468800D01*
X83310000Y-103910000D02*
X85063700Y-103910000D01*
X82040000Y-102640000D02*
X83310000Y-103910000D01*
%TO.N,B_D14*%
X83120100Y-106260100D02*
X82040000Y-105180000D01*
X85310300Y-106260100D02*
X83120100Y-106260100D01*
X88821100Y-109770900D02*
X85310300Y-106260100D01*
X93677900Y-109770900D02*
X88821100Y-109770900D01*
X93849300Y-109942300D02*
X93677900Y-109770900D01*
X104117700Y-109942300D02*
X93849300Y-109942300D01*
X105120000Y-108940000D02*
X104117700Y-109942300D01*
%TO.N,B_ {slash} SXTRQ*%
X93435900Y-81468800D02*
X93157500Y-81468800D01*
X97054200Y-85087100D02*
X93435900Y-81468800D01*
X100495900Y-85087100D02*
X97054200Y-85087100D01*
X108700700Y-93291900D02*
X100495900Y-85087100D01*
X108700700Y-93454500D02*
X108700700Y-93291900D01*
%TO.N,B_D10*%
X102591300Y-81000000D02*
X102580000Y-81000000D01*
X111626600Y-90035300D02*
X102591300Y-81000000D01*
X111687400Y-114858500D02*
X112274000Y-115445100D01*
X91424300Y-114858500D02*
X111687400Y-114858500D01*
X86938400Y-119344400D02*
X91424300Y-114858500D01*
X81952700Y-119344400D02*
X86938400Y-119344400D01*
X80976600Y-118368300D02*
X81952700Y-119344400D01*
X80976600Y-116403400D02*
X80976600Y-118368300D01*
X82040000Y-115340000D02*
X80976600Y-116403400D01*
%TO.N,B_D9*%
X99161300Y-75041300D02*
X102580000Y-78460000D01*
X90838700Y-75041300D02*
X99161300Y-75041300D01*
X89094200Y-73296800D02*
X90838700Y-75041300D01*
X80167700Y-73296800D02*
X89094200Y-73296800D01*
%TO.N,B_D13*%
X101310000Y-105130000D02*
X102580000Y-106400000D01*
X89872600Y-105130000D02*
X101310000Y-105130000D01*
X86279000Y-101536400D02*
X89872600Y-105130000D01*
X81592800Y-101536400D02*
X86279000Y-101536400D01*
X80960000Y-102169200D02*
X81592800Y-101536400D01*
X80960000Y-106640000D02*
X80960000Y-102169200D01*
X82040000Y-107720000D02*
X80960000Y-106640000D01*
%TO.N,B_D11*%
X80566100Y-111326100D02*
X82040000Y-112800000D01*
X80566100Y-82247400D02*
X80566100Y-111326100D01*
X81763500Y-81050000D02*
X80566100Y-82247400D01*
X82369100Y-81050000D02*
X81763500Y-81050000D01*
X83310000Y-80109100D02*
X82369100Y-81050000D01*
X83310000Y-79545000D02*
X83310000Y-80109100D01*
X84395000Y-78460000D02*
X83310000Y-79545000D01*
X100040000Y-78460000D02*
X84395000Y-78460000D01*
%TO.N,B_ {slash} DS0*%
X106390000Y-83894800D02*
X114285100Y-91789900D01*
X106390000Y-80851200D02*
X106390000Y-83894800D01*
X105268800Y-79730000D02*
X106390000Y-80851200D01*
X104903700Y-79730000D02*
X105268800Y-79730000D01*
X104095600Y-78921900D02*
X104903700Y-79730000D01*
X104095600Y-78544300D02*
X104095600Y-78921900D01*
X91495800Y-65944500D02*
X104095600Y-78544300D01*
X83444500Y-65944500D02*
X91495800Y-65944500D01*
X82040000Y-64540000D02*
X83444500Y-65944500D01*
%TO.N,B_ {slash} DS1*%
X111470100Y-82001100D02*
X117820000Y-88351000D01*
X111470100Y-78255600D02*
X111470100Y-82001100D01*
X94103200Y-60888700D02*
X111470100Y-78255600D01*
X83151300Y-60888700D02*
X94103200Y-60888700D01*
X82040000Y-62000000D02*
X83151300Y-60888700D01*
%TO.N,B_ {slash} SXTAK*%
X95574200Y-102590000D02*
X91623900Y-98639700D01*
X103850000Y-102590000D02*
X95574200Y-102590000D01*
X107660000Y-106400000D02*
X103850000Y-102590000D01*
%TO.N,Net-(U4-~{RSTOUT})*%
X123175000Y-133762500D02*
X123162500Y-133750000D01*
X123188000Y-133775000D02*
X123175000Y-133762500D01*
X125500000Y-133775000D02*
X123188000Y-133775000D01*
X123175000Y-133762500D02*
X123162000Y-133750000D01*
%TO.N,B_A19*%
X78426800Y-101173200D02*
X79500000Y-100100000D01*
X78426800Y-113280600D02*
X78426800Y-101173200D01*
X79012300Y-113866100D02*
X78426800Y-113280600D01*
X82506700Y-113866100D02*
X79012300Y-113866100D01*
X83516000Y-112856800D02*
X82506700Y-113866100D01*
X83516000Y-112322700D02*
X83516000Y-112856800D01*
X84117900Y-111720800D02*
X83516000Y-112322700D01*
X89365700Y-111720800D02*
X84117900Y-111720800D01*
X89454200Y-111809300D02*
X89365700Y-111720800D01*
X90334400Y-111809300D02*
X89454200Y-111809300D01*
X90846000Y-111297700D02*
X90334400Y-111809300D01*
X93045500Y-111297700D02*
X90846000Y-111297700D01*
X93386200Y-111638400D02*
X93045500Y-111297700D01*
X117661600Y-111638400D02*
X93386200Y-111638400D01*
X120360000Y-108940000D02*
X117661600Y-111638400D01*
%TO.N,/B_{slash}IRQ6*%
X83104600Y-98624600D02*
X82040000Y-97560000D01*
X89179100Y-98624600D02*
X83104600Y-98624600D01*
X91438800Y-96364900D02*
X89179100Y-98624600D01*
X94835100Y-96364900D02*
X91438800Y-96364900D01*
X97500000Y-93700000D02*
X94835100Y-96364900D01*
%TO.N,/B_{slash}IRQ4*%
X83360000Y-91160000D02*
X97500000Y-91160000D01*
X82040000Y-92480000D02*
X83360000Y-91160000D01*
%TO.N,/B_{slash}RESET*%
X99037500Y-122562500D02*
X98475000Y-122000000D01*
X102937500Y-122562500D02*
X99037500Y-122562500D01*
X95914700Y-119357400D02*
X93255300Y-119357400D01*
X98475000Y-121917700D02*
X95914700Y-119357400D01*
X98475000Y-122000000D02*
X98475000Y-121917700D01*
%TO.N,Net-(U4-3V3OUT)*%
X122416300Y-134250000D02*
X123162500Y-134250000D01*
X122097900Y-133931600D02*
X122416300Y-134250000D01*
X122097900Y-131550700D02*
X122097900Y-133931600D01*
X122898600Y-130750000D02*
X122097900Y-131550700D01*
X125750000Y-130750000D02*
X122898600Y-130750000D01*
%TO.N,/I{slash}O{slash}PD1*%
X140235000Y-93095000D02*
X139103300Y-93095000D01*
X138314100Y-92305800D02*
X139103300Y-93095000D01*
X124274100Y-92305800D02*
X138314100Y-92305800D01*
X123816700Y-92763200D02*
X124274100Y-92305800D01*
X112992100Y-92763200D02*
X123816700Y-92763200D01*
X102882100Y-82653200D02*
X112992100Y-92763200D01*
X102185600Y-82653200D02*
X102882100Y-82653200D01*
X101805400Y-82273000D02*
X102185600Y-82653200D01*
X99310700Y-82273000D02*
X101805400Y-82273000D01*
X98037700Y-81000000D02*
X99310700Y-82273000D01*
X97500000Y-81000000D02*
X98037700Y-81000000D01*
%TO.N,/B_{slash}IRQ2*%
X83133400Y-86306600D02*
X82040000Y-87400000D01*
X85961600Y-86306600D02*
X83133400Y-86306600D01*
X86750000Y-87095000D02*
X85961600Y-86306600D01*
X99025000Y-87095000D02*
X86750000Y-87095000D01*
X100040000Y-86080000D02*
X99025000Y-87095000D01*
%TO.N,Net-(U4-AVCC)*%
X124408000Y-129000000D02*
X125775000Y-129000000D01*
X124408000Y-129000000D02*
X124407500Y-129000000D01*
X124407500Y-128922000D02*
X124407500Y-129000000D01*
X123969600Y-128484100D02*
X124407500Y-128922000D01*
X121821300Y-128484100D02*
X123969600Y-128484100D01*
X120750000Y-129555400D02*
X121821300Y-128484100D01*
X120750000Y-130337500D02*
X120750000Y-129555400D01*
%TO.N,/B_{slash}INT*%
X88384200Y-86124200D02*
X96302400Y-86124200D01*
X84580000Y-82320000D02*
X88384200Y-86124200D01*
%TO.N,B_A17*%
X85030700Y-105180000D02*
X84580000Y-105180000D01*
X87756700Y-107906000D02*
X85030700Y-105180000D01*
X105522600Y-107906000D02*
X87756700Y-107906000D01*
X106390100Y-108773500D02*
X105522600Y-107906000D01*
X106390100Y-109137500D02*
X106390100Y-108773500D01*
X107217800Y-109965200D02*
X106390100Y-109137500D01*
X108045800Y-109965200D02*
X107217800Y-109965200D01*
X108930100Y-109080900D02*
X108045800Y-109965200D01*
X108930100Y-106254400D02*
X108930100Y-109080900D01*
X110199400Y-104985100D02*
X108930100Y-106254400D01*
X122918600Y-104985100D02*
X110199400Y-104985100D01*
X123897600Y-105964100D02*
X122918600Y-104985100D01*
X123897600Y-107942400D02*
X123897600Y-105964100D01*
X122900000Y-108940000D02*
X123897600Y-107942400D01*
%TO.N,B_A16*%
X84687400Y-110152600D02*
X84580000Y-110260000D01*
X93519800Y-110152600D02*
X84687400Y-110152600D01*
X93754900Y-110387700D02*
X93519800Y-110152600D01*
X110162300Y-110387700D02*
X93754900Y-110387700D01*
X111196300Y-109353700D02*
X110162300Y-110387700D01*
X111196300Y-106537500D02*
X111196300Y-109353700D01*
X112358900Y-105374900D02*
X111196300Y-106537500D01*
X121874900Y-105374900D02*
X112358900Y-105374900D01*
X122900000Y-106400000D02*
X121874900Y-105374900D01*
%TO.N,/B_{slash}M1*%
X89913800Y-98969400D02*
X89913800Y-99276600D01*
X91373300Y-97509900D02*
X89913800Y-98969400D01*
X98770100Y-97509900D02*
X91373300Y-97509900D01*
X100040000Y-96240000D02*
X98770100Y-97509900D01*
%TO.N,B_D3*%
X100990400Y-129105400D02*
X104335500Y-125760300D01*
X79056400Y-129105400D02*
X100990400Y-129105400D01*
X78442700Y-128491700D02*
X79056400Y-129105400D01*
X78442700Y-126557300D02*
X78442700Y-128491700D01*
X79500000Y-125500000D02*
X78442700Y-126557300D01*
%TO.N,B_D12*%
X83098700Y-111318700D02*
X82040000Y-110260000D01*
X89179500Y-111318700D02*
X83098700Y-111318700D01*
X89963900Y-110534300D02*
X89179500Y-111318700D01*
X93361700Y-110534300D02*
X89963900Y-110534300D01*
X93611600Y-110784200D02*
X93361700Y-110534300D01*
X110305600Y-110784200D02*
X93611600Y-110784200D01*
X111578000Y-109511800D02*
X110305600Y-110784200D01*
X111578000Y-107562000D02*
X111578000Y-109511800D01*
X112740000Y-106400000D02*
X111578000Y-107562000D01*
%TO.N,B_A15*%
X86260600Y-68350000D02*
X90745800Y-72835200D01*
X84345000Y-68350000D02*
X86260600Y-68350000D01*
X83310000Y-67315000D02*
X84345000Y-68350000D01*
X83310000Y-66795600D02*
X83310000Y-67315000D01*
X82189800Y-65675400D02*
X83310000Y-66795600D01*
X80635400Y-65675400D02*
X82189800Y-65675400D01*
X79500000Y-64540000D02*
X80635400Y-65675400D01*
X126978700Y-105398700D02*
X127980000Y-106400000D01*
X123871900Y-105398700D02*
X126978700Y-105398700D01*
X122936900Y-104463700D02*
X123871900Y-105398700D01*
X106387400Y-104463700D02*
X122936900Y-104463700D01*
X102687000Y-100763300D02*
X106387400Y-104463700D01*
%TO.N,/I{slash}GCLR*%
X140235000Y-98175000D02*
X141366700Y-98175000D01*
X112740000Y-78460000D02*
X113732900Y-78460000D01*
X140250000Y-81575000D02*
X140250000Y-79157500D01*
X140300000Y-81625000D02*
X140250000Y-81575000D01*
X114725800Y-79452900D02*
X113732900Y-78460000D01*
X115706000Y-79452900D02*
X114725800Y-79452900D01*
X116550100Y-78608800D02*
X115706000Y-79452900D01*
X116550100Y-78325300D02*
X116550100Y-78608800D01*
X117458000Y-77417400D02*
X116550100Y-78325300D01*
X137301200Y-77417400D02*
X117458000Y-77417400D01*
X139041300Y-79157500D02*
X137301200Y-77417400D01*
X140250000Y-79157500D02*
X139041300Y-79157500D01*
X142414900Y-81625000D02*
X140300000Y-81625000D01*
X144702000Y-83912100D02*
X142414900Y-81625000D01*
X144702000Y-95376500D02*
X144702000Y-83912100D01*
X143035200Y-97043300D02*
X144702000Y-95376500D01*
X142286100Y-97043300D02*
X143035200Y-97043300D01*
X141366700Y-97962700D02*
X142286100Y-97043300D01*
X141366700Y-98175000D02*
X141366700Y-97962700D01*
%TO.N,/I{slash}O{slash}GCLK3*%
X144320300Y-94089700D02*
X142775000Y-95635000D01*
X144320300Y-91372300D02*
X144320300Y-94089700D01*
X132459700Y-79511700D02*
X144320300Y-91372300D01*
X118871700Y-79511700D02*
X132459700Y-79511700D01*
X117820000Y-78460000D02*
X118871700Y-79511700D01*
%TO.N,/B_{slash}IRQ7*%
X83115100Y-99024900D02*
X82040000Y-100100000D01*
X89318600Y-99024900D02*
X83115100Y-99024900D01*
X91596900Y-96746600D02*
X89318600Y-99024900D01*
X96993400Y-96746600D02*
X91596900Y-96746600D01*
X97500000Y-96240000D02*
X96993400Y-96746600D01*
%TO.N,B_D1*%
X105340300Y-99822800D02*
X107446000Y-101928500D01*
X95711500Y-99822800D02*
X105340300Y-99822800D01*
X93875700Y-97987000D02*
X95711500Y-99822800D01*
X91436000Y-97987000D02*
X93875700Y-97987000D01*
X90758600Y-98664400D02*
X91436000Y-97987000D01*
X90758600Y-99330600D02*
X90758600Y-98664400D01*
X89989200Y-100100000D02*
X90758600Y-99330600D01*
X84580000Y-100100000D02*
X89989200Y-100100000D01*
X123865300Y-82574700D02*
X117217300Y-82574700D01*
X125440000Y-81000000D02*
X123865300Y-82574700D01*
%TO.N,/B_{slash}IRQ1*%
X94403400Y-82983400D02*
X97500000Y-86080000D01*
X93849500Y-82983400D02*
X94403400Y-82983400D01*
X92121800Y-81255700D02*
X93849500Y-82983400D01*
X84107300Y-81255700D02*
X92121800Y-81255700D01*
X83310000Y-82053000D02*
X84107300Y-81255700D01*
X83310000Y-83590000D02*
X83310000Y-82053000D01*
X82040000Y-84860000D02*
X83310000Y-83590000D01*
%TO.N,/B_{slash}IRQ0*%
X100037900Y-83540000D02*
X100040000Y-83540000D01*
X99014900Y-82517000D02*
X100037900Y-83540000D01*
X97037400Y-82517000D02*
X99014900Y-82517000D01*
X95394400Y-80874000D02*
X97037400Y-82517000D01*
X83486000Y-80874000D02*
X95394400Y-80874000D01*
X82040000Y-82320000D02*
X83486000Y-80874000D01*
%TO.N,B_D2*%
X113675700Y-117539900D02*
X113675700Y-117539800D01*
X109397600Y-117539900D02*
X113675700Y-117539900D01*
X103352900Y-123584600D02*
X109397600Y-117539900D01*
X102572200Y-123584600D02*
X103352900Y-123584600D01*
X102365200Y-123377600D02*
X102572200Y-123584600D01*
X88960600Y-123377600D02*
X102365200Y-123377600D01*
X86838200Y-125500000D02*
X88960600Y-123377600D01*
X84580000Y-125500000D02*
X86838200Y-125500000D01*
%TO.N,B_D4*%
X93280500Y-115445000D02*
X111198900Y-115445000D01*
X86822200Y-121903300D02*
X93280500Y-115445000D01*
X80556700Y-121903300D02*
X86822200Y-121903300D01*
X79500000Y-122960000D02*
X80556700Y-121903300D01*
%TO.N,/B_{slash}IRQ3*%
X83360000Y-88620000D02*
X97500000Y-88620000D01*
X82040000Y-89940000D02*
X83360000Y-88620000D01*
%TO.N,/B_{slash}IRQ5*%
X82101300Y-95020000D02*
X82040000Y-95020000D01*
X83539700Y-93581600D02*
X82101300Y-95020000D01*
X93338200Y-93581600D02*
X83539700Y-93581600D01*
X94761400Y-92158400D02*
X93338200Y-93581600D01*
X99041600Y-92158400D02*
X94761400Y-92158400D01*
X100040000Y-91160000D02*
X99041600Y-92158400D01*
%TO.N,B_A18*%
X90404800Y-110916000D02*
X90135800Y-111185000D01*
X93203600Y-110916000D02*
X90404800Y-110916000D01*
X93483200Y-111195600D02*
X93203600Y-110916000D01*
X114457400Y-111195600D02*
X93483200Y-111195600D01*
X116272900Y-109380100D02*
X114457400Y-111195600D01*
X116272900Y-109073500D02*
X116272900Y-109380100D01*
X117676400Y-107670000D02*
X116272900Y-109073500D01*
X119090000Y-107670000D02*
X117676400Y-107670000D01*
X120360000Y-106400000D02*
X119090000Y-107670000D01*
%TO.N,/I{slash}OE1*%
X136903100Y-84810000D02*
X143735000Y-91641900D01*
X118630000Y-84810000D02*
X136903100Y-84810000D01*
X115280000Y-81460000D02*
X118630000Y-84810000D01*
X115280000Y-81000000D02*
X115280000Y-81460000D01*
D32*
%TO.N,B_VCC*%
X84960000Y-133500000D02*
X84580000Y-133120000D01*
X88600000Y-133500000D02*
X84960000Y-133500000D01*
X84580000Y-133120000D02*
X82040000Y-133120000D01*
X82040000Y-133120000D02*
X79500000Y-133120000D01*
D33*
%TO.N,Net-(U4-XTOUT)*%
X119750000Y-125743300D02*
X120718300Y-124775000D01*
X119750000Y-130337500D02*
X119750000Y-125743300D01*
X121484200Y-124775000D02*
X120718300Y-124775000D01*
X121484200Y-124775000D02*
X122250000Y-124775000D01*
X124362500Y-124775000D02*
X125000000Y-124137500D01*
X122250000Y-124775000D02*
X124362500Y-124775000D01*
%TO.N,/TCK*%
X142775000Y-108335000D02*
X141643300Y-108335000D01*
X116250000Y-134545900D02*
X119236400Y-131559500D01*
X116250000Y-138662500D02*
X116250000Y-134545900D01*
X128183900Y-96240000D02*
X127980000Y-96240000D01*
X139145700Y-107201800D02*
X128183900Y-96240000D01*
X140722400Y-107201800D02*
X139145700Y-107201800D01*
X141643300Y-108122700D02*
X140722400Y-107201800D01*
X141643300Y-108335000D02*
X141643300Y-108122700D01*
%TO.N,/I{slash}OE2{slash}GCLK2*%
X140235000Y-95635000D02*
X140235000Y-94503300D01*
X118930600Y-87190600D02*
X112740000Y-81000000D01*
X135963600Y-87190600D02*
X118930600Y-87190600D01*
X141425600Y-92652600D02*
X135963600Y-87190600D01*
X141425600Y-93547200D02*
X141425600Y-92652600D01*
X140469500Y-94503300D02*
X141425600Y-93547200D01*
X140235000Y-94503300D02*
X140469500Y-94503300D01*
%TO.N,Net-(U4-XTIN)*%
X119250000Y-126743300D02*
X117281700Y-124775000D01*
X119250000Y-130337500D02*
X119250000Y-126743300D01*
X116515900Y-124775000D02*
X117281700Y-124775000D01*
X116515900Y-124775000D02*
X115750000Y-124775000D01*
X111637500Y-124775000D02*
X111000000Y-124137500D01*
X115750000Y-124775000D02*
X111637500Y-124775000D01*
%TO.N,/TDO*%
X140235000Y-110875000D02*
X139103300Y-110875000D01*
X138563600Y-110875000D02*
X139103300Y-110875000D01*
X131028100Y-118410500D02*
X138563600Y-110875000D01*
X114888800Y-118410500D02*
X131028100Y-118410500D01*
X109860500Y-123438800D02*
X114888800Y-118410500D01*
X109860500Y-134630900D02*
X109860500Y-123438800D01*
X115327500Y-140097900D02*
X109860500Y-134630900D01*
X116648600Y-140097900D02*
X115327500Y-140097900D01*
X117250000Y-139496500D02*
X116648600Y-140097900D01*
X117250000Y-138662500D02*
X117250000Y-139496500D01*
%TO.N,/I{slash}O{slash}PD2*%
X142775000Y-93095000D02*
X142775000Y-94226700D01*
X142540500Y-94226700D02*
X142775000Y-94226700D01*
X141370500Y-95396700D02*
X142540500Y-94226700D01*
X141370500Y-96156200D02*
X141370500Y-95396700D01*
X140742400Y-96784300D02*
X141370500Y-96156200D01*
X133962200Y-96784300D02*
X140742400Y-96784300D01*
X129865400Y-92687500D02*
X133962200Y-96784300D01*
X124527000Y-92687500D02*
X129865400Y-92687500D01*
X122858900Y-94355600D02*
X124527000Y-92687500D01*
X117112000Y-94355600D02*
X122858900Y-94355600D01*
%TO.N,/TMS*%
X139844900Y-108335000D02*
X140183200Y-108335000D01*
X139844900Y-108335000D02*
X139454800Y-108335000D01*
X140235000Y-108335000D02*
X140183200Y-108335000D01*
X129761000Y-118028800D02*
X139454800Y-108335000D01*
X114723900Y-118028800D02*
X129761000Y-118028800D01*
X109404900Y-123347800D02*
X114723900Y-118028800D01*
X109404900Y-134715100D02*
X109404900Y-123347800D01*
X115169400Y-140479600D02*
X109404900Y-134715100D01*
X116814700Y-140479600D02*
X115169400Y-140479600D01*
X117750000Y-139544300D02*
X116814700Y-140479600D01*
X117750000Y-138662500D02*
X117750000Y-139544300D01*
X100040200Y-93700000D02*
X100040000Y-93700000D01*
X108928700Y-102588500D02*
X100040200Y-93700000D01*
X133992600Y-102588500D02*
X108928700Y-102588500D01*
X139454800Y-108050700D02*
X133992600Y-102588500D01*
X139454800Y-108335000D02*
X139454800Y-108050700D01*
%TO.N,/TDI*%
X142775000Y-110309100D02*
X142775000Y-109743300D01*
X98501700Y-84541700D02*
X97500000Y-83540000D01*
X102938500Y-84541700D02*
X98501700Y-84541700D01*
X103027900Y-84452300D02*
X102938500Y-84541700D01*
X103509700Y-84452300D02*
X103027900Y-84452300D01*
X113994700Y-94937300D02*
X103509700Y-84452300D01*
X128576800Y-94937300D02*
X113994700Y-94937300D01*
X138164500Y-104525000D02*
X128576800Y-94937300D01*
X140612300Y-104525000D02*
X138164500Y-104525000D01*
X141556700Y-105469400D02*
X140612300Y-104525000D01*
X141556700Y-106227500D02*
X141556700Y-105469400D01*
X142394200Y-107065000D02*
X141556700Y-106227500D01*
X143150900Y-107065000D02*
X142394200Y-107065000D01*
X143906700Y-107820800D02*
X143150900Y-107065000D01*
X143906700Y-108823900D02*
X143906700Y-107820800D01*
X142987300Y-109743300D02*
X143906700Y-108823900D01*
X142775000Y-109743300D02*
X142987300Y-109743300D01*
X142775000Y-110309100D02*
X142775000Y-110875000D01*
X142775000Y-110875000D02*
X141643300Y-110875000D01*
X141643300Y-111087200D02*
X141643300Y-110875000D01*
X135477000Y-117253500D02*
X141643300Y-111087200D01*
X132993500Y-117253500D02*
X135477000Y-117253500D01*
X128043600Y-122203400D02*
X132993500Y-117253500D01*
X111637800Y-122203400D02*
X128043600Y-122203400D01*
X110242200Y-123599000D02*
X111637800Y-122203400D01*
X110242200Y-134472800D02*
X110242200Y-123599000D01*
X115485600Y-139716200D02*
X110242200Y-134472800D01*
X116438600Y-139716200D02*
X115485600Y-139716200D01*
X116750000Y-139404800D02*
X116438600Y-139716200D01*
X116750000Y-138662500D02*
X116750000Y-139404800D01*
D32*
%TO.N,/JTAG-Interface/VBUS*%
X137681700Y-120600000D02*
X142070000Y-120600000D01*
X136831700Y-119750000D02*
X137681700Y-120600000D01*
X135900000Y-119750000D02*
X136831700Y-119750000D01*
D33*
%TO.N,B_A13*%
X129475600Y-91225400D02*
X129475600Y-91724100D01*
X128140200Y-89890000D02*
X129475600Y-91225400D01*
X117610900Y-89890000D02*
X128140200Y-89890000D01*
X108930100Y-81209200D02*
X117610900Y-89890000D01*
X108930100Y-80851200D02*
X108930100Y-81209200D01*
X107752400Y-79673500D02*
X108930100Y-80851200D01*
X107467200Y-79673500D02*
X107752400Y-79673500D01*
X106612100Y-78818400D02*
X107467200Y-79673500D01*
X106612100Y-78500700D02*
X106612100Y-78818400D01*
X91381400Y-63270000D02*
X106612100Y-78500700D01*
X80770000Y-63270000D02*
X91381400Y-63270000D01*
X79500000Y-62000000D02*
X80770000Y-63270000D01*
%TO.N,B_A14*%
X93004600Y-112079500D02*
X92804500Y-111879400D01*
X121003100Y-112079500D02*
X93004600Y-112079500D01*
X121072200Y-112010400D02*
X121003100Y-112079500D01*
X123821000Y-112010400D02*
X121072200Y-112010400D01*
X126438200Y-109393200D02*
X123821000Y-112010400D01*
X126438200Y-107398200D02*
X126438200Y-109393200D01*
X125440000Y-106400000D02*
X126438200Y-107398200D01*
%TO.N,B_A8*%
X125337300Y-96137300D02*
X116127400Y-96137300D01*
X125440000Y-96240000D02*
X125337300Y-96137300D01*
X113231000Y-114476800D02*
X114257400Y-115503200D01*
X91234400Y-114476800D02*
X113231000Y-114476800D01*
X86768800Y-118942400D02*
X91234400Y-114476800D01*
X84137400Y-118942400D02*
X86768800Y-118942400D01*
X83471100Y-118276100D02*
X84137400Y-118942400D01*
X83471100Y-116448900D02*
X83471100Y-118276100D01*
X84580000Y-115340000D02*
X83471100Y-116448900D01*
%TO.N,B_A6*%
X123171200Y-113155500D02*
X123379600Y-113363900D01*
X121546500Y-113155500D02*
X123171200Y-113155500D01*
X121477400Y-113224600D02*
X121546500Y-113155500D01*
X86973400Y-113224600D02*
X121477400Y-113224600D01*
X86530600Y-113667400D02*
X86973400Y-113224600D01*
%TO.N,B_A7*%
X84622900Y-112842900D02*
X84580000Y-112800000D01*
X121319300Y-112842900D02*
X84622900Y-112842900D01*
X121388400Y-112773800D02*
X121319300Y-112842900D01*
X125234600Y-112773800D02*
X121388400Y-112773800D01*
X126404000Y-111604400D02*
X125234600Y-112773800D01*
%TO.N,B_A12*%
X115334700Y-97100000D02*
X124612000Y-97100000D01*
X103268700Y-85034000D02*
X115334700Y-97100000D01*
%TO.N,B_A2*%
X78381600Y-121538400D02*
X79500000Y-120420000D01*
X78381600Y-123448600D02*
X78381600Y-121538400D01*
X78969100Y-124036100D02*
X78381600Y-123448600D01*
X86450400Y-124036100D02*
X78969100Y-124036100D01*
X94019800Y-116466700D02*
X86450400Y-124036100D01*
X129453900Y-116466700D02*
X94019800Y-116466700D01*
X138251000Y-107669600D02*
X129453900Y-116466700D01*
%TO.N,B_A10*%
X126881700Y-97681700D02*
X127980000Y-98780000D01*
X110008900Y-97681700D02*
X126881700Y-97681700D01*
X102267200Y-89940000D02*
X110008900Y-97681700D01*
X84580000Y-89940000D02*
X102267200Y-89940000D01*
%TO.N,B_A11*%
X126710000Y-100050000D02*
X127980000Y-101320000D01*
X111568600Y-100050000D02*
X126710000Y-100050000D01*
X104143000Y-92624400D02*
X111568600Y-100050000D01*
X94866700Y-92624400D02*
X104143000Y-92624400D01*
X93527800Y-93963300D02*
X94866700Y-92624400D01*
X84066200Y-93963300D02*
X93527800Y-93963300D01*
X83310000Y-94719500D02*
X84066200Y-93963300D01*
X83310000Y-95255000D02*
X83310000Y-94719500D01*
X82436100Y-96128900D02*
X83310000Y-95255000D01*
X81639700Y-96128900D02*
X82436100Y-96128900D01*
X80966300Y-95455500D02*
X81639700Y-96128900D01*
X80966300Y-94572100D02*
X80966300Y-95455500D01*
X81979300Y-93559100D02*
X80966300Y-94572100D01*
X83022300Y-93559100D02*
X81979300Y-93559100D01*
X84101400Y-92480000D02*
X83022300Y-93559100D01*
X84580000Y-92480000D02*
X84101400Y-92480000D01*
%TO.N,B_A1*%
X119144500Y-114095100D02*
X119336100Y-114286700D01*
X88364900Y-114095100D02*
X119144500Y-114095100D01*
X84580000Y-117880000D02*
X88364900Y-114095100D01*
%TO.N,B_A0*%
X86796900Y-122960000D02*
X84580000Y-122960000D01*
X93671900Y-116085000D02*
X86796900Y-122960000D01*
X122746200Y-116085000D02*
X93671900Y-116085000D01*
X128973000Y-109858200D02*
X122746200Y-116085000D01*
X128973000Y-105986500D02*
X128973000Y-109858200D01*
X127869400Y-104882900D02*
X128973000Y-105986500D01*
X124726600Y-104882900D02*
X127869400Y-104882900D01*
X123705000Y-103861300D02*
X124726600Y-104882900D01*
X119960900Y-103861300D02*
X123705000Y-103861300D01*
X119960900Y-103861200D02*
X119960900Y-103861300D01*
%TO.N,B_A4*%
X121622600Y-116943400D02*
X121941400Y-117262200D01*
X94120600Y-116943400D02*
X121622600Y-116943400D01*
X86633600Y-124430400D02*
X94120600Y-116943400D01*
X78720600Y-124430400D02*
X86633600Y-124430400D01*
X77982500Y-123692300D02*
X78720600Y-124430400D01*
X77982500Y-119397500D02*
X77982500Y-123692300D01*
X79500000Y-117880000D02*
X77982500Y-119397500D01*
X123700300Y-87600400D02*
X121998400Y-89302300D01*
X126960400Y-87600400D02*
X123700300Y-87600400D01*
X127980000Y-88620000D02*
X126960400Y-87600400D01*
%TO.N,B_A3*%
X90905300Y-112461200D02*
X90705200Y-112261100D01*
X121161200Y-112461200D02*
X90905300Y-112461200D01*
X121230300Y-112392100D02*
X121161200Y-112461200D01*
X124195400Y-112392100D02*
X121230300Y-112392100D01*
X127297300Y-109290200D02*
X124195400Y-112392100D01*
X128386400Y-109290200D02*
X127297300Y-109290200D01*
%TO.N,B_A9*%
X115441200Y-98780000D02*
X115417700Y-98756500D01*
X125440000Y-98780000D02*
X115441200Y-98780000D01*
X115403500Y-92381500D02*
X115612000Y-92173000D01*
X113150200Y-92381500D02*
X115403500Y-92381500D01*
X102850200Y-82081500D02*
X113150200Y-92381500D01*
X102240800Y-82081500D02*
X102850200Y-82081500D01*
X101032900Y-80873600D02*
X102240800Y-82081500D01*
X101032900Y-78048700D02*
X101032900Y-80873600D01*
X98954200Y-75970000D02*
X101032900Y-78048700D01*
X79270400Y-75970000D02*
X98954200Y-75970000D01*
X78407400Y-75107000D02*
X79270400Y-75970000D01*
X78407400Y-60552600D02*
X78407400Y-75107000D01*
X79500000Y-59460000D02*
X78407400Y-60552600D01*
%TO.N,B_A5*%
X121843300Y-113681300D02*
X121903700Y-113741700D01*
X87699100Y-113681300D02*
X121843300Y-113681300D01*
X87127300Y-114253100D02*
X87699100Y-113681300D01*
X80586900Y-114253100D02*
X87127300Y-114253100D01*
X79500000Y-115340000D02*
X80586900Y-114253100D01*
%TO.N,/GCLK1*%
X115280000Y-74877500D02*
X115280000Y-78460000D01*
X118750000Y-71407500D02*
X115280000Y-74877500D01*
D32*
%TO.N,+3.3V*%
X111137500Y-60010000D02*
X112319200Y-60010000D01*
X118750000Y-61942000D02*
X118750000Y-64975000D01*
X120700400Y-61942000D02*
X118750000Y-61942000D01*
X114251200Y-61942000D02*
X112319200Y-60010000D01*
X118750000Y-61942000D02*
X114251200Y-61942000D01*
X116750000Y-64975000D02*
X118750000Y-64975000D01*
X142775000Y-103255000D02*
X142775000Y-102073300D01*
X125105800Y-61705800D02*
X124000000Y-60600000D01*
X125105800Y-62714900D02*
X125105800Y-61705800D01*
X127297800Y-64906900D02*
X125105800Y-62714900D01*
X127805300Y-64906900D02*
X127297800Y-64906900D01*
X145133700Y-82235300D02*
X127805300Y-64906900D01*
X145133700Y-100083900D02*
X145133700Y-82235300D01*
X143144300Y-102073300D02*
X145133700Y-100083900D01*
X142775000Y-102073300D02*
X143144300Y-102073300D01*
%TO.N,GND*%
X127500000Y-130725000D02*
X127475000Y-130750000D01*
X127943900Y-130281100D02*
X127500000Y-130725000D01*
X128616900Y-130281100D02*
X127943900Y-130281100D01*
X130847400Y-60897400D02*
X130500000Y-60550000D01*
X131585200Y-60897400D02*
X130847400Y-60897400D01*
X120250000Y-131543200D02*
X120250000Y-130337500D01*
X120116300Y-131676900D02*
X120250000Y-131543200D01*
X122342500Y-135750000D02*
X123162500Y-135750000D01*
X121455200Y-136637300D02*
X122342500Y-135750000D01*
X119015100Y-60872400D02*
X119387500Y-60500000D01*
X118211600Y-60872400D02*
X119015100Y-60872400D01*
X116554700Y-63054700D02*
X116750000Y-63250000D01*
X115468300Y-63054700D02*
X116554700Y-63054700D01*
X125000000Y-127261200D02*
X125000000Y-125862500D01*
X125199400Y-127460600D02*
X125000000Y-127261200D01*
X111216300Y-125646200D02*
X111000000Y-125862500D01*
X113125400Y-125646200D02*
X111216300Y-125646200D01*
X142398200Y-83907500D02*
X143000000Y-83907500D01*
X142175100Y-83684400D02*
X142398200Y-83907500D01*
X107157500Y-127549000D02*
X107157500Y-126500000D01*
X107640900Y-128032400D02*
X107157500Y-127549000D01*
X101402000Y-124437500D02*
X101987500Y-124437500D01*
X100895700Y-124943800D02*
X101402000Y-124437500D01*
X126365600Y-61459400D02*
X126275000Y-61550000D01*
X127587400Y-61459400D02*
X126365600Y-61459400D01*
X119700000Y-63729600D02*
X119700000Y-64975000D01*
X119891000Y-63538600D02*
X119700000Y-63729600D01*
X121250000Y-131697400D02*
X121143000Y-131804400D01*
X121250000Y-130337500D02*
X121250000Y-131697400D01*
X116426000Y-132750000D02*
X116558100Y-132882100D01*
X114837500Y-132750000D02*
X116426000Y-132750000D01*
X139610500Y-83760500D02*
X139350000Y-83500000D01*
X140257100Y-83760500D02*
X139610500Y-83760500D01*
X146355900Y-127890900D02*
X144676200Y-127890900D01*
X146575000Y-128110000D02*
X146355900Y-127890900D01*
X142864100Y-127890900D02*
X142645000Y-128110000D01*
X144676200Y-127890900D02*
X142864100Y-127890900D01*
X141944400Y-126074400D02*
X142070000Y-126200000D01*
X140523800Y-126074400D02*
X141944400Y-126074400D01*
X141835600Y-119565600D02*
X142070000Y-119800000D01*
X140011600Y-119565600D02*
X141835600Y-119565600D01*
X115007200Y-137419700D02*
X114837500Y-137250000D01*
X115007200Y-138415200D02*
X115007200Y-137419700D01*
X128864600Y-129000000D02*
X128901900Y-129037300D01*
X127500000Y-129000000D02*
X128864600Y-129000000D01*
X142209700Y-117454700D02*
X140032000Y-117454700D01*
X142645000Y-117890000D02*
X142209700Y-117454700D01*
X139137800Y-117454700D02*
X140032000Y-117454700D01*
X139000000Y-117592500D02*
X139137800Y-117454700D01*
X139000000Y-130425400D02*
X139411000Y-130836400D01*
X139000000Y-128907500D02*
X139000000Y-130425400D01*
X91275900Y-73638400D02*
X91387500Y-73750000D01*
X90258400Y-73638400D02*
X91275900Y-73638400D01*
X119250000Y-136619100D02*
X119250000Y-138662500D01*
X119029800Y-136398900D02*
X119250000Y-136619100D01*
X147734600Y-119049600D02*
X146575000Y-117890000D01*
X148533000Y-119049600D02*
X147734600Y-119049600D01*
%TD*%
M02*
