%TF.GenerationSoftware,KiCad,Pcbnew,8.0.2*%
%TF.CreationDate,2024-06-15T19:42:01+02:00*%
%TF.ProjectId,interruptus,696e7465-7272-4757-9074-75732e6b6963,rev?*%
%TF.SameCoordinates,Original*%
%TF.FileFunction,Paste,Bot*%
%TF.FilePolarity,Positive*%
%FSLAX46Y46*%
G04 Gerber Fmt 4.6, Leading zero omitted, Abs format (unit mm)*
G04 Created by KiCad (PCBNEW 8.0.2) date 2024-06-15 19:42:01*
%MOMM*%
%LPD*%
G01*
G04 APERTURE LIST*
G04 Aperture macros list*
%AMRoundRect*
0 Rectangle with rounded corners*
0 $1 Rounding radius*
0 $2 $3 $4 $5 $6 $7 $8 $9 X,Y pos of 4 corners*
0 Add a 4 corners polygon primitive as box body*
4,1,4,$2,$3,$4,$5,$6,$7,$8,$9,$2,$3,0*
0 Add four circle primitives for the rounded corners*
1,1,$1+$1,$2,$3*
1,1,$1+$1,$4,$5*
1,1,$1+$1,$6,$7*
1,1,$1+$1,$8,$9*
0 Add four rect primitives between the rounded corners*
20,1,$1+$1,$2,$3,$4,$5,0*
20,1,$1+$1,$4,$5,$6,$7,0*
20,1,$1+$1,$6,$7,$8,$9,0*
20,1,$1+$1,$8,$9,$2,$3,0*%
G04 Aperture macros list end*
%ADD10RoundRect,0.237500X-0.237500X0.250000X-0.237500X-0.250000X0.237500X-0.250000X0.237500X0.250000X0*%
%ADD11RoundRect,0.237500X-0.250000X-0.237500X0.250000X-0.237500X0.250000X0.237500X-0.250000X0.237500X0*%
%ADD12RoundRect,0.237500X0.250000X0.237500X-0.250000X0.237500X-0.250000X-0.237500X0.250000X-0.237500X0*%
%ADD13RoundRect,0.237500X0.237500X-0.250000X0.237500X0.250000X-0.237500X0.250000X-0.237500X-0.250000X0*%
%ADD14RoundRect,0.150000X-0.150000X0.512500X-0.150000X-0.512500X0.150000X-0.512500X0.150000X0.512500X0*%
%ADD15RoundRect,0.150000X0.150000X-0.587500X0.150000X0.587500X-0.150000X0.587500X-0.150000X-0.587500X0*%
%ADD16RoundRect,0.150000X0.512500X0.150000X-0.512500X0.150000X-0.512500X-0.150000X0.512500X-0.150000X0*%
%ADD17RoundRect,0.237500X0.237500X-0.300000X0.237500X0.300000X-0.237500X0.300000X-0.237500X-0.300000X0*%
%ADD18R,2.500000X3.000000*%
%ADD19RoundRect,0.075000X0.662500X0.075000X-0.662500X0.075000X-0.662500X-0.075000X0.662500X-0.075000X0*%
%ADD20RoundRect,0.075000X0.075000X0.662500X-0.075000X0.662500X-0.075000X-0.662500X0.075000X-0.662500X0*%
%ADD21RoundRect,0.237500X0.300000X0.237500X-0.300000X0.237500X-0.300000X-0.237500X0.300000X-0.237500X0*%
%ADD22RoundRect,0.150000X0.150000X-0.512500X0.150000X0.512500X-0.150000X0.512500X-0.150000X-0.512500X0*%
%ADD23RoundRect,0.250000X-0.750000X0.840000X-0.750000X-0.840000X0.750000X-0.840000X0.750000X0.840000X0*%
%ADD24RoundRect,0.075000X-0.500000X0.075000X-0.500000X-0.075000X0.500000X-0.075000X0.500000X0.075000X0*%
%ADD25RoundRect,0.150000X-0.425000X0.150000X-0.425000X-0.150000X0.425000X-0.150000X0.425000X0.150000X0*%
%ADD26RoundRect,0.150000X-0.150000X0.825000X-0.150000X-0.825000X0.150000X-0.825000X0.150000X0.825000X0*%
G04 APERTURE END LIST*
D10*
%TO.C,R17*%
X148666200Y-130913500D03*
X148666200Y-132738500D03*
%TD*%
D11*
%TO.C,R16*%
X95837500Y-139750000D03*
X97662500Y-139750000D03*
%TD*%
D10*
%TO.C,R15*%
X95758000Y-134977500D03*
X95758000Y-136802500D03*
%TD*%
D11*
%TO.C,R14*%
X163525200Y-56311800D03*
X165350200Y-56311800D03*
%TD*%
D12*
%TO.C,R13*%
X166520500Y-51888000D03*
X164695500Y-51888000D03*
%TD*%
%TO.C,R12*%
X166520500Y-46888000D03*
X164695500Y-46888000D03*
%TD*%
D11*
%TO.C,R11*%
X138025500Y-128119500D03*
X139850500Y-128119500D03*
%TD*%
%TO.C,R10*%
X141835500Y-132588000D03*
X143660500Y-132588000D03*
%TD*%
%TO.C,R9*%
X161054100Y-133631000D03*
X159229100Y-133631000D03*
%TD*%
%TO.C,R8*%
X161054100Y-135551000D03*
X159229100Y-135551000D03*
%TD*%
D13*
%TO.C,R7*%
X162814000Y-139224500D03*
X162814000Y-137399500D03*
%TD*%
D10*
%TO.C,R6*%
X162839400Y-130100700D03*
X162839400Y-131925700D03*
%TD*%
%TO.C,R5*%
X118750000Y-70087500D03*
X118750000Y-71912500D03*
%TD*%
D12*
%TO.C,R4*%
X104036500Y-127762000D03*
X102211500Y-127762000D03*
%TD*%
D10*
%TO.C,R3*%
X144526000Y-82587500D03*
X144526000Y-84412500D03*
%TD*%
D11*
%TO.C,R2*%
X95658300Y-122555000D03*
X97483300Y-122555000D03*
%TD*%
D10*
%TO.C,R1*%
X140208000Y-77065500D03*
X140208000Y-78890500D03*
%TD*%
D14*
%TO.C,U2*%
X118750000Y-64975000D03*
X119700000Y-64975000D03*
X120650000Y-64975000D03*
X120650000Y-67250000D03*
X118750000Y-67250000D03*
%TD*%
D15*
%TO.C,Q1*%
X141250000Y-83500000D03*
X139350000Y-83500000D03*
X140300000Y-81625000D03*
%TD*%
D14*
%TO.C,U6*%
X88204000Y-135862500D03*
X89154000Y-135862500D03*
X90104000Y-135862500D03*
X90104000Y-138137500D03*
X88204000Y-138137500D03*
%TD*%
D16*
%TO.C,U3*%
X126105500Y-60264000D03*
X126105500Y-61214000D03*
X126105500Y-62164000D03*
X123830500Y-62164000D03*
X123830500Y-60264000D03*
%TD*%
D17*
%TO.C,C5*%
X126746000Y-124185000D03*
X126746000Y-122460000D03*
%TD*%
D18*
%TO.C,Y1*%
X130228000Y-123322500D03*
X136728000Y-123322500D03*
%TD*%
D17*
%TO.C,C3*%
X116000000Y-63862500D03*
X116000000Y-62137500D03*
%TD*%
D19*
%TO.C,U4*%
X137640500Y-131345500D03*
X137640500Y-131845500D03*
X137640500Y-132345500D03*
X137640500Y-132845500D03*
X137640500Y-133345500D03*
X137640500Y-133845500D03*
X137640500Y-134345500D03*
X137640500Y-134845500D03*
X137640500Y-135345500D03*
X137640500Y-135845500D03*
X137640500Y-136345500D03*
X137640500Y-136845500D03*
D20*
X136228000Y-138258000D03*
X135728000Y-138258000D03*
X135228000Y-138258000D03*
X134728000Y-138258000D03*
X134228000Y-138258000D03*
X133728000Y-138258000D03*
X133228000Y-138258000D03*
X132728000Y-138258000D03*
X132228000Y-138258000D03*
X131728000Y-138258000D03*
X131228000Y-138258000D03*
X130728000Y-138258000D03*
D19*
X129315500Y-136845500D03*
X129315500Y-136345500D03*
X129315500Y-135845500D03*
X129315500Y-135345500D03*
X129315500Y-134845500D03*
X129315500Y-134345500D03*
X129315500Y-133845500D03*
X129315500Y-133345500D03*
X129315500Y-132845500D03*
X129315500Y-132345500D03*
X129315500Y-131845500D03*
X129315500Y-131345500D03*
D20*
X130728000Y-129933000D03*
X131228000Y-129933000D03*
X131728000Y-129933000D03*
X132228000Y-129933000D03*
X132728000Y-129933000D03*
X133228000Y-129933000D03*
X133728000Y-129933000D03*
X134228000Y-129933000D03*
X134728000Y-129933000D03*
X135228000Y-129933000D03*
X135728000Y-129933000D03*
X136228000Y-129933000D03*
%TD*%
D21*
%TO.C,C1*%
X93112500Y-73750000D03*
X91387500Y-73750000D03*
%TD*%
%TO.C,C2*%
X130910500Y-60198000D03*
X129185500Y-60198000D03*
%TD*%
D17*
%TO.C,C6*%
X139446000Y-124185000D03*
X139446000Y-122460000D03*
%TD*%
D15*
%TO.C,Q2*%
X103887500Y-124437500D03*
X101987500Y-124437500D03*
X102937500Y-122562500D03*
%TD*%
D22*
%TO.C,U7*%
X164653000Y-126791300D03*
X163703000Y-126791300D03*
X162753000Y-126791300D03*
X162753000Y-124516300D03*
X164653000Y-124516300D03*
%TD*%
D23*
%TO.C,J3*%
X167187200Y-139707200D03*
X171117200Y-139707200D03*
X167187200Y-129487200D03*
X171117200Y-129487200D03*
D24*
X166612200Y-132847200D03*
X166612200Y-133847200D03*
X166612200Y-135347200D03*
X166612200Y-136347200D03*
D25*
X166612200Y-136997200D03*
X166612200Y-137797200D03*
D24*
X166612200Y-135847200D03*
X166612200Y-134847200D03*
X166612200Y-134347200D03*
X166612200Y-133347200D03*
D25*
X166612200Y-132197200D03*
X166612200Y-131397200D03*
%TD*%
D21*
%TO.C,C7*%
X143610500Y-129643500D03*
X141885500Y-129643500D03*
%TD*%
%TO.C,C8*%
X143610500Y-127357500D03*
X141885500Y-127357500D03*
%TD*%
D26*
%TO.C,U5*%
X101345000Y-134775000D03*
X102615000Y-134775000D03*
X103885000Y-134775000D03*
X105155000Y-134775000D03*
X105155000Y-139725000D03*
X103885000Y-139725000D03*
X102615000Y-139725000D03*
X101345000Y-139725000D03*
%TD*%
D21*
%TO.C,C4*%
X120496500Y-60198000D03*
X118771500Y-60198000D03*
%TD*%
M02*
