%TF.GenerationSoftware,KiCad,Pcbnew,8.0.2*%
%TF.CreationDate,2024-06-15T19:42:01+02:00*%
%TF.ProjectId,interruptus,696e7465-7272-4757-9074-75732e6b6963,rev?*%
%TF.SameCoordinates,Original*%
%TF.FileFunction,Soldermask,Top*%
%TF.FilePolarity,Negative*%
%FSLAX46Y46*%
G04 Gerber Fmt 4.6, Leading zero omitted, Abs format (unit mm)*
G04 Created by KiCad (PCBNEW 8.0.2) date 2024-06-15 19:42:01*
%MOMM*%
%LPD*%
G01*
G04 APERTURE LIST*
G04 Aperture macros list*
%AMRoundRect*
0 Rectangle with rounded corners*
0 $1 Rounding radius*
0 $2 $3 $4 $5 $6 $7 $8 $9 X,Y pos of 4 corners*
0 Add a 4 corners polygon primitive as box body*
4,1,4,$2,$3,$4,$5,$6,$7,$8,$9,$2,$3,0*
0 Add four circle primitives for the rounded corners*
1,1,$1+$1,$2,$3*
1,1,$1+$1,$4,$5*
1,1,$1+$1,$6,$7*
1,1,$1+$1,$8,$9*
0 Add four rect primitives between the rounded corners*
20,1,$1+$1,$2,$3,$4,$5,0*
20,1,$1+$1,$4,$5,$6,$7,0*
20,1,$1+$1,$6,$7,$8,$9,0*
20,1,$1+$1,$8,$9,$2,$3,0*%
G04 Aperture macros list end*
%ADD10RoundRect,0.237500X0.287500X0.237500X-0.287500X0.237500X-0.287500X-0.237500X0.287500X-0.237500X0*%
%ADD11R,1.700000X1.700000*%
%ADD12O,1.700000X1.700000*%
%ADD13R,1.422400X1.422400*%
%ADD14C,1.422400*%
%ADD15C,2.850000*%
%ADD16RoundRect,0.249999X0.525001X-0.525001X0.525001X0.525001X-0.525001X0.525001X-0.525001X-0.525001X0*%
%ADD17C,1.550000*%
%ADD18C,0.650000*%
G04 APERTURE END LIST*
D10*
%TO.C,D2*%
X169813000Y-51993800D03*
X171563000Y-51993800D03*
%TD*%
%TO.C,D1*%
X169813000Y-46939200D03*
X171563000Y-46939200D03*
%TD*%
D11*
%TO.C,J4*%
X165608000Y-69850000D03*
D12*
X168148000Y-69850000D03*
X165608000Y-72390000D03*
X168148000Y-72390000D03*
X165608000Y-74930000D03*
X168148000Y-74930000D03*
X165608000Y-77470000D03*
X168148000Y-77470000D03*
X165608000Y-80010000D03*
X168148000Y-80010000D03*
X165608000Y-82550000D03*
X168148000Y-82550000D03*
X165608000Y-85090000D03*
X168148000Y-85090000D03*
X165608000Y-87630000D03*
X168148000Y-87630000D03*
X165608000Y-90170000D03*
X168148000Y-90170000D03*
X165608000Y-92710000D03*
X168148000Y-92710000D03*
X165608000Y-95250000D03*
X168148000Y-95250000D03*
X165608000Y-97790000D03*
X168148000Y-97790000D03*
X165608000Y-100330000D03*
X168148000Y-100330000D03*
X165608000Y-102870000D03*
X168148000Y-102870000D03*
X165608000Y-105410000D03*
X168148000Y-105410000D03*
X165608000Y-107950000D03*
X168148000Y-107950000D03*
X165608000Y-110490000D03*
X168148000Y-110490000D03*
X165608000Y-113030000D03*
X168148000Y-113030000D03*
X165608000Y-115570000D03*
X168148000Y-115570000D03*
X165608000Y-118110000D03*
X168148000Y-118110000D03*
%TD*%
D10*
%TO.C,D3*%
X169813000Y-56235600D03*
X171563000Y-56235600D03*
%TD*%
D13*
%TO.C,U1*%
X112740000Y-78460000D03*
D14*
X112740000Y-81000000D03*
X110200000Y-78460000D03*
X110200000Y-81000000D03*
X107660000Y-78460000D03*
X107660000Y-81000000D03*
X105120000Y-78460000D03*
X105120000Y-81000000D03*
X102580000Y-78460000D03*
X102580000Y-81000000D03*
X100040000Y-78460000D03*
X97500000Y-81000000D03*
X100040000Y-81000000D03*
X97500000Y-83540000D03*
X100040000Y-83540000D03*
X97500000Y-86080000D03*
X100040000Y-86080000D03*
X97500000Y-88620000D03*
X100040000Y-88620000D03*
X97500000Y-91160000D03*
X100040000Y-91160000D03*
X97500000Y-93700000D03*
X100040000Y-93700000D03*
X97500000Y-96240000D03*
X100040000Y-96240000D03*
X97500000Y-98780000D03*
X100040000Y-98780000D03*
X97500000Y-101320000D03*
X100040000Y-101320000D03*
X97500000Y-103860000D03*
X100040000Y-103860000D03*
X97500000Y-106400000D03*
X100040000Y-108940000D03*
X100040000Y-106400000D03*
X102580000Y-108940000D03*
X102580000Y-106400000D03*
X105120000Y-108940000D03*
X105120000Y-106400000D03*
X107660000Y-108940000D03*
X107660000Y-106400000D03*
X110200000Y-108940000D03*
X110200000Y-106400000D03*
X112740000Y-108940000D03*
X112740000Y-106400000D03*
X115280000Y-108940000D03*
X115280000Y-106400000D03*
X117820000Y-108940000D03*
X117820000Y-106400000D03*
X120360000Y-108940000D03*
X120360000Y-106400000D03*
X122900000Y-108940000D03*
X122900000Y-106400000D03*
X125440000Y-108940000D03*
X127980000Y-106400000D03*
X125440000Y-106400000D03*
X127980000Y-103860000D03*
X125440000Y-103860000D03*
X127980000Y-101320000D03*
X125440000Y-101320000D03*
X127980000Y-98780000D03*
X125440000Y-98780000D03*
X127980000Y-96240000D03*
X125440000Y-96240000D03*
X127980000Y-93700000D03*
X125440000Y-93700000D03*
X127980000Y-91160000D03*
X125440000Y-91160000D03*
X127980000Y-88620000D03*
X125440000Y-88620000D03*
X127980000Y-86080000D03*
X125440000Y-86080000D03*
X127980000Y-83540000D03*
X125440000Y-83540000D03*
X127980000Y-81000000D03*
X125440000Y-78460000D03*
X125440000Y-81000000D03*
X122900000Y-78460000D03*
X122900000Y-81000000D03*
X120360000Y-78460000D03*
X120360000Y-81000000D03*
X117820000Y-78460000D03*
X117820000Y-81000000D03*
X115280000Y-78460000D03*
X115280000Y-81000000D03*
%TD*%
D15*
%TO.C,P1*%
X76960000Y-138200000D03*
X76960000Y-49300000D03*
D16*
X79500000Y-133120000D03*
D17*
X79500000Y-130580000D03*
X79500000Y-128040000D03*
X79500000Y-125500000D03*
X79500000Y-122960000D03*
X79500000Y-120420000D03*
X79500000Y-117880000D03*
X79500000Y-115340000D03*
X79500000Y-112800000D03*
X79500000Y-110260000D03*
X79500000Y-107720000D03*
X79500000Y-105180000D03*
X79500000Y-102640000D03*
X79500000Y-100100000D03*
X79500000Y-97560000D03*
X79500000Y-95020000D03*
X79500000Y-92480000D03*
X79500000Y-89940000D03*
X79500000Y-87400000D03*
X79500000Y-84860000D03*
X79500000Y-82320000D03*
X79500000Y-79780000D03*
X79500000Y-77240000D03*
X79500000Y-74700000D03*
X79500000Y-72160000D03*
X79500000Y-69620000D03*
X79500000Y-67080000D03*
X79500000Y-64540000D03*
X79500000Y-62000000D03*
X79500000Y-59460000D03*
X79500000Y-56920000D03*
X79500000Y-54380000D03*
X82040000Y-133120000D03*
X82040000Y-130580000D03*
X82040000Y-128040000D03*
X82040000Y-125500000D03*
X82040000Y-122960000D03*
X82040000Y-120420000D03*
X82040000Y-117880000D03*
X82040000Y-115340000D03*
X82040000Y-112800000D03*
X82040000Y-110260000D03*
X82040000Y-107720000D03*
X82040000Y-105180000D03*
X82040000Y-102640000D03*
X82040000Y-100100000D03*
X82040000Y-97560000D03*
X82040000Y-95020000D03*
X82040000Y-92480000D03*
X82040000Y-89940000D03*
X82040000Y-87400000D03*
X82040000Y-84860000D03*
X82040000Y-82320000D03*
X82040000Y-79780000D03*
X82040000Y-77240000D03*
X82040000Y-74700000D03*
X82040000Y-72160000D03*
X82040000Y-69620000D03*
X82040000Y-67080000D03*
X82040000Y-64540000D03*
X82040000Y-62000000D03*
X82040000Y-59460000D03*
X82040000Y-56920000D03*
X82040000Y-54380000D03*
X84580000Y-133120000D03*
X84580000Y-130580000D03*
X84580000Y-128040000D03*
X84580000Y-125500000D03*
X84580000Y-122960000D03*
X84580000Y-120420000D03*
X84580000Y-117880000D03*
X84580000Y-115340000D03*
X84580000Y-112800000D03*
X84580000Y-110260000D03*
X84580000Y-107720000D03*
X84580000Y-105180000D03*
X84580000Y-102640000D03*
X84580000Y-100100000D03*
X84580000Y-97560000D03*
X84580000Y-95020000D03*
X84580000Y-92480000D03*
X84580000Y-89940000D03*
X84580000Y-87400000D03*
X84580000Y-84860000D03*
X84580000Y-82320000D03*
X84580000Y-79780000D03*
X84580000Y-77240000D03*
X84580000Y-74700000D03*
X84580000Y-72160000D03*
X84580000Y-69620000D03*
X84580000Y-67080000D03*
X84580000Y-64540000D03*
X84580000Y-62000000D03*
X84580000Y-59460000D03*
X84580000Y-56920000D03*
X84580000Y-54380000D03*
%TD*%
D11*
%TO.C,J1*%
X111137500Y-60010000D03*
D12*
X111137500Y-62550000D03*
X111137500Y-65090000D03*
%TD*%
D18*
%TO.C,J3*%
X167687200Y-137487200D03*
X167687200Y-131707200D03*
%TD*%
M02*
