%TF.GenerationSoftware,KiCad,Pcbnew,8.0.2*%
%TF.CreationDate,2024-06-15T19:42:01+02:00*%
%TF.ProjectId,interruptus,696e7465-7272-4757-9074-75732e6b6963,rev?*%
%TF.SameCoordinates,Original*%
%TF.FileFunction,Copper,L4,Bot*%
%TF.FilePolarity,Positive*%
%FSLAX46Y46*%
G04 Gerber Fmt 4.6, Leading zero omitted, Abs format (unit mm)*
G04 Created by KiCad (PCBNEW 8.0.2) date 2024-06-15 19:42:01*
%MOMM*%
%LPD*%
G01*
G04 APERTURE LIST*
G04 Aperture macros list*
%AMRoundRect*
0 Rectangle with rounded corners*
0 $1 Rounding radius*
0 $2 $3 $4 $5 $6 $7 $8 $9 X,Y pos of 4 corners*
0 Add a 4 corners polygon primitive as box body*
4,1,4,$2,$3,$4,$5,$6,$7,$8,$9,$2,$3,0*
0 Add four circle primitives for the rounded corners*
1,1,$1+$1,$2,$3*
1,1,$1+$1,$4,$5*
1,1,$1+$1,$6,$7*
1,1,$1+$1,$8,$9*
0 Add four rect primitives between the rounded corners*
20,1,$1+$1,$2,$3,$4,$5,0*
20,1,$1+$1,$4,$5,$6,$7,0*
20,1,$1+$1,$6,$7,$8,$9,0*
20,1,$1+$1,$8,$9,$2,$3,0*%
G04 Aperture macros list end*
%TA.AperFunction,SMDPad,CuDef*%
%ADD10RoundRect,0.237500X-0.237500X0.250000X-0.237500X-0.250000X0.237500X-0.250000X0.237500X0.250000X0*%
%TD*%
%TA.AperFunction,SMDPad,CuDef*%
%ADD11RoundRect,0.237500X-0.250000X-0.237500X0.250000X-0.237500X0.250000X0.237500X-0.250000X0.237500X0*%
%TD*%
%TA.AperFunction,SMDPad,CuDef*%
%ADD12RoundRect,0.237500X0.250000X0.237500X-0.250000X0.237500X-0.250000X-0.237500X0.250000X-0.237500X0*%
%TD*%
%TA.AperFunction,SMDPad,CuDef*%
%ADD13RoundRect,0.237500X0.237500X-0.250000X0.237500X0.250000X-0.237500X0.250000X-0.237500X-0.250000X0*%
%TD*%
%TA.AperFunction,ComponentPad*%
%ADD14R,1.700000X1.700000*%
%TD*%
%TA.AperFunction,ComponentPad*%
%ADD15O,1.700000X1.700000*%
%TD*%
%TA.AperFunction,ComponentPad*%
%ADD16R,1.422400X1.422400*%
%TD*%
%TA.AperFunction,ComponentPad*%
%ADD17C,1.422400*%
%TD*%
%TA.AperFunction,ComponentPad*%
%ADD18RoundRect,0.249999X0.525001X-0.525001X0.525001X0.525001X-0.525001X0.525001X-0.525001X-0.525001X0*%
%TD*%
%TA.AperFunction,ComponentPad*%
%ADD19C,1.550000*%
%TD*%
%TA.AperFunction,SMDPad,CuDef*%
%ADD20RoundRect,0.150000X-0.150000X0.512500X-0.150000X-0.512500X0.150000X-0.512500X0.150000X0.512500X0*%
%TD*%
%TA.AperFunction,SMDPad,CuDef*%
%ADD21RoundRect,0.150000X0.150000X-0.587500X0.150000X0.587500X-0.150000X0.587500X-0.150000X-0.587500X0*%
%TD*%
%TA.AperFunction,SMDPad,CuDef*%
%ADD22RoundRect,0.150000X0.512500X0.150000X-0.512500X0.150000X-0.512500X-0.150000X0.512500X-0.150000X0*%
%TD*%
%TA.AperFunction,SMDPad,CuDef*%
%ADD23RoundRect,0.237500X0.237500X-0.300000X0.237500X0.300000X-0.237500X0.300000X-0.237500X-0.300000X0*%
%TD*%
%TA.AperFunction,SMDPad,CuDef*%
%ADD24R,2.500000X3.000000*%
%TD*%
%TA.AperFunction,SMDPad,CuDef*%
%ADD25RoundRect,0.075000X0.662500X0.075000X-0.662500X0.075000X-0.662500X-0.075000X0.662500X-0.075000X0*%
%TD*%
%TA.AperFunction,SMDPad,CuDef*%
%ADD26RoundRect,0.075000X0.075000X0.662500X-0.075000X0.662500X-0.075000X-0.662500X0.075000X-0.662500X0*%
%TD*%
%TA.AperFunction,SMDPad,CuDef*%
%ADD27RoundRect,0.237500X0.300000X0.237500X-0.300000X0.237500X-0.300000X-0.237500X0.300000X-0.237500X0*%
%TD*%
%TA.AperFunction,SMDPad,CuDef*%
%ADD28RoundRect,0.150000X0.150000X-0.512500X0.150000X0.512500X-0.150000X0.512500X-0.150000X-0.512500X0*%
%TD*%
%TA.AperFunction,SMDPad,CuDef*%
%ADD29RoundRect,0.250000X-0.750000X0.840000X-0.750000X-0.840000X0.750000X-0.840000X0.750000X0.840000X0*%
%TD*%
%TA.AperFunction,SMDPad,CuDef*%
%ADD30RoundRect,0.075000X-0.500000X0.075000X-0.500000X-0.075000X0.500000X-0.075000X0.500000X0.075000X0*%
%TD*%
%TA.AperFunction,SMDPad,CuDef*%
%ADD31RoundRect,0.150000X-0.425000X0.150000X-0.425000X-0.150000X0.425000X-0.150000X0.425000X0.150000X0*%
%TD*%
%TA.AperFunction,SMDPad,CuDef*%
%ADD32RoundRect,0.150000X-0.150000X0.825000X-0.150000X-0.825000X0.150000X-0.825000X0.150000X0.825000X0*%
%TD*%
%TA.AperFunction,ViaPad*%
%ADD33C,0.600000*%
%TD*%
%TA.AperFunction,Conductor*%
%ADD34C,0.300000*%
%TD*%
%TA.AperFunction,Conductor*%
%ADD35C,0.200000*%
%TD*%
G04 APERTURE END LIST*
D10*
%TO.P,R17,1*%
%TO.N,+5V*%
X148666200Y-130913500D03*
%TO.P,R17,2*%
%TO.N,Net-(U4-~{RESET})*%
X148666200Y-132738500D03*
%TD*%
D11*
%TO.P,R16,1*%
%TO.N,Net-(U5-DO)*%
X95837500Y-139750000D03*
%TO.P,R16,2*%
%TO.N,+5V*%
X97662500Y-139750000D03*
%TD*%
D10*
%TO.P,R15,1*%
%TO.N,Net-(U4-EEDATA)*%
X95758000Y-134977500D03*
%TO.P,R15,2*%
%TO.N,Net-(U5-DO)*%
X95758000Y-136802500D03*
%TD*%
D11*
%TO.P,R14,1*%
%TO.N,/I{slash}O{slash}GCLK3*%
X163525200Y-56311800D03*
%TO.P,R14,2*%
%TO.N,Net-(D3-A)*%
X165350200Y-56311800D03*
%TD*%
D12*
%TO.P,R13,1*%
%TO.N,/I{slash}O{slash}PD1*%
X166520500Y-51888000D03*
%TO.P,R13,2*%
%TO.N,Net-(D2-A)*%
X164695500Y-51888000D03*
%TD*%
%TO.P,R12,1*%
%TO.N,/I{slash}O{slash}PD2*%
X166520500Y-46888000D03*
%TO.P,R12,2*%
%TO.N,Net-(D1-A)*%
X164695500Y-46888000D03*
%TD*%
D11*
%TO.P,R11,1*%
%TO.N,+5V*%
X138025500Y-128119500D03*
%TO.P,R11,2*%
%TO.N,Net-(U4-AVCC)*%
X139850500Y-128119500D03*
%TD*%
%TO.P,R10,1*%
%TO.N,Net-(U4-~{RSTOUT})*%
X141835500Y-132588000D03*
%TO.P,R10,2*%
%TO.N,/JTAG-Interface/FTDI_USB_DATA+*%
X143660500Y-132588000D03*
%TD*%
%TO.P,R9,2*%
%TO.N,/JTAG-Interface/USB_DATA+*%
X161054100Y-133631000D03*
%TO.P,R9,1*%
%TO.N,/JTAG-Interface/FTDI_USB_DATA+*%
X159229100Y-133631000D03*
%TD*%
%TO.P,R8,2*%
%TO.N,/JTAG-Interface/USB_DATA-*%
X161054100Y-135551000D03*
%TO.P,R8,1*%
%TO.N,/JTAG-Interface/FTDI_USB_DATA-*%
X159229100Y-135551000D03*
%TD*%
D13*
%TO.P,R7,1*%
%TO.N,GND*%
X162814000Y-139224500D03*
%TO.P,R7,2*%
%TO.N,Net-(J3-CC2)*%
X162814000Y-137399500D03*
%TD*%
D10*
%TO.P,R6,1*%
%TO.N,GND*%
X162839400Y-130100700D03*
%TO.P,R6,2*%
%TO.N,Net-(J3-CC1)*%
X162839400Y-131925700D03*
%TD*%
%TO.P,R5,1*%
%TO.N,Net-(U2-OUT)*%
X118750000Y-70087500D03*
%TO.P,R5,2*%
%TO.N,/GCLK1*%
X118750000Y-71912500D03*
%TD*%
D12*
%TO.P,R4,1*%
%TO.N,/RESET_FTDI*%
X104036500Y-127762000D03*
%TO.P,R4,2*%
%TO.N,GND*%
X102211500Y-127762000D03*
%TD*%
D10*
%TO.P,R3,1*%
%TO.N,/GCLR_FTDI*%
X144526000Y-82587500D03*
%TO.P,R3,2*%
%TO.N,GND*%
X144526000Y-84412500D03*
%TD*%
D11*
%TO.P,R2,1*%
%TO.N,+5V*%
X95658300Y-122555000D03*
%TO.P,R2,2*%
%TO.N,/B_{slash}RESET*%
X97483300Y-122555000D03*
%TD*%
D10*
%TO.P,R1,1*%
%TO.N,+5V*%
X140208000Y-77065500D03*
%TO.P,R1,2*%
%TO.N,/I{slash}GCLR*%
X140208000Y-78890500D03*
%TD*%
D14*
%TO.P,J4,1,Pin_1*%
%TO.N,+3.3V*%
X165608000Y-69850000D03*
D15*
%TO.P,J4,2,Pin_2*%
%TO.N,GND*%
X168148000Y-69850000D03*
%TO.P,J4,3,Pin_3*%
%TO.N,+5V*%
X165608000Y-72390000D03*
%TO.P,J4,4,Pin_4*%
%TO.N,B_A0*%
X168148000Y-72390000D03*
%TO.P,J4,5,Pin_5*%
%TO.N,B_A1*%
X165608000Y-74930000D03*
%TO.P,J4,6,Pin_6*%
%TO.N,B_A2*%
X168148000Y-74930000D03*
%TO.P,J4,7,Pin_7*%
%TO.N,B_A3*%
X165608000Y-77470000D03*
%TO.P,J4,8,Pin_8*%
%TO.N,B_A4*%
X168148000Y-77470000D03*
%TO.P,J4,9,Pin_9*%
%TO.N,B_A5*%
X165608000Y-80010000D03*
%TO.P,J4,10,Pin_10*%
%TO.N,B_A6*%
X168148000Y-80010000D03*
%TO.P,J4,11,Pin_11*%
%TO.N,B_A7*%
X165608000Y-82550000D03*
%TO.P,J4,12,Pin_12*%
%TO.N,B_A8*%
X168148000Y-82550000D03*
%TO.P,J4,13,Pin_13*%
%TO.N,B_D0*%
X165608000Y-85090000D03*
%TO.P,J4,14,Pin_14*%
%TO.N,B_D1*%
X168148000Y-85090000D03*
%TO.P,J4,15,Pin_15*%
%TO.N,B_D2*%
X165608000Y-87630000D03*
%TO.P,J4,16,Pin_16*%
%TO.N,B_D3*%
X168148000Y-87630000D03*
%TO.P,J4,17,Pin_17*%
%TO.N,B_D4*%
X165608000Y-90170000D03*
%TO.P,J4,18,Pin_18*%
%TO.N,B_D5*%
X168148000Y-90170000D03*
%TO.P,J4,19,Pin_19*%
%TO.N,B_D6*%
X165608000Y-92710000D03*
%TO.P,J4,20,Pin_20*%
%TO.N,B_D7*%
X168148000Y-92710000D03*
%TO.P,J4,21,Pin_21*%
%TO.N,/B_{slash}WR*%
X165608000Y-95250000D03*
%TO.P,J4,22,Pin_22*%
%TO.N,/B_{slash}RD*%
X168148000Y-95250000D03*
%TO.P,J4,23,Pin_23*%
%TO.N,/B_{slash}IRQ0*%
X165608000Y-97790000D03*
%TO.P,J4,24,Pin_24*%
%TO.N,/B_{slash}IRQ1*%
X168148000Y-97790000D03*
%TO.P,J4,25,Pin_25*%
%TO.N,/B_{slash}IRQ2*%
X165608000Y-100330000D03*
%TO.P,J4,26,Pin_26*%
%TO.N,/B_{slash}IRQ3*%
X168148000Y-100330000D03*
%TO.P,J4,27,Pin_27*%
%TO.N,/B_{slash}IRQ4*%
X165608000Y-102870000D03*
%TO.P,J4,28,Pin_28*%
%TO.N,/I{slash}OE1*%
X168148000Y-102870000D03*
%TO.P,J4,29,Pin_29*%
%TO.N,/I{slash}GCLR*%
X165608000Y-105410000D03*
%TO.P,J4,30,Pin_30*%
%TO.N,/I{slash}O{slash}GCLK3*%
X168148000Y-105410000D03*
%TO.P,J4,31,Pin_31*%
%TO.N,/I{slash}OE2{slash}GCLK2*%
X165608000Y-107950000D03*
%TO.P,J4,32,Pin_32*%
%TO.N,/I{slash}O{slash}PD2*%
X168148000Y-107950000D03*
%TO.P,J4,33,Pin_33*%
%TO.N,/I{slash}O{slash}PD1*%
X165608000Y-110490000D03*
%TO.P,J4,34,Pin_34*%
%TO.N,/TDI*%
X168148000Y-110490000D03*
%TO.P,J4,35,Pin_35*%
%TO.N,/TDO*%
X165608000Y-113030000D03*
%TO.P,J4,36,Pin_36*%
%TO.N,/TCK*%
X168148000Y-113030000D03*
%TO.P,J4,37,Pin_37*%
%TO.N,/TMS*%
X165608000Y-115570000D03*
%TO.P,J4,38,Pin_38*%
%TO.N,GND*%
X168148000Y-115570000D03*
%TO.P,J4,39,Pin_39*%
%TO.N,B_VCC*%
X165608000Y-118110000D03*
%TO.P,J4,40,Pin_40*%
%TO.N,GND*%
X168148000Y-118110000D03*
%TD*%
D16*
%TO.P,U1,1,INPUT/GCLR*%
%TO.N,/I{slash}GCLR*%
X112740000Y-78460000D03*
D17*
%TO.P,U1,2,INPUT/OE2/GCLK2*%
%TO.N,/I{slash}OE2{slash}GCLK2*%
X112740000Y-81000000D03*
%TO.P,U1,3,VCCINT_1*%
%TO.N,+5V*%
X110200000Y-78460000D03*
%TO.P,U1,4,I/O_1*%
%TO.N,B_D5*%
X110200000Y-81000000D03*
%TO.P,U1,5,I/O_2*%
%TO.N,B_D6*%
X107660000Y-78460000D03*
%TO.P,U1,6,I/O_3*%
%TO.N,B_D7*%
X107660000Y-81000000D03*
%TO.P,U1,7,GND_1*%
%TO.N,GND*%
X105120000Y-78460000D03*
%TO.P,U1,8,I/O_4*%
%TO.N,B_D8*%
X105120000Y-81000000D03*
%TO.P,U1,9,I/O_5*%
%TO.N,B_D9*%
X102580000Y-78460000D03*
%TO.P,U1,10,I/O_6*%
%TO.N,B_D10*%
X102580000Y-81000000D03*
%TO.P,U1,11,I/O_7*%
%TO.N,B_D11*%
X100040000Y-78460000D03*
%TO.P,U1,12,I/O/PD1*%
%TO.N,/I{slash}O{slash}PD1*%
X97500000Y-81000000D03*
%TO.P,U1,13,VCCIO_1*%
%TO.N,+5V*%
X100040000Y-81000000D03*
%TO.P,U1,14,I/O/TDI*%
%TO.N,/TDI*%
X97500000Y-83540000D03*
%TO.P,U1,15,I/O_8*%
%TO.N,/B_{slash}IRQ0*%
X100040000Y-83540000D03*
%TO.P,U1,16,I/O_9*%
%TO.N,/B_{slash}IRQ1*%
X97500000Y-86080000D03*
%TO.P,U1,17,I/O_10*%
%TO.N,/B_{slash}IRQ2*%
X100040000Y-86080000D03*
%TO.P,U1,18,I/O_11*%
%TO.N,/B_{slash}IRQ3*%
X97500000Y-88620000D03*
%TO.P,U1,19,GND_2*%
%TO.N,GND*%
X100040000Y-88620000D03*
%TO.P,U1,20,I/O_12*%
%TO.N,/B_{slash}IRQ4*%
X97500000Y-91160000D03*
%TO.P,U1,21,I/O_13*%
%TO.N,/B_{slash}IRQ5*%
X100040000Y-91160000D03*
%TO.P,U1,22,I/O_14*%
%TO.N,/B_{slash}IRQ6*%
X97500000Y-93700000D03*
%TO.P,U1,23,I/O/TMS*%
%TO.N,/TMS*%
X100040000Y-93700000D03*
%TO.P,U1,24,I/O_15*%
%TO.N,/B_{slash}IRQ7*%
X97500000Y-96240000D03*
%TO.P,U1,25,I/O_16*%
%TO.N,/B_{slash}M1*%
X100040000Y-96240000D03*
%TO.P,U1,26,VCCIO_2*%
%TO.N,+5V*%
X97500000Y-98780000D03*
%TO.P,U1,27,I/O_17*%
%TO.N,/B_{slash}INT*%
X100040000Y-98780000D03*
%TO.P,U1,28,I/O_18*%
%TO.N,/B_{slash}WR*%
X97500000Y-101320000D03*
%TO.P,U1,29,I/O_19*%
%TO.N,/B_{slash}RD*%
X100040000Y-101320000D03*
%TO.P,U1,30,I/O_20*%
%TO.N,/B_{slash}INTA*%
X97500000Y-103860000D03*
%TO.P,U1,31,I/O_21*%
%TO.N,/B_{slash}DREQ*%
X100040000Y-103860000D03*
%TO.P,U1,32,GND_3*%
%TO.N,GND*%
X97500000Y-106400000D03*
%TO.P,U1,33,I/O_22*%
%TO.N,/B_{slash}RESOUT*%
X100040000Y-108940000D03*
%TO.P,U1,34,I/O_23*%
%TO.N,/B_{slash}IORQ*%
X100040000Y-106400000D03*
%TO.P,U1,35,I/O_24*%
%TO.N,/B_{slash}RESET*%
X102580000Y-108940000D03*
%TO.P,U1,36,I/O_25*%
%TO.N,B_D13*%
X102580000Y-106400000D03*
%TO.P,U1,37,I/O_26*%
%TO.N,B_D14*%
X105120000Y-108940000D03*
%TO.P,U1,38,VCCIO_3*%
%TO.N,+5V*%
X105120000Y-106400000D03*
%TO.P,U1,39,I/O_27*%
%TO.N,B_D15*%
X107660000Y-108940000D03*
%TO.P,U1,40,I/O_28*%
%TO.N,B_ {slash} SXTAK*%
X107660000Y-106400000D03*
%TO.P,U1,41,I/O_29*%
%TO.N,B_ {slash} SXTRQ*%
X110200000Y-108940000D03*
%TO.P,U1,42,GND_4*%
%TO.N,GND*%
X110200000Y-106400000D03*
%TO.P,U1,43,VCCINT_2*%
%TO.N,+5V*%
X112740000Y-108940000D03*
%TO.P,U1,44,I/O_30*%
%TO.N,B_D12*%
X112740000Y-106400000D03*
%TO.P,U1,45,I/O/PD2*%
%TO.N,/I{slash}O{slash}PD2*%
X115280000Y-108940000D03*
%TO.P,U1,46,I/O_31*%
%TO.N,B_ {slash} DS0*%
X115280000Y-106400000D03*
%TO.P,U1,47,GND_5*%
%TO.N,GND*%
X117820000Y-108940000D03*
%TO.P,U1,48,I/O_32*%
%TO.N,B_ {slash} DS1*%
X117820000Y-106400000D03*
%TO.P,U1,49,I/O_33*%
%TO.N,B_A19*%
X120360000Y-108940000D03*
%TO.P,U1,50,I/O_34*%
%TO.N,B_A18*%
X120360000Y-106400000D03*
%TO.P,U1,51,I/O_35*%
%TO.N,B_A17*%
X122900000Y-108940000D03*
%TO.P,U1,52,I/O_36*%
%TO.N,B_A16*%
X122900000Y-106400000D03*
%TO.P,U1,53,VCCIO_4*%
%TO.N,+5V*%
X125440000Y-108940000D03*
%TO.P,U1,54,I/O_37*%
%TO.N,B_A15*%
X127980000Y-106400000D03*
%TO.P,U1,55,I/O_38*%
%TO.N,B_A14*%
X125440000Y-106400000D03*
%TO.P,U1,56,I/O_39*%
%TO.N,B_A13*%
X127980000Y-103860000D03*
%TO.P,U1,57,I/O_40*%
%TO.N,B_A12*%
X125440000Y-103860000D03*
%TO.P,U1,58,I/O_41*%
%TO.N,B_A11*%
X127980000Y-101320000D03*
%TO.P,U1,59,GND_6*%
%TO.N,GND*%
X125440000Y-101320000D03*
%TO.P,U1,60,I/O_42*%
%TO.N,B_A10*%
X127980000Y-98780000D03*
%TO.P,U1,61,I/O_43*%
%TO.N,B_A9*%
X125440000Y-98780000D03*
%TO.P,U1,62,I/O/TCK*%
%TO.N,/TCK*%
X127980000Y-96240000D03*
%TO.P,U1,63,I/O_44*%
%TO.N,B_A8*%
X125440000Y-96240000D03*
%TO.P,U1,64,I/O_45*%
%TO.N,B_A7*%
X127980000Y-93700000D03*
%TO.P,U1,65,I/O_46*%
%TO.N,B_A6*%
X125440000Y-93700000D03*
%TO.P,U1,66,VCCIO_5*%
%TO.N,+5V*%
X127980000Y-91160000D03*
%TO.P,U1,67,I/O_47*%
%TO.N,B_A5*%
X125440000Y-91160000D03*
%TO.P,U1,68,I/O_48*%
%TO.N,B_A4*%
X127980000Y-88620000D03*
%TO.P,U1,69,I/O_49*%
%TO.N,B_A3*%
X125440000Y-88620000D03*
%TO.P,U1,70,I/O_50*%
%TO.N,B_A2*%
X127980000Y-86080000D03*
%TO.P,U1,71,I/O/TDO*%
%TO.N,/TDO*%
X125440000Y-86080000D03*
%TO.P,U1,72,GND_7*%
%TO.N,GND*%
X127980000Y-83540000D03*
%TO.P,U1,73,I/O_51*%
%TO.N,B_A1*%
X125440000Y-83540000D03*
%TO.P,U1,74,I/O_52*%
%TO.N,B_A0*%
X127980000Y-81000000D03*
%TO.P,U1,75,I/O_53*%
%TO.N,B_D0*%
X125440000Y-78460000D03*
%TO.P,U1,76,I/O_54*%
%TO.N,B_D1*%
X125440000Y-81000000D03*
%TO.P,U1,77,I/O_55*%
%TO.N,B_D2*%
X122900000Y-78460000D03*
%TO.P,U1,78,VCCIO_6*%
%TO.N,+5V*%
X122900000Y-81000000D03*
%TO.P,U1,79,I/O_56*%
%TO.N,B_D3*%
X120360000Y-78460000D03*
%TO.P,U1,80,I/O_57*%
%TO.N,B_D4*%
X120360000Y-81000000D03*
%TO.P,U1,81,I/O/GCLK3*%
%TO.N,/I{slash}O{slash}GCLK3*%
X117820000Y-78460000D03*
%TO.P,U1,82,GND_8*%
%TO.N,GND*%
X117820000Y-81000000D03*
%TO.P,U1,83,INPUT/GCLK1*%
%TO.N,/GCLK1*%
X115280000Y-78460000D03*
%TO.P,U1,84,INPUT/OE1*%
%TO.N,/I{slash}OE1*%
X115280000Y-81000000D03*
%TD*%
D18*
%TO.P,P1,a1,1A*%
%TO.N,B_VCC*%
X79500000Y-133120000D03*
D19*
%TO.P,P1,a2,2A*%
%TO.N,B_D5*%
X79500000Y-130580000D03*
%TO.P,P1,a3,3A*%
%TO.N,B_D6*%
X79500000Y-128040000D03*
%TO.P,P1,a4,4A*%
%TO.N,B_D3*%
X79500000Y-125500000D03*
%TO.P,P1,a5,5A*%
%TO.N,B_D4*%
X79500000Y-122960000D03*
%TO.P,P1,a6,6A*%
%TO.N,B_A2*%
X79500000Y-120420000D03*
%TO.P,P1,a7,7A*%
%TO.N,B_A4*%
X79500000Y-117880000D03*
%TO.P,P1,a8,8A*%
%TO.N,B_A5*%
X79500000Y-115340000D03*
%TO.P,P1,a9,9A*%
%TO.N,B_A6*%
X79500000Y-112800000D03*
%TO.P,P1,a10,10A*%
%TO.N,unconnected-(P1-10A-Pada10)*%
X79500000Y-110260000D03*
%TO.P,P1,a11,11A*%
%TO.N,unconnected-(P1-11A-Pada11)*%
X79500000Y-107720000D03*
%TO.P,P1,a12,12A*%
%TO.N,/BAI{slash}O*%
X79500000Y-105180000D03*
%TO.P,P1,a13,13A*%
%TO.N,unconnected-(P1-13A-Pada13)*%
X79500000Y-102640000D03*
%TO.P,P1,a14,14A*%
%TO.N,B_A19*%
X79500000Y-100100000D03*
%TO.P,P1,a15,15A*%
%TO.N,unconnected-(P1-15A-Pada15)*%
X79500000Y-97560000D03*
%TO.P,P1,a16,16A*%
%TO.N,unconnected-(P1-16A-Pada16)*%
X79500000Y-95020000D03*
%TO.P,P1,a17,17A*%
%TO.N,/BAI{slash}O*%
X79500000Y-92480000D03*
%TO.P,P1,a18,18A*%
%TO.N,B_A14*%
X79500000Y-89940000D03*
%TO.P,P1,a19,19A*%
%TO.N,unconnected-(P1-19A-Pada19)*%
X79500000Y-87400000D03*
%TO.P,P1,a20,20A*%
%TO.N,/B_{slash}M1*%
X79500000Y-84860000D03*
%TO.P,P1,a21,21A*%
%TO.N,unconnected-(P1-21A-Pada21)*%
X79500000Y-82320000D03*
%TO.P,P1,a22,22A*%
%TO.N,unconnected-(P1-22A-Pada22)*%
X79500000Y-79780000D03*
%TO.P,P1,a23,23A*%
%TO.N,unconnected-(P1-23A-Pada23)*%
X79500000Y-77240000D03*
%TO.P,P1,a24,24A*%
%TO.N,/B_VBAT*%
X79500000Y-74700000D03*
%TO.P,P1,a25,25A*%
%TO.N,unconnected-(P1-25A-Pada25)*%
X79500000Y-72160000D03*
%TO.P,P1,a26,26A*%
%TO.N,unconnected-(P1-26A-Pada26)*%
X79500000Y-69620000D03*
%TO.P,P1,a27,27A*%
%TO.N,/B_{slash}IORQ*%
X79500000Y-67080000D03*
%TO.P,P1,a28,28A*%
%TO.N,B_A15*%
X79500000Y-64540000D03*
%TO.P,P1,a29,29A*%
%TO.N,B_A13*%
X79500000Y-62000000D03*
%TO.P,P1,a30,30A*%
%TO.N,B_A9*%
X79500000Y-59460000D03*
%TO.P,P1,a31,31A*%
%TO.N,unconnected-(P1-31A-Pada31)*%
X79500000Y-56920000D03*
%TO.P,P1,a32,32A*%
%TO.N,GND*%
X79500000Y-54380000D03*
%TO.P,P1,b1,1B*%
%TO.N,B_VCC*%
X82040000Y-133120000D03*
%TO.P,P1,b2,2B*%
%TO.N,unconnected-(P1-2B-Padb2)*%
X82040000Y-130580000D03*
%TO.P,P1,b3,3B*%
%TO.N,unconnected-(P1-3B-Padb3)*%
X82040000Y-128040000D03*
%TO.P,P1,b4,4B*%
%TO.N,unconnected-(P1-4B-Padb4)*%
X82040000Y-125500000D03*
%TO.P,P1,b5,5B*%
%TO.N,unconnected-(P1-5B-Padb5)*%
X82040000Y-122960000D03*
%TO.P,P1,b6,6B*%
%TO.N,B_D8*%
X82040000Y-120420000D03*
%TO.P,P1,b7,7B*%
%TO.N,B_D9*%
X82040000Y-117880000D03*
%TO.P,P1,b8,8B*%
%TO.N,B_D10*%
X82040000Y-115340000D03*
%TO.P,P1,b9,9B*%
%TO.N,B_D11*%
X82040000Y-112800000D03*
%TO.P,P1,b10,10B*%
%TO.N,B_D12*%
X82040000Y-110260000D03*
%TO.P,P1,b11,11B*%
%TO.N,B_D13*%
X82040000Y-107720000D03*
%TO.P,P1,b12,12B*%
%TO.N,B_D14*%
X82040000Y-105180000D03*
%TO.P,P1,b13,13B*%
%TO.N,B_D15*%
X82040000Y-102640000D03*
%TO.P,P1,b14,14B*%
%TO.N,/B_{slash}IRQ7*%
X82040000Y-100100000D03*
%TO.P,P1,b15,15B*%
%TO.N,/B_{slash}IRQ6*%
X82040000Y-97560000D03*
%TO.P,P1,b16,16B*%
%TO.N,/B_{slash}IRQ5*%
X82040000Y-95020000D03*
%TO.P,P1,b17,17B*%
%TO.N,/B_{slash}IRQ4*%
X82040000Y-92480000D03*
%TO.P,P1,b18,18B*%
%TO.N,/B_{slash}IRQ3*%
X82040000Y-89940000D03*
%TO.P,P1,b19,19B*%
%TO.N,/B_{slash}IRQ2*%
X82040000Y-87400000D03*
%TO.P,P1,b20,20B*%
%TO.N,/B_{slash}IRQ1*%
X82040000Y-84860000D03*
%TO.P,P1,b21,21B*%
%TO.N,/B_{slash}IRQ0*%
X82040000Y-82320000D03*
%TO.P,P1,b22,22B*%
%TO.N,B_ {slash} SXTAK*%
X82040000Y-79780000D03*
%TO.P,P1,b23,23B*%
%TO.N,/B_{slash}DREQ*%
X82040000Y-77240000D03*
%TO.P,P1,b24,24B*%
%TO.N,B_ {slash} SXTRQ*%
X82040000Y-74700000D03*
%TO.P,P1,b25,25B*%
%TO.N,/B_{slash}INTA*%
X82040000Y-72160000D03*
%TO.P,P1,b26,26B*%
%TO.N,unconnected-(P1-26B-Padb26)*%
X82040000Y-69620000D03*
%TO.P,P1,b27,27B*%
%TO.N,unconnected-(P1-27B-Padb27)*%
X82040000Y-67080000D03*
%TO.P,P1,b28,28B*%
%TO.N,B_ {slash} DS0*%
X82040000Y-64540000D03*
%TO.P,P1,b29,29B*%
%TO.N,B_ {slash} DS1*%
X82040000Y-62000000D03*
%TO.P,P1,b30,30B*%
%TO.N,unconnected-(P1-30B-Padb30)*%
X82040000Y-59460000D03*
%TO.P,P1,b31,31B*%
%TO.N,unconnected-(P1-31B-Padb31)*%
X82040000Y-56920000D03*
%TO.P,P1,b32,32B*%
%TO.N,GND*%
X82040000Y-54380000D03*
%TO.P,P1,c1,1C*%
%TO.N,B_VCC*%
X84580000Y-133120000D03*
%TO.P,P1,c2,2C*%
%TO.N,B_D0*%
X84580000Y-130580000D03*
%TO.P,P1,c3,3C*%
%TO.N,B_D7*%
X84580000Y-128040000D03*
%TO.P,P1,c4,4C*%
%TO.N,B_D2*%
X84580000Y-125500000D03*
%TO.P,P1,c5,5C*%
%TO.N,B_A0*%
X84580000Y-122960000D03*
%TO.P,P1,c6,6C*%
%TO.N,B_A3*%
X84580000Y-120420000D03*
%TO.P,P1,c7,7C*%
%TO.N,B_A1*%
X84580000Y-117880000D03*
%TO.P,P1,c8,8C*%
%TO.N,B_A8*%
X84580000Y-115340000D03*
%TO.P,P1,c9,9C*%
%TO.N,B_A7*%
X84580000Y-112800000D03*
%TO.P,P1,c10,10C*%
%TO.N,B_A16*%
X84580000Y-110260000D03*
%TO.P,P1,c11,11C*%
%TO.N,/IEI{slash}O*%
X84580000Y-107720000D03*
%TO.P,P1,c12,12C*%
%TO.N,B_A17*%
X84580000Y-105180000D03*
%TO.P,P1,c13,13C*%
%TO.N,B_A18*%
X84580000Y-102640000D03*
%TO.P,P1,c14,14C*%
%TO.N,B_D1*%
X84580000Y-100100000D03*
%TO.P,P1,c15,15C*%
%TO.N,unconnected-(P1-15C-Padc15)*%
X84580000Y-97560000D03*
%TO.P,P1,c16,16C*%
%TO.N,/IEI{slash}O*%
X84580000Y-95020000D03*
%TO.P,P1,c17,17C*%
%TO.N,B_A11*%
X84580000Y-92480000D03*
%TO.P,P1,c18,18C*%
%TO.N,B_A10*%
X84580000Y-89940000D03*
%TO.P,P1,c19,19C*%
%TO.N,unconnected-(P1-19C-Padc19)*%
X84580000Y-87400000D03*
%TO.P,P1,c20,20C*%
%TO.N,unconnected-(P1-20C-Padc20)*%
X84580000Y-84860000D03*
%TO.P,P1,c21,21C*%
%TO.N,/B_{slash}INT*%
X84580000Y-82320000D03*
%TO.P,P1,c22,22C*%
%TO.N,/B_{slash}WR*%
X84580000Y-79780000D03*
%TO.P,P1,c23,23C*%
%TO.N,unconnected-(P1-23C-Padc23)*%
X84580000Y-77240000D03*
%TO.P,P1,c24,24C*%
%TO.N,/B_{slash}RD*%
X84580000Y-74700000D03*
%TO.P,P1,c25,25C*%
%TO.N,unconnected-(P1-25C-Padc25)*%
X84580000Y-72160000D03*
%TO.P,P1,c26,26C*%
%TO.N,/B_{slash}RESOUT*%
X84580000Y-69620000D03*
%TO.P,P1,c27,27C*%
%TO.N,B_A12*%
X84580000Y-67080000D03*
%TO.P,P1,c28,28C*%
%TO.N,unconnected-(P1-28C-Padc28)*%
X84580000Y-64540000D03*
%TO.P,P1,c29,29C*%
%TO.N,unconnected-(P1-29C-Padc29)*%
X84580000Y-62000000D03*
%TO.P,P1,c30,30C*%
%TO.N,unconnected-(P1-30C-Padc30)*%
X84580000Y-59460000D03*
%TO.P,P1,c31,31C*%
%TO.N,/B_{slash}RESET*%
X84580000Y-56920000D03*
%TO.P,P1,c32,32C*%
%TO.N,GND*%
X84580000Y-54380000D03*
%TD*%
D14*
%TO.P,J1,1,Pin_1*%
%TO.N,+3.3V*%
X111137500Y-60010000D03*
D15*
%TO.P,J1,2,Pin_2*%
%TO.N,Net-(J1-Pin_2)*%
X111137500Y-62550000D03*
%TO.P,J1,3,Pin_3*%
%TO.N,GND*%
X111137500Y-65090000D03*
%TD*%
D20*
%TO.P,U2,1,VDD*%
%TO.N,+3.3V*%
X118750000Y-64975000D03*
%TO.P,U2,2,GND*%
%TO.N,GND*%
X119700000Y-64975000D03*
%TO.P,U2,3,OE*%
%TO.N,unconnected-(U2-OE-Pad3)*%
X120650000Y-64975000D03*
%TO.P,U2,4,DIV*%
%TO.N,Net-(J1-Pin_2)*%
X120650000Y-67250000D03*
%TO.P,U2,5,OUT*%
%TO.N,Net-(U2-OUT)*%
X118750000Y-67250000D03*
%TD*%
D21*
%TO.P,Q1,1,G*%
%TO.N,/GCLR_FTDI*%
X141250000Y-83500000D03*
%TO.P,Q1,2,S*%
%TO.N,GND*%
X139350000Y-83500000D03*
%TO.P,Q1,3,D*%
%TO.N,/I{slash}GCLR*%
X140300000Y-81625000D03*
%TD*%
D20*
%TO.P,U6,1,VDD*%
%TO.N,B_VCC*%
X88204000Y-135862500D03*
%TO.P,U6,2,GND*%
%TO.N,GND*%
X89154000Y-135862500D03*
%TO.P,U6,3,EN*%
%TO.N,unconnected-(U6-EN-Pad3)*%
X90104000Y-135862500D03*
%TO.P,U6,4,NC*%
%TO.N,unconnected-(U6-NC-Pad4)*%
X90104000Y-138137500D03*
%TO.P,U6,5,OUT*%
%TO.N,+5V*%
X88204000Y-138137500D03*
%TD*%
D22*
%TO.P,U3,1,INPUT*%
%TO.N,+5V*%
X126105500Y-60264000D03*
%TO.P,U3,2,GND*%
%TO.N,GND*%
X126105500Y-61214000D03*
%TO.P,U3,3,ENABLE*%
%TO.N,+5V*%
X126105500Y-62164000D03*
%TO.P,U3,4*%
%TO.N,N/C*%
X123830500Y-62164000D03*
%TO.P,U3,5,OUT*%
%TO.N,+3.3V*%
X123830500Y-60264000D03*
%TD*%
D23*
%TO.P,C5,1*%
%TO.N,GND*%
X126746000Y-124185000D03*
%TO.P,C5,2*%
%TO.N,Net-(U4-XTIN)*%
X126746000Y-122460000D03*
%TD*%
D24*
%TO.P,Y1,1,1*%
%TO.N,Net-(U4-XTIN)*%
X130228000Y-123322500D03*
%TO.P,Y1,2,2*%
%TO.N,Net-(U4-XTOUT)*%
X136728000Y-123322500D03*
%TD*%
D23*
%TO.P,C3,1*%
%TO.N,+3.3V*%
X116000000Y-63862500D03*
%TO.P,C3,2*%
%TO.N,GND*%
X116000000Y-62137500D03*
%TD*%
D25*
%TO.P,U4,1,EECLK*%
%TO.N,Net-(U4-EECLK)*%
X137640500Y-131345500D03*
%TO.P,U4,2,EEDATA*%
%TO.N,Net-(U4-EEDATA)*%
X137640500Y-131845500D03*
%TO.P,U4,3,VCC*%
%TO.N,+5V*%
X137640500Y-132345500D03*
%TO.P,U4,4,~{RESET}*%
%TO.N,Net-(U4-~{RESET})*%
X137640500Y-132845500D03*
%TO.P,U4,5,~{RSTOUT}*%
%TO.N,Net-(U4-~{RSTOUT})*%
X137640500Y-133345500D03*
%TO.P,U4,6,3V3OUT*%
%TO.N,Net-(U4-3V3OUT)*%
X137640500Y-133845500D03*
%TO.P,U4,7,USBDP*%
%TO.N,/JTAG-Interface/FTDI_USB_DATA+*%
X137640500Y-134345500D03*
%TO.P,U4,8,USBDM*%
%TO.N,/JTAG-Interface/FTDI_USB_DATA-*%
X137640500Y-134845500D03*
%TO.P,U4,9,GND*%
%TO.N,GND*%
X137640500Y-135345500D03*
%TO.P,U4,10,SI/WUA*%
%TO.N,unconnected-(U4-SI{slash}WUA-Pad10)*%
X137640500Y-135845500D03*
%TO.P,U4,11,ACBUS3*%
%TO.N,unconnected-(U4-ACBUS3-Pad11)*%
X137640500Y-136345500D03*
%TO.P,U4,12,ACBUS2*%
%TO.N,unconnected-(U4-ACBUS2-Pad12)*%
X137640500Y-136845500D03*
D26*
%TO.P,U4,13,ACBUS1*%
%TO.N,/RESET_FTDI*%
X136228000Y-138258000D03*
%TO.P,U4,14,VCCIOA*%
%TO.N,+5V*%
X135728000Y-138258000D03*
%TO.P,U4,15,ACBUS0*%
%TO.N,/GCLR_FTDI*%
X135228000Y-138258000D03*
%TO.P,U4,16,ADBUS7*%
%TO.N,unconnected-(U4-ADBUS7-Pad16)*%
X134728000Y-138258000D03*
%TO.P,U4,17,ADBUS6*%
%TO.N,unconnected-(U4-ADBUS6-Pad17)*%
X134228000Y-138258000D03*
%TO.P,U4,18,GND*%
%TO.N,GND*%
X133728000Y-138258000D03*
%TO.P,U4,19,ADBUS5*%
%TO.N,unconnected-(U4-ADBUS5-Pad19)*%
X133228000Y-138258000D03*
%TO.P,U4,20,ADBUS4*%
%TO.N,unconnected-(U4-ADBUS4-Pad20)*%
X132728000Y-138258000D03*
%TO.P,U4,21,ADBUS3*%
%TO.N,/TMS*%
X132228000Y-138258000D03*
%TO.P,U4,22,ADBUS2*%
%TO.N,/TDO*%
X131728000Y-138258000D03*
%TO.P,U4,23,ADBUS1*%
%TO.N,/TDI*%
X131228000Y-138258000D03*
%TO.P,U4,24,ADBUS0*%
%TO.N,/TCK*%
X130728000Y-138258000D03*
D25*
%TO.P,U4,25,GND*%
%TO.N,GND*%
X129315500Y-136845500D03*
%TO.P,U4,26,SI/WUB*%
%TO.N,/I{slash}O{slash}GCLK3*%
X129315500Y-136345500D03*
%TO.P,U4,27,BCBUS3*%
%TO.N,/I{slash}O{slash}PD2*%
X129315500Y-135845500D03*
%TO.P,U4,28,BCBUS2*%
%TO.N,/I{slash}O{slash}PD1*%
X129315500Y-135345500D03*
%TO.P,U4,29,BCBUS1*%
%TO.N,/I{slash}OE2{slash}GCLK2*%
X129315500Y-134845500D03*
%TO.P,U4,30,BCBUS0*%
%TO.N,/I{slash}OE1*%
X129315500Y-134345500D03*
%TO.P,U4,31,VCCIOB*%
%TO.N,+5V*%
X129315500Y-133845500D03*
%TO.P,U4,32,BDBUS7*%
%TO.N,B_D7*%
X129315500Y-133345500D03*
%TO.P,U4,33,BDBUS6*%
%TO.N,B_D6*%
X129315500Y-132845500D03*
%TO.P,U4,34,GND*%
%TO.N,GND*%
X129315500Y-132345500D03*
%TO.P,U4,35,BDBUS5*%
%TO.N,B_D5*%
X129315500Y-131845500D03*
%TO.P,U4,36,BDBUS4*%
%TO.N,B_D4*%
X129315500Y-131345500D03*
D26*
%TO.P,U4,37,BDBUS3*%
%TO.N,B_D3*%
X130728000Y-129933000D03*
%TO.P,U4,38,BDBUS2*%
%TO.N,B_D2*%
X131228000Y-129933000D03*
%TO.P,U4,39,BDBUS1*%
%TO.N,B_D1*%
X131728000Y-129933000D03*
%TO.P,U4,40,BDBUS0*%
%TO.N,B_D0*%
X132228000Y-129933000D03*
%TO.P,U4,41,~{PWREN}*%
%TO.N,unconnected-(U4-~{PWREN}-Pad41)*%
X132728000Y-129933000D03*
%TO.P,U4,42,VCC*%
%TO.N,+5V*%
X133228000Y-129933000D03*
%TO.P,U4,43,XTIN*%
%TO.N,Net-(U4-XTIN)*%
X133728000Y-129933000D03*
%TO.P,U4,44,XTOUT*%
%TO.N,Net-(U4-XTOUT)*%
X134228000Y-129933000D03*
%TO.P,U4,45,AGND*%
%TO.N,GND*%
X134728000Y-129933000D03*
%TO.P,U4,46,AVCC*%
%TO.N,Net-(U4-AVCC)*%
X135228000Y-129933000D03*
%TO.P,U4,47,TEST*%
%TO.N,GND*%
X135728000Y-129933000D03*
%TO.P,U4,48,EECS*%
%TO.N,Net-(U4-EECS)*%
X136228000Y-129933000D03*
%TD*%
D27*
%TO.P,C1,1*%
%TO.N,+5V*%
X93112500Y-73750000D03*
%TO.P,C1,2*%
%TO.N,GND*%
X91387500Y-73750000D03*
%TD*%
%TO.P,C2,1*%
%TO.N,GND*%
X130910500Y-60198000D03*
%TO.P,C2,2*%
%TO.N,+5V*%
X129185500Y-60198000D03*
%TD*%
D23*
%TO.P,C6,1*%
%TO.N,GND*%
X139446000Y-124185000D03*
%TO.P,C6,2*%
%TO.N,Net-(U4-XTOUT)*%
X139446000Y-122460000D03*
%TD*%
D21*
%TO.P,Q2,1,G*%
%TO.N,/RESET_FTDI*%
X103887500Y-124437500D03*
%TO.P,Q2,2,S*%
%TO.N,GND*%
X101987500Y-124437500D03*
%TO.P,Q2,3,D*%
%TO.N,/B_{slash}RESET*%
X102937500Y-122562500D03*
%TD*%
D28*
%TO.P,U7,1,VDD*%
%TO.N,/JTAG-Interface/VBUS*%
X164653000Y-126791300D03*
%TO.P,U7,2,GND*%
%TO.N,GND*%
X163703000Y-126791300D03*
%TO.P,U7,3,EN*%
%TO.N,unconnected-(U7-EN-Pad3)*%
X162753000Y-126791300D03*
%TO.P,U7,4,NC*%
%TO.N,unconnected-(U7-NC-Pad4)*%
X162753000Y-124516300D03*
%TO.P,U7,5,OUT*%
%TO.N,+5V*%
X164653000Y-124516300D03*
%TD*%
D29*
%TO.P,J3,S1,SHLD*%
%TO.N,GND*%
X167187200Y-139707200D03*
X171117200Y-139707200D03*
X167187200Y-129487200D03*
X171117200Y-129487200D03*
D30*
%TO.P,J3,B8,SBU2*%
%TO.N,unconnected-(J3-SBU2-PadB8)*%
X166612200Y-132847200D03*
%TO.P,J3,B7,DN2*%
%TO.N,/JTAG-Interface/USB_DATA-*%
X166612200Y-133847200D03*
%TO.P,J3,B6,DP2*%
%TO.N,/JTAG-Interface/USB_DATA+*%
X166612200Y-135347200D03*
%TO.P,J3,B5,CC2*%
%TO.N,Net-(J3-CC2)*%
X166612200Y-136347200D03*
D31*
%TO.P,J3,B4/A9,VBUS2*%
%TO.N,/JTAG-Interface/VBUS*%
X166612200Y-136997200D03*
%TO.P,J3,A12/B1,GND*%
%TO.N,GND*%
X166612200Y-137797200D03*
D30*
%TO.P,J3,A8,SBU1*%
%TO.N,unconnected-(J3-SBU1-PadA8)*%
X166612200Y-135847200D03*
%TO.P,J3,A7,DN1*%
%TO.N,/JTAG-Interface/USB_DATA-*%
X166612200Y-134847200D03*
%TO.P,J3,A6,DP1*%
%TO.N,/JTAG-Interface/USB_DATA+*%
X166612200Y-134347200D03*
%TO.P,J3,A5,CC1*%
%TO.N,Net-(J3-CC1)*%
X166612200Y-133347200D03*
D31*
%TO.P,J3,A4/B9,VBUS*%
%TO.N,/JTAG-Interface/VBUS*%
X166612200Y-132197200D03*
%TO.P,J3,A1/B12,GND*%
%TO.N,GND*%
X166612200Y-131397200D03*
%TD*%
D27*
%TO.P,C7,1*%
%TO.N,GND*%
X143610500Y-129643500D03*
%TO.P,C7,2*%
%TO.N,Net-(U4-3V3OUT)*%
X141885500Y-129643500D03*
%TD*%
%TO.P,C8,1*%
%TO.N,GND*%
X143610500Y-127357500D03*
%TO.P,C8,2*%
%TO.N,Net-(U4-AVCC)*%
X141885500Y-127357500D03*
%TD*%
D32*
%TO.P,U5,1,CS*%
%TO.N,Net-(U4-EECS)*%
X101345000Y-134775000D03*
%TO.P,U5,2,SCLK*%
%TO.N,Net-(U4-EECLK)*%
X102615000Y-134775000D03*
%TO.P,U5,3,DI*%
%TO.N,Net-(U4-EEDATA)*%
X103885000Y-134775000D03*
%TO.P,U5,4,DO*%
%TO.N,Net-(U5-DO)*%
X105155000Y-134775000D03*
%TO.P,U5,5,GND*%
%TO.N,GND*%
X105155000Y-139725000D03*
%TO.P,U5,6,NC*%
%TO.N,unconnected-(U5-NC-Pad6)*%
X103885000Y-139725000D03*
%TO.P,U5,7,NC*%
%TO.N,unconnected-(U5-NC-Pad7)*%
X102615000Y-139725000D03*
%TO.P,U5,8,VCC*%
%TO.N,+5V*%
X101345000Y-139725000D03*
%TD*%
D27*
%TO.P,C4,1*%
%TO.N,+3.3V*%
X120496500Y-60198000D03*
%TO.P,C4,2*%
%TO.N,GND*%
X118771500Y-60198000D03*
%TD*%
D33*
%TO.N,+5V*%
X142087600Y-76733400D03*
%TO.N,B_A14*%
X101904800Y-113055400D03*
%TO.N,/JTAG-Interface/USB_DATA+*%
X167792400Y-135636000D03*
X167741600Y-134391400D03*
%TO.N,+5V*%
X164642800Y-123190000D03*
%TO.N,GND*%
X164998400Y-137795000D03*
X165506400Y-130505200D03*
X163703000Y-128193800D03*
X162839400Y-128981200D03*
%TO.N,Net-(D3-A)*%
X166217600Y-56311800D03*
%TO.N,/I{slash}O{slash}GCLK3*%
X163550600Y-59939600D03*
%TO.N,Net-(D2-A)*%
X164693600Y-50647600D03*
%TO.N,Net-(D1-A)*%
X169722800Y-45466000D03*
%TO.N,GND*%
X172237400Y-57531000D03*
X172212000Y-53213000D03*
X172237400Y-48133000D03*
%TO.N,+5V*%
X147751800Y-130835400D03*
X136855200Y-128397000D03*
X132943600Y-128346200D03*
X130632200Y-133858000D03*
X139242800Y-132207000D03*
X135458200Y-140106400D03*
X100025200Y-139725400D03*
X98806000Y-139750800D03*
X86944200Y-138150600D03*
X94284800Y-122555000D03*
X93116400Y-74930000D03*
X126111000Y-58826400D03*
X129184400Y-61391800D03*
X127660400Y-62153800D03*
%TO.N,Net-(U4-~{RESET})*%
X140041700Y-130062800D03*
X144686500Y-129940600D03*
%TO.N,B_D15*%
X87641900Y-108040600D03*
X90347000Y-112502600D03*
%TO.N,B_ {slash} SXTRQ*%
X102268100Y-84201300D03*
%TO.N,B_D10*%
X110766100Y-111644200D03*
X92228400Y-113138400D03*
%TO.N,B_D9*%
X101424100Y-79559000D03*
%TO.N,B_D8*%
X111248400Y-118892900D03*
%TO.N,B_ {slash} DS0*%
X115545800Y-94492200D03*
%TO.N,B_ {slash} DS1*%
X107791700Y-63054700D03*
%TO.N,B_ {slash} SXTAK*%
X107787700Y-101069600D03*
X95281300Y-99543400D03*
%TO.N,B_A19*%
X120240900Y-114506100D03*
%TO.N,/B_{slash}IRQ6*%
X86122100Y-93429000D03*
%TO.N,/B_{slash}IRQ4*%
X98206100Y-77986900D03*
X101297900Y-76647300D03*
X163114100Y-107591300D03*
X144917600Y-105510300D03*
%TO.N,/B_{slash}WR*%
X160839500Y-101034100D03*
%TO.N,/I{slash}O{slash}PD1*%
X102105500Y-77039700D03*
X116201400Y-110627900D03*
%TO.N,/B_{slash}IRQ2*%
X119319800Y-98264600D03*
X137207700Y-99593000D03*
%TO.N,/B_{slash}INT*%
X93199500Y-83606900D03*
%TO.N,B_D7*%
X126069700Y-130133800D03*
X119171300Y-128425200D03*
X114416100Y-95699800D03*
%TO.N,B_A17*%
X96054300Y-118464000D03*
X122878700Y-117457700D03*
%TO.N,B_D3*%
X122593200Y-121930700D03*
X131368500Y-125619900D03*
X130885500Y-93896300D03*
%TO.N,B_A15*%
X126099200Y-82185300D03*
%TO.N,/B_{slash}IORQ*%
X80152700Y-101370000D03*
%TO.N,/I{slash}GCLR*%
X140209800Y-103936000D03*
%TO.N,/I{slash}O{slash}GCLK3*%
X168825500Y-59939600D03*
X128085400Y-137028100D03*
X151790622Y-123925578D03*
X156697100Y-103557700D03*
%TO.N,/B_{slash}RD*%
X167554900Y-54926100D03*
%TO.N,B_D1*%
X122759600Y-101415300D03*
X131669000Y-128430200D03*
X126547300Y-128168800D03*
%TO.N,/B_{slash}IRQ1*%
X79156200Y-78510000D03*
X168148000Y-53340000D03*
%TO.N,B_D5*%
X130543600Y-131952800D03*
X122260400Y-131952800D03*
X118614200Y-126987900D03*
X149850200Y-114514500D03*
X154945300Y-93895600D03*
%TO.N,B_D2*%
X130987800Y-127798200D03*
X160403900Y-83248900D03*
X132030600Y-84889700D03*
%TO.N,B_D4*%
X119544500Y-121902300D03*
X154042900Y-90506400D03*
X121218200Y-89578600D03*
%TO.N,B_D6*%
X130888161Y-135158000D03*
X149017253Y-126689730D03*
X149075800Y-94545600D03*
%TO.N,/B_{slash}IRQ3*%
X103406500Y-96129400D03*
%TO.N,B_D0*%
X132094300Y-131534300D03*
X161284000Y-82615700D03*
X132584200Y-84116300D03*
%TO.N,/I{slash}OE1*%
X118938300Y-116970900D03*
%TO.N,B_VCC*%
X145354700Y-131330800D03*
%TO.N,/TCK*%
X151998200Y-95922900D03*
X131229500Y-136389400D03*
%TO.N,/I{slash}OE2{slash}GCLK2*%
X118527300Y-103867100D03*
%TO.N,Net-(U4-XTIN)*%
X132664100Y-126941200D03*
X130162300Y-126333200D03*
%TO.N,/TDO*%
X128422500Y-113139400D03*
%TO.N,Net-(U4-EECS)*%
X108220700Y-133662800D03*
X135648600Y-132543800D03*
%TO.N,Net-(U4-EECLK)*%
X137588800Y-130279400D03*
X104747700Y-130957700D03*
%TO.N,/TMS*%
X133568200Y-131491200D03*
%TO.N,/TDI*%
X110317600Y-110668100D03*
%TO.N,B_A13*%
X86968500Y-64153000D03*
X131676800Y-81833100D03*
X133528800Y-103949100D03*
%TO.N,B_A8*%
X124487900Y-113128400D03*
%TO.N,B_A6*%
X122445900Y-94283700D03*
X121936200Y-101505600D03*
X104679800Y-101104000D03*
X103698400Y-107808900D03*
X87162000Y-110803000D03*
%TO.N,B_A7*%
X127742300Y-112082400D03*
%TO.N,B_A12*%
X119732900Y-95885900D03*
X120072500Y-103377000D03*
%TO.N,B_A2*%
X129527400Y-84824700D03*
X126386400Y-118257500D03*
X87162000Y-119845400D03*
%TO.N,B_A11*%
X88211000Y-94262800D03*
X88304700Y-95426300D03*
%TO.N,B_A1*%
X122761500Y-119049000D03*
%TO.N,B_A0*%
X128807800Y-121172800D03*
%TO.N,B_A4*%
X126538600Y-115307700D03*
%TO.N,B_A3*%
X128710200Y-116756400D03*
X130237900Y-85266700D03*
%TO.N,B_A9*%
X113394800Y-98888700D03*
%TO.N,B_A5*%
X134666300Y-89929300D03*
X134315600Y-113665000D03*
X87162000Y-115869000D03*
%TO.N,+3.3V*%
X132648200Y-64247600D03*
%TO.N,GND*%
X104844600Y-142571400D03*
X169913500Y-127406800D03*
X166502600Y-127637900D03*
X169680800Y-142571400D03*
X166733700Y-142571400D03*
X118638400Y-59178100D03*
X143527200Y-128500500D03*
X130602100Y-59178100D03*
X90107500Y-71848300D03*
X134594300Y-131476200D03*
X129259600Y-137601200D03*
X136349500Y-134781200D03*
X140750300Y-125518000D03*
X116633000Y-60107600D03*
X126608600Y-125437500D03*
X127797500Y-60107600D03*
X102573100Y-125796500D03*
X140297300Y-83760000D03*
X89252500Y-137507500D03*
X120234200Y-63204000D03*
X162801500Y-140432900D03*
X133628300Y-139486100D03*
X127432300Y-130373200D03*
X144231200Y-86631500D03*
%TD*%
D34*
%TO.N,+5V*%
X148666200Y-130913500D02*
X148588100Y-130835400D01*
X148588100Y-130835400D02*
X147751800Y-130835400D01*
D35*
%TO.N,Net-(U4-~{RESET})*%
X148666200Y-132738500D02*
X145864900Y-132738500D01*
X145864900Y-132738500D02*
X144686500Y-131560100D01*
X144686500Y-131560100D02*
X144686500Y-129940600D01*
D34*
%TO.N,B_VCC*%
X165608000Y-121285000D02*
X165582600Y-121310400D01*
X165582600Y-121310400D02*
X155375100Y-121310400D01*
X165608000Y-121285000D02*
X165608000Y-118110000D01*
X146078854Y-130453500D02*
X146232000Y-130453500D01*
X145354700Y-131330800D02*
X145354700Y-131177654D01*
D35*
%TO.N,B_D6*%
X149075800Y-126631183D02*
X149017253Y-126689730D01*
%TO.N,/I{slash}O{slash}GCLK3*%
X156697100Y-119380288D02*
X152151810Y-123925578D01*
X152151810Y-123925578D02*
X151790622Y-123925578D01*
D34*
%TO.N,B_VCC*%
X145354700Y-131177654D02*
X146078854Y-130453500D01*
D35*
%TO.N,/I{slash}O{slash}GCLK3*%
X156697100Y-103557700D02*
X156697100Y-119380288D01*
%TO.N,B_D6*%
X149075800Y-94545600D02*
X149075800Y-126631183D01*
D34*
%TO.N,B_VCC*%
X146232000Y-130453500D02*
X155375100Y-121310400D01*
D35*
%TO.N,/B_{slash}IRQ1*%
X169659700Y-68081098D02*
X168148000Y-66569398D01*
%TO.N,/B_{slash}RD*%
X169279700Y-93219100D02*
X168380500Y-94118300D01*
X168148000Y-94118300D02*
X168148000Y-95250000D01*
%TO.N,/B_{slash}IRQ1*%
X168148000Y-66569398D02*
X168148000Y-53340000D01*
X169659700Y-96278300D02*
X169659700Y-68081098D01*
%TO.N,/B_{slash}RD*%
X167554900Y-54926100D02*
X167554900Y-66513700D01*
%TO.N,/B_{slash}IRQ1*%
X168148000Y-97790000D02*
X169659700Y-96278300D01*
%TO.N,/B_{slash}RD*%
X167554900Y-66513700D02*
X169279700Y-68238500D01*
X169279700Y-68238500D02*
X169279700Y-93219100D01*
X168380500Y-94118300D02*
X168148000Y-94118300D01*
%TO.N,/JTAG-Interface/USB_DATA-*%
X166612200Y-133847200D02*
X167366561Y-133847200D01*
X167366561Y-133847200D02*
X167472361Y-133741400D01*
X167278061Y-134847100D02*
X166612200Y-134847100D01*
X167472361Y-133741400D02*
X168010839Y-133741400D01*
D34*
%TO.N,/JTAG-Interface/VBUS*%
X167878095Y-136271000D02*
X168097200Y-136271000D01*
D35*
%TO.N,/JTAG-Interface/USB_DATA-*%
X168010839Y-133741400D02*
X168327600Y-134058161D01*
X168327600Y-134724639D02*
X168010839Y-135041400D01*
X168010839Y-135041400D02*
X167472361Y-135041400D01*
X168327600Y-134058161D02*
X168327600Y-134724639D01*
D34*
%TO.N,/JTAG-Interface/VBUS*%
X168757600Y-135610600D02*
X168757600Y-133842766D01*
D35*
%TO.N,/JTAG-Interface/USB_DATA-*%
X167472361Y-135041400D02*
X167278061Y-134847100D01*
D34*
%TO.N,/JTAG-Interface/VBUS*%
X166612200Y-136997200D02*
X167151895Y-136997200D01*
X167151895Y-136997200D02*
X167878095Y-136271000D01*
X168097200Y-136271000D02*
X168757600Y-135610600D01*
X168757600Y-133842766D02*
X167112034Y-132197200D01*
X167112034Y-132197200D02*
X166612200Y-132197200D01*
%TO.N,+5V*%
X140208000Y-77065500D02*
X141755500Y-77065500D01*
X141755500Y-77065500D02*
X142087600Y-76733400D01*
D35*
%TO.N,/B_{slash}IRQ3*%
X97500000Y-88620000D02*
X98821400Y-89941400D01*
X98821400Y-89941400D02*
X100990400Y-89941400D01*
X100990400Y-89941400D02*
X103406500Y-92357500D01*
X103406500Y-92357500D02*
X103406500Y-96129400D01*
%TO.N,/TDI*%
X97500000Y-83540000D02*
X98094200Y-83540000D01*
X98094200Y-83540000D02*
X99339400Y-84785200D01*
X99339400Y-84785200D02*
X100380800Y-84785200D01*
X106556600Y-90961000D02*
X106556600Y-106711300D01*
X100380800Y-84785200D02*
X106556600Y-90961000D01*
X106556600Y-106711300D02*
X107515300Y-107670000D01*
X107515300Y-107670000D02*
X107810900Y-107670000D01*
X107810900Y-107670000D02*
X108930000Y-108789100D01*
X108930000Y-108789100D02*
X108930000Y-109280500D01*
X108930000Y-109280500D02*
X110317600Y-110668100D01*
%TO.N,B_A14*%
X101904800Y-113055400D02*
X94564200Y-113055400D01*
X94564200Y-113055400D02*
X92557600Y-111048800D01*
X87247600Y-95905200D02*
X87247600Y-93645900D01*
X92557600Y-111048800D02*
X92557600Y-102873700D01*
X92557600Y-102873700D02*
X87596400Y-97912500D01*
X87596400Y-97912500D02*
X87629300Y-97879600D01*
X84811700Y-91210000D02*
X80770000Y-91210000D01*
X87629300Y-97879600D02*
X87629300Y-96128800D01*
X87629300Y-96128800D02*
X87405700Y-95905200D01*
X80770000Y-91210000D02*
X79500000Y-89940000D01*
X87405700Y-95905200D02*
X87247600Y-95905200D01*
X87247600Y-93645900D02*
X84811700Y-91210000D01*
%TO.N,B_D5*%
X149850200Y-97201800D02*
X153156400Y-93895600D01*
X149850200Y-114514500D02*
X149850200Y-97201800D01*
X153156400Y-93895600D02*
X154945300Y-93895600D01*
%TO.N,/JTAG-Interface/USB_DATA+*%
X167697400Y-134347200D02*
X167741600Y-134391400D01*
X167665400Y-135509000D02*
X167353124Y-135509000D01*
X167353124Y-135509000D02*
X167191324Y-135347200D01*
X166612200Y-134347200D02*
X167697400Y-134347200D01*
X167792400Y-135636000D02*
X167665400Y-135509000D01*
X167191324Y-135347200D02*
X166612200Y-135347200D01*
D34*
%TO.N,+5V*%
X164653000Y-124516300D02*
X164653000Y-123200200D01*
X164653000Y-123200200D02*
X164642800Y-123190000D01*
%TO.N,GND*%
X166612200Y-137797200D02*
X165000600Y-137797200D01*
X165000600Y-137797200D02*
X164998400Y-137795000D01*
X166612200Y-131397200D02*
X166398400Y-131397200D01*
X166398400Y-131397200D02*
X165506400Y-130505200D01*
%TO.N,/JTAG-Interface/VBUS*%
X164653000Y-126791300D02*
X164653000Y-130812999D01*
X164653000Y-130812999D02*
X166037201Y-132197200D01*
X166037201Y-132197200D02*
X166612200Y-132197200D01*
%TO.N,GND*%
X163703000Y-126791300D02*
X163703000Y-128193800D01*
X162839400Y-130100700D02*
X162839400Y-128981200D01*
D35*
%TO.N,Net-(J3-CC1)*%
X162839400Y-131925700D02*
X164260900Y-133347200D01*
X164260900Y-133347200D02*
X166612200Y-133347200D01*
%TO.N,Net-(D1-A)*%
X169722800Y-45466000D02*
X166117500Y-45466000D01*
X166117500Y-45466000D02*
X164695500Y-46888000D01*
%TO.N,/I{slash}O{slash}GCLK3*%
X163550600Y-59939600D02*
X163525200Y-57912000D01*
X163525200Y-57912000D02*
X163525200Y-56311800D01*
%TO.N,Net-(D3-A)*%
X165350200Y-56311800D02*
X166217600Y-56311800D01*
%TO.N,/I{slash}O{slash}PD1*%
X166805800Y-54185400D02*
X166805800Y-54072600D01*
X166805800Y-54072600D02*
X166520500Y-53787300D01*
X166520500Y-53787300D02*
X166520500Y-51888000D01*
%TO.N,Net-(D2-A)*%
X164693600Y-50647600D02*
X164693600Y-51886100D01*
X164693600Y-51886100D02*
X164695500Y-51888000D01*
%TO.N,/I{slash}O{slash}PD2*%
X168148000Y-107950000D02*
X168148000Y-106818300D01*
X170436500Y-104742000D02*
X170436500Y-58668600D01*
X168148000Y-106818300D02*
X168360200Y-106818300D01*
X168360200Y-106818300D02*
X170436500Y-104742000D01*
X170436500Y-58668600D02*
X168783000Y-57015100D01*
X168783000Y-57015100D02*
X168783000Y-47726600D01*
X168783000Y-47726600D02*
X167944400Y-46888000D01*
X167944400Y-46888000D02*
X166520500Y-46888000D01*
X166928800Y-46863000D02*
X166522400Y-46863000D01*
D34*
%TO.N,+5V*%
X164653000Y-124516300D02*
X164653000Y-124063800D01*
X138025500Y-128119500D02*
X137132700Y-128119500D01*
X137132700Y-128119500D02*
X136855200Y-128397000D01*
X133228000Y-129933000D02*
X133228000Y-128630600D01*
X133228000Y-128630600D02*
X132943600Y-128346200D01*
D35*
%TO.N,/TDO*%
X131728000Y-138258000D02*
X131728000Y-137515700D01*
X131865400Y-132416600D02*
X125804700Y-126355900D01*
%TO.N,B_D6*%
X131358400Y-134687761D02*
X130888161Y-135158000D01*
%TO.N,/TDO*%
X131829600Y-133812440D02*
X131865400Y-133776641D01*
%TO.N,/TMS*%
X132228000Y-138258000D02*
X132228000Y-133951442D01*
X132245402Y-133619245D02*
X132245400Y-133619243D01*
%TO.N,/TDO*%
X125804700Y-126355900D02*
X125804700Y-115185300D01*
%TO.N,/TMS*%
X132245400Y-133934042D02*
X132245400Y-133776646D01*
%TO.N,B_D6*%
X131250139Y-132845500D02*
X131358400Y-132953761D01*
%TO.N,/TMS*%
X132228000Y-133951442D02*
X132245400Y-133934042D01*
%TO.N,B_D6*%
X131358400Y-132953761D02*
X131358400Y-134687761D01*
D34*
%TO.N,+5V*%
X129315500Y-133845500D02*
X130619700Y-133845500D01*
D35*
%TO.N,/TMS*%
X132245400Y-132814000D02*
X133568200Y-131491200D01*
X132245400Y-133776646D02*
X132245402Y-133619245D01*
%TO.N,/TDO*%
X131865400Y-133776641D02*
X131865400Y-132416600D01*
%TO.N,/TMS*%
X132245400Y-133619243D02*
X132245400Y-132814000D01*
%TO.N,/TDO*%
X125804700Y-115185300D02*
X127913700Y-113076300D01*
%TO.N,B_D6*%
X129315500Y-132845500D02*
X131250139Y-132845500D01*
%TO.N,/TDO*%
X131728000Y-137515700D02*
X131829600Y-137414100D01*
X131829600Y-137414100D02*
X131829600Y-133812440D01*
D34*
%TO.N,+5V*%
X130619700Y-133845500D02*
X130632200Y-133858000D01*
D35*
%TO.N,Net-(U4-~{RESET})*%
X140041700Y-132327339D02*
X140041700Y-130062800D01*
X139523539Y-132845500D02*
X140041700Y-132327339D01*
X137640500Y-132845500D02*
X139523539Y-132845500D01*
D34*
%TO.N,+5V*%
X139104300Y-132345500D02*
X139242800Y-132207000D01*
X137640500Y-132345500D02*
X139104300Y-132345500D01*
D35*
%TO.N,Net-(U4-EEDATA)*%
X135745800Y-136193100D02*
X135745800Y-134378500D01*
X136742200Y-137189500D02*
X135745800Y-136193100D01*
X135745800Y-134378500D02*
X136612100Y-133512200D01*
X136612100Y-132105000D02*
X136871600Y-131845500D01*
X113694200Y-141136400D02*
X136011841Y-141136400D01*
X136742200Y-140406041D02*
X136742200Y-137189500D01*
X103885000Y-133800001D02*
X104170201Y-133514800D01*
X104170201Y-133514800D02*
X106072600Y-133514800D01*
%TO.N,/RESET_FTDI*%
X136228000Y-138258000D02*
X136228000Y-140255839D01*
X136228000Y-140255839D02*
X135752839Y-140731000D01*
X135752839Y-140731000D02*
X117005500Y-140731000D01*
%TO.N,Net-(U4-EEDATA)*%
X136612100Y-133512200D02*
X136612100Y-132105000D01*
%TO.N,/RESET_FTDI*%
X117005500Y-140731000D02*
X104036500Y-127762000D01*
%TO.N,Net-(U4-EEDATA)*%
X106072600Y-133514800D02*
X113694200Y-141136400D01*
X103885000Y-134775000D02*
X103885000Y-133800001D01*
X136011841Y-141136400D02*
X136742200Y-140406041D01*
X136871600Y-131845500D02*
X137640500Y-131845500D01*
D34*
%TO.N,+5V*%
X135728000Y-138258000D02*
X135728000Y-139836600D01*
X135728000Y-139836600D02*
X135458200Y-140106400D01*
X101345000Y-139725000D02*
X100025600Y-139725000D01*
X100025600Y-139725000D02*
X100025200Y-139725400D01*
X97662500Y-139750000D02*
X98805200Y-139750000D01*
X98805200Y-139750000D02*
X98806000Y-139750800D01*
X88204000Y-138137500D02*
X86957300Y-138137500D01*
X86957300Y-138137500D02*
X86944200Y-138150600D01*
X95658300Y-122555000D02*
X94284800Y-122555000D01*
X93112500Y-73750000D02*
X93112500Y-74926100D01*
X93112500Y-74926100D02*
X93116400Y-74930000D01*
X126105500Y-60264000D02*
X126105500Y-58831900D01*
X126105500Y-58831900D02*
X126111000Y-58826400D01*
X129185500Y-60198000D02*
X129185500Y-61390700D01*
X129185500Y-61390700D02*
X129184400Y-61391800D01*
X126105500Y-62164000D02*
X127650200Y-62164000D01*
X127650200Y-62164000D02*
X127660400Y-62153800D01*
D35*
%TO.N,/JTAG-Interface/FTDI_USB_DATA+*%
X159229000Y-133631000D02*
X159229100Y-133631000D01*
X137640500Y-134345500D02*
X137640500Y-134346000D01*
X137640500Y-134346000D02*
X137640000Y-134346000D01*
X157763000Y-134366000D02*
X144203000Y-134366000D01*
X158498000Y-133631000D02*
X157763000Y-134366000D01*
X159229000Y-133631000D02*
X158498000Y-133631000D01*
X138539000Y-134346000D02*
X137640500Y-134346000D01*
X138560000Y-134366000D02*
X138539000Y-134346000D01*
X144203000Y-134366000D02*
X138560000Y-134366000D01*
X143660500Y-133823500D02*
X143660500Y-132588000D01*
X144203000Y-134366000D02*
X143660500Y-133823500D01*
%TO.N,/JTAG-Interface/FTDI_USB_DATA-*%
X159229000Y-135551000D02*
X159229100Y-135551000D01*
X137640500Y-134845500D02*
X137640500Y-134846000D01*
X138530000Y-134846000D02*
X137640500Y-134846000D01*
X138560000Y-134816000D02*
X138530000Y-134846000D01*
X157763000Y-134816000D02*
X138560000Y-134816000D01*
X158498000Y-135551000D02*
X157763000Y-134816000D01*
X159229000Y-135551000D02*
X158498000Y-135551000D01*
X137640500Y-134846000D02*
X137640000Y-134846000D01*
%TO.N,Net-(U2-OUT)*%
X118750000Y-67250000D02*
X118750000Y-70087500D01*
%TO.N,Net-(J1-Pin_2)*%
X115980600Y-66261400D02*
X112269200Y-62550000D01*
X119661400Y-66261400D02*
X115980600Y-66261400D01*
X120650000Y-67250000D02*
X119661400Y-66261400D01*
X111137500Y-62550000D02*
X112269200Y-62550000D01*
%TO.N,Net-(J3-CC2)*%
X164431200Y-136347200D02*
X166612200Y-136347200D01*
X163378900Y-137399500D02*
X164431200Y-136347200D01*
X162814000Y-137399500D02*
X163378900Y-137399500D01*
%TO.N,/JTAG-Interface/USB_DATA+*%
X161054000Y-133631000D02*
X161054100Y-133631000D01*
X165717000Y-134347000D02*
X166612000Y-134347000D01*
X165698000Y-134366000D02*
X165717000Y-134347000D01*
X162520000Y-134366000D02*
X165698000Y-134366000D01*
X161785000Y-133631000D02*
X162520000Y-134366000D01*
X161054100Y-133631000D02*
X161785000Y-133631000D01*
X166612000Y-134347000D02*
X166612200Y-134347200D01*
%TO.N,/JTAG-Interface/USB_DATA-*%
X161054000Y-135551000D02*
X161054100Y-135551000D01*
X165730000Y-134847000D02*
X166612000Y-134847000D01*
X165698000Y-134816000D02*
X165730000Y-134847000D01*
X162520000Y-134816000D02*
X165698000Y-134816000D01*
X161785000Y-135551000D02*
X162520000Y-134816000D01*
X161054100Y-135551000D02*
X161785000Y-135551000D01*
X166612200Y-134847100D02*
X166612200Y-134847200D01*
X166612100Y-134847100D02*
X166612200Y-134847100D01*
X166612000Y-134847000D02*
X166612100Y-134847100D01*
%TO.N,/RESET_FTDI*%
X104036500Y-124586500D02*
X104036500Y-127762000D01*
X103887500Y-124437500D02*
X104036500Y-124586500D01*
%TO.N,/GCLR_FTDI*%
X135228000Y-134356500D02*
X135228000Y-138258000D01*
X136230400Y-133354100D02*
X135228000Y-134356500D01*
X136230400Y-131946900D02*
X136230400Y-133354100D01*
X136612100Y-131565200D02*
X136230400Y-131946900D01*
X136612100Y-130999100D02*
X136612100Y-131565200D01*
X136699500Y-130911700D02*
X136612100Y-130999100D01*
X136699500Y-130286000D02*
X136699500Y-130911700D01*
X138098100Y-128887400D02*
X136699500Y-130286000D01*
X140619100Y-128887400D02*
X138098100Y-128887400D01*
X141049900Y-128456600D02*
X140619100Y-128887400D01*
X142129400Y-128456600D02*
X141049900Y-128456600D01*
X142708600Y-127877400D02*
X142129400Y-128456600D01*
X142708600Y-84958600D02*
X142708600Y-127877400D01*
X141250000Y-83500000D02*
X142708600Y-84958600D01*
X142162500Y-82587500D02*
X141250000Y-83500000D01*
X144526000Y-82587500D02*
X142162500Y-82587500D01*
%TO.N,B_D15*%
X90346900Y-110745600D02*
X87641900Y-108040600D01*
X90346900Y-112502600D02*
X90346900Y-110745600D01*
X90347000Y-112502600D02*
X90346900Y-112502600D01*
%TO.N,B_ {slash} SXTRQ*%
X109061700Y-107801700D02*
X110200000Y-108940000D01*
X109061600Y-107801700D02*
X109061700Y-107801700D01*
X109061600Y-90994800D02*
X109061600Y-107801700D01*
X102268100Y-84201300D02*
X109061600Y-90994800D01*
%TO.N,/IEI{slash}O*%
X83468700Y-96131300D02*
X84580000Y-95020000D01*
X83468700Y-106608700D02*
X83468700Y-96131300D01*
X84580000Y-107720000D02*
X83468700Y-106608700D01*
%TO.N,B_D10*%
X88916100Y-116450700D02*
X92228400Y-113138400D01*
X83150700Y-116450700D02*
X88916100Y-116450700D01*
X82040000Y-115340000D02*
X83150700Y-116450700D01*
X111240000Y-111170300D02*
X110766100Y-111644200D01*
X111240000Y-90942500D02*
X111240000Y-111170300D01*
X102580000Y-82282500D02*
X111240000Y-90942500D01*
X102580000Y-81000000D02*
X102580000Y-82282500D01*
%TO.N,B_D9*%
X101085100Y-79220000D02*
X101424100Y-79559000D01*
X101085100Y-78063500D02*
X101085100Y-79220000D01*
X88643600Y-65622000D02*
X101085100Y-78063500D01*
X78900100Y-65622000D02*
X88643600Y-65622000D01*
X77602500Y-66919600D02*
X78900100Y-65622000D01*
X77602500Y-114959000D02*
X77602500Y-66919600D01*
X79040200Y-116396700D02*
X77602500Y-114959000D01*
X80556700Y-116396700D02*
X79040200Y-116396700D01*
X82040000Y-117880000D02*
X80556700Y-116396700D01*
%TO.N,B_D8*%
X111747100Y-118394200D02*
X111248400Y-118892900D01*
X111747100Y-102102100D02*
X111747100Y-118394200D01*
X114001000Y-99848200D02*
X111747100Y-102102100D01*
X114001000Y-97845400D02*
X114001000Y-99848200D01*
X113834400Y-97678800D02*
X114001000Y-97845400D01*
X113834400Y-89714400D02*
X113834400Y-97678800D01*
X105120000Y-81000000D02*
X113834400Y-89714400D01*
%TO.N,/BAI{slash}O*%
X80734400Y-93714400D02*
X79500000Y-92480000D01*
X80734400Y-103945600D02*
X80734400Y-93714400D01*
X79500000Y-105180000D02*
X80734400Y-103945600D01*
%TO.N,B_D11*%
X87583700Y-66003700D02*
X100040000Y-78460000D01*
X79064400Y-66003700D02*
X87583700Y-66003700D01*
X77984200Y-67083900D02*
X79064400Y-66003700D01*
X77984200Y-107755800D02*
X77984200Y-67083900D01*
X79005100Y-108776700D02*
X77984200Y-107755800D01*
X79567400Y-108776700D02*
X79005100Y-108776700D01*
X80770000Y-109979300D02*
X79567400Y-108776700D01*
X80770000Y-111530000D02*
X80770000Y-109979300D01*
X82040000Y-112800000D02*
X80770000Y-111530000D01*
%TO.N,B_ {slash} DS0*%
X115545800Y-106134200D02*
X115545800Y-94492200D01*
X115280000Y-106400000D02*
X115545800Y-106134200D01*
%TO.N,B_ {slash} DS1*%
X107791700Y-74644800D02*
X107791700Y-63054700D01*
X111604500Y-78457600D02*
X107791700Y-74644800D01*
X111604500Y-79181400D02*
X111604500Y-78457600D01*
X112297200Y-79874100D02*
X111604500Y-79181400D01*
X113066700Y-79874100D02*
X112297200Y-79874100D01*
X114287100Y-81094500D02*
X113066700Y-79874100D01*
X114287100Y-81411100D02*
X114287100Y-81094500D01*
X117244300Y-84368300D02*
X114287100Y-81411100D01*
X117244300Y-99122700D02*
X117244300Y-84368300D01*
X119109000Y-100987400D02*
X117244300Y-99122700D01*
X119109000Y-104108100D02*
X119109000Y-100987400D01*
X117820000Y-105397100D02*
X119109000Y-104108100D01*
X117820000Y-106400000D02*
X117820000Y-105397100D01*
%TO.N,B_ {slash} SXTAK*%
X107787700Y-106272300D02*
X107787700Y-101069600D01*
X107660000Y-106400000D02*
X107787700Y-106272300D01*
X83444500Y-81184500D02*
X82040000Y-79780000D01*
X84939000Y-81184500D02*
X83444500Y-81184500D01*
X89067600Y-85313100D02*
X84939000Y-81184500D01*
X89067600Y-93329700D02*
X89067600Y-85313100D01*
X95281300Y-99543400D02*
X89067600Y-93329700D01*
%TO.N,Net-(U4-~{RSTOUT})*%
X141078000Y-133345500D02*
X141835500Y-132588000D01*
X137640500Y-133345500D02*
X141078000Y-133345500D01*
%TO.N,B_A19*%
X120360000Y-114387000D02*
X120360000Y-108940000D01*
X120240900Y-114506100D02*
X120360000Y-114387000D01*
%TO.N,/B_{slash}IRQ6*%
X85587800Y-93963300D02*
X86122100Y-93429000D01*
X84077800Y-93963300D02*
X85587800Y-93963300D01*
X83096700Y-94944400D02*
X84077800Y-93963300D01*
X83096700Y-95457800D02*
X83096700Y-94944400D01*
X82040000Y-96514500D02*
X83096700Y-95457800D01*
X82040000Y-97560000D02*
X82040000Y-96514500D01*
%TO.N,/B_{slash}IRQ4*%
X98492900Y-78273700D02*
X98206100Y-77986900D01*
X98492900Y-81424100D02*
X98492900Y-78273700D01*
X97647000Y-82270000D02*
X98492900Y-81424100D01*
X97365600Y-82270000D02*
X97647000Y-82270000D01*
X96457300Y-83178300D02*
X97365600Y-82270000D01*
X96457300Y-90117300D02*
X96457300Y-83178300D01*
X97500000Y-91160000D02*
X96457300Y-90117300D01*
X163114100Y-106283400D02*
X163114100Y-107591300D01*
X165395800Y-104001700D02*
X163114100Y-106283400D01*
X165608000Y-104001700D02*
X165395800Y-104001700D01*
X165608000Y-102870000D02*
X165608000Y-104001700D01*
X143649500Y-104242200D02*
X144917600Y-105510300D01*
X143649500Y-84001700D02*
X143649500Y-104242200D01*
X144016700Y-83634500D02*
X143649500Y-84001700D01*
X144783200Y-83634500D02*
X144016700Y-83634500D01*
X145347600Y-83070100D02*
X144783200Y-83634500D01*
X145347600Y-82179400D02*
X145347600Y-83070100D01*
X141146200Y-77978000D02*
X145347600Y-82179400D01*
X139866300Y-77978000D02*
X141146200Y-77978000D01*
X132870200Y-70981900D02*
X139866300Y-77978000D01*
X115426500Y-70981900D02*
X132870200Y-70981900D01*
X109364900Y-64920300D02*
X115426500Y-70981900D01*
X109364900Y-63773400D02*
X109364900Y-64920300D01*
X108060300Y-62468800D02*
X109364900Y-63773400D01*
X107543900Y-62468800D02*
X108060300Y-62468800D01*
X101297900Y-68714800D02*
X107543900Y-62468800D01*
X101297900Y-76647300D02*
X101297900Y-68714800D01*
%TO.N,/B_{slash}RESET*%
X102580000Y-122205000D02*
X102937500Y-122562500D01*
X102580000Y-108940000D02*
X102580000Y-122205000D01*
X97552000Y-122562500D02*
X97536000Y-122578500D01*
X102937500Y-122562500D02*
X97552000Y-122562500D01*
X94107500Y-119150000D02*
X97536000Y-122578500D01*
X81749500Y-119150000D02*
X94107500Y-119150000D01*
X80580000Y-117980500D02*
X81749500Y-119150000D01*
X80580000Y-117440800D02*
X80580000Y-117980500D01*
X79928400Y-116789200D02*
X80580000Y-117440800D01*
X78892900Y-116789200D02*
X79928400Y-116789200D01*
X77220800Y-115117100D02*
X78892900Y-116789200D01*
X77220800Y-57651800D02*
X77220800Y-115117100D01*
X79072200Y-55800400D02*
X77220800Y-57651800D01*
X83460400Y-55800400D02*
X79072200Y-55800400D01*
X84580000Y-56920000D02*
X83460400Y-55800400D01*
%TO.N,Net-(U4-3V3OUT)*%
X141883400Y-133845500D02*
X137640500Y-133845500D01*
X142652300Y-133076600D02*
X141883400Y-133845500D01*
X142652300Y-130410300D02*
X142652300Y-133076600D01*
X141885500Y-129643500D02*
X142652300Y-130410300D01*
%TO.N,/B_{slash}WR*%
X165608000Y-95250000D02*
X165608000Y-96381700D01*
X89449300Y-84649300D02*
X84580000Y-79780000D01*
X89449300Y-92802600D02*
X89449300Y-84649300D01*
X97500000Y-100853300D02*
X89449300Y-92802600D01*
X97500000Y-101320000D02*
X97500000Y-100853300D01*
X160839500Y-100942200D02*
X160839500Y-101034100D01*
X165400000Y-96381700D02*
X160839500Y-100942200D01*
X165608000Y-96381700D02*
X165400000Y-96381700D01*
%TO.N,/I{slash}O{slash}PD1*%
X165608000Y-110490000D02*
X165608000Y-109358300D01*
X165842500Y-109358300D02*
X165608000Y-109358300D01*
X166805800Y-108395000D02*
X165842500Y-109358300D01*
X166805800Y-54185400D02*
X166805800Y-108395000D01*
X116273100Y-85937100D02*
X116273100Y-110627900D01*
X111747100Y-81411100D02*
X116273100Y-85937100D01*
X111747100Y-81128300D02*
X111747100Y-81411100D01*
X110348800Y-79730000D02*
X111747100Y-81128300D01*
X104921000Y-79730000D02*
X110348800Y-79730000D01*
X103850000Y-78659000D02*
X104921000Y-79730000D01*
X103850000Y-78298800D02*
X103850000Y-78659000D01*
X102590900Y-77039700D02*
X103850000Y-78298800D01*
X102105500Y-77039700D02*
X102590900Y-77039700D01*
X116273100Y-110627900D02*
X116201400Y-110627900D01*
X116273100Y-123284400D02*
X116273100Y-110627900D01*
X128334200Y-135345500D02*
X116273100Y-123284400D01*
X129315500Y-135345500D02*
X128334200Y-135345500D01*
%TO.N,/B_{slash}IRQ2*%
X119109000Y-98053800D02*
X119319800Y-98264600D01*
X119109000Y-78237500D02*
X119109000Y-98053800D01*
X119901200Y-77445300D02*
X119109000Y-78237500D01*
X128178600Y-77445300D02*
X119901200Y-77445300D01*
X137207700Y-86474400D02*
X128178600Y-77445300D01*
X137207700Y-99593000D02*
X137207700Y-86474400D01*
%TO.N,Net-(U4-AVCC)*%
X140612500Y-127357500D02*
X139850500Y-128119500D01*
X141885500Y-127357500D02*
X140612500Y-127357500D01*
X135228000Y-129171800D02*
X135228000Y-129933000D01*
X137054600Y-127345200D02*
X135228000Y-129171800D01*
X139076200Y-127345200D02*
X137054600Y-127345200D01*
X139850500Y-128119500D02*
X139076200Y-127345200D01*
%TO.N,/B_{slash}INT*%
X93199500Y-90864400D02*
X93199500Y-83606900D01*
X97305100Y-94970000D02*
X93199500Y-90864400D01*
X97666000Y-94970000D02*
X97305100Y-94970000D01*
X98960200Y-96264200D02*
X97666000Y-94970000D01*
X98960200Y-97700200D02*
X98960200Y-96264200D01*
X100040000Y-98780000D02*
X98960200Y-97700200D01*
%TO.N,B_D7*%
X128529900Y-133345500D02*
X129315500Y-133345500D01*
X126069800Y-130885400D02*
X128529900Y-133345500D01*
X126069800Y-130133800D02*
X126069800Y-130885400D01*
X126069700Y-130133800D02*
X126069800Y-130133800D01*
X114410000Y-95699800D02*
X114416100Y-95699800D01*
X114410000Y-87750000D02*
X114410000Y-95699800D01*
X107660000Y-81000000D02*
X114410000Y-87750000D01*
X113897500Y-123151400D02*
X119171300Y-128425200D01*
X113897500Y-100523400D02*
X113897500Y-123151400D01*
X114410000Y-100010900D02*
X113897500Y-100523400D01*
X114410000Y-95699800D02*
X114410000Y-100010900D01*
%TO.N,B_A17*%
X122900000Y-117436400D02*
X122900000Y-108940000D01*
X122878700Y-117457700D02*
X122900000Y-117436400D01*
X85633900Y-105180000D02*
X84580000Y-105180000D01*
X96054200Y-115600300D02*
X85633900Y-105180000D01*
X96054200Y-118464000D02*
X96054200Y-115600300D01*
X96054300Y-118464000D02*
X96054200Y-118464000D01*
%TO.N,/B_{slash}M1*%
X101067300Y-97267300D02*
X100040000Y-96240000D01*
X101067300Y-104318600D02*
X101067300Y-97267300D01*
X100509500Y-104876400D02*
X101067300Y-104318600D01*
X96932200Y-104876400D02*
X100509500Y-104876400D01*
X87629300Y-95573500D02*
X96932200Y-104876400D01*
X87629300Y-91479100D02*
X87629300Y-95573500D01*
X84820200Y-88670000D02*
X87629300Y-91479100D01*
X84331200Y-88670000D02*
X84820200Y-88670000D01*
X83310000Y-87648800D02*
X84331200Y-88670000D01*
X83310000Y-87165000D02*
X83310000Y-87648800D01*
X82275000Y-86130000D02*
X83310000Y-87165000D01*
X80770000Y-86130000D02*
X82275000Y-86130000D01*
X79500000Y-84860000D02*
X80770000Y-86130000D01*
%TO.N,/B_{slash}INTA*%
X80980500Y-73219500D02*
X82040000Y-72160000D01*
X80980500Y-80230700D02*
X80980500Y-73219500D01*
X81799800Y-81050000D02*
X80980500Y-80230700D01*
X82288800Y-81050000D02*
X81799800Y-81050000D01*
X83310000Y-82071200D02*
X82288800Y-81050000D01*
X83310000Y-82555000D02*
X83310000Y-82071200D01*
X84345000Y-83590000D02*
X83310000Y-82555000D01*
X84845200Y-83590000D02*
X84345000Y-83590000D01*
X88685900Y-87430700D02*
X84845200Y-83590000D01*
X88685900Y-93915000D02*
X88685900Y-87430700D01*
X97500000Y-102729100D02*
X88685900Y-93915000D01*
X97500000Y-103860000D02*
X97500000Y-102729100D01*
%TO.N,/B_{slash}RESOUT*%
X101449000Y-107531000D02*
X100040000Y-108940000D01*
X101449000Y-96192000D02*
X101449000Y-107531000D01*
X100227000Y-94970000D02*
X101449000Y-96192000D01*
X99891200Y-94970000D02*
X100227000Y-94970000D01*
X98770100Y-93848900D02*
X99891200Y-94970000D01*
X98770100Y-93551200D02*
X98770100Y-93848900D01*
X97625700Y-92406800D02*
X98770100Y-93551200D01*
X97278100Y-92406800D02*
X97625700Y-92406800D01*
X96025700Y-91154400D02*
X97278100Y-92406800D01*
X96025700Y-81065700D02*
X96025700Y-91154400D01*
X84580000Y-69620000D02*
X96025700Y-81065700D01*
%TO.N,B_D3*%
X131368500Y-125949700D02*
X131368500Y-125619900D01*
X130406000Y-126912200D02*
X131368500Y-125949700D01*
X130406000Y-129611000D02*
X130406000Y-126912200D01*
X130728000Y-129933000D02*
X130406000Y-129611000D01*
X121799900Y-89819600D02*
X121799900Y-79978200D01*
X121354500Y-90265000D02*
X121799900Y-89819600D01*
X121354500Y-120692000D02*
X121354500Y-90265000D01*
X122593200Y-121930700D02*
X121354500Y-120692000D01*
X121799900Y-79899900D02*
X121799900Y-79978200D01*
X120360000Y-78460000D02*
X121799900Y-79899900D01*
X130885500Y-91290400D02*
X130885500Y-93896300D01*
X129020600Y-89425500D02*
X130885500Y-91290400D01*
X129020600Y-85140500D02*
X129020600Y-89425500D01*
X128945700Y-85065600D02*
X129020600Y-85140500D01*
X128945700Y-84583800D02*
X128945700Y-85065600D01*
X129020600Y-84508900D02*
X128945700Y-84583800D01*
X129020600Y-83164000D02*
X129020600Y-84508900D01*
X128126600Y-82270000D02*
X129020600Y-83164000D01*
X127845000Y-82270000D02*
X128126600Y-82270000D01*
X126679400Y-81104400D02*
X127845000Y-82270000D01*
X126679400Y-80821800D02*
X126679400Y-81104400D01*
X125835800Y-79978200D02*
X126679400Y-80821800D01*
X121799900Y-79978200D02*
X125835800Y-79978200D01*
%TO.N,B_A15*%
X126985700Y-105405700D02*
X127980000Y-106400000D01*
X126985700Y-83071800D02*
X126985700Y-105405700D01*
X126099200Y-82185300D02*
X126985700Y-83071800D01*
%TO.N,/B_{slash}IORQ*%
X79179100Y-101370000D02*
X80152700Y-101370000D01*
X78418100Y-100609000D02*
X79179100Y-101370000D01*
X78418100Y-68161900D02*
X78418100Y-100609000D01*
X79500000Y-67080000D02*
X78418100Y-68161900D01*
%TO.N,/I{slash}GCLR*%
X112740000Y-78460000D02*
X113732900Y-78460000D01*
X140208000Y-78890500D02*
X140208000Y-81533000D01*
X140208000Y-81533000D02*
X140300000Y-81625000D01*
X138726300Y-102452500D02*
X140209800Y-103936000D01*
X138726300Y-82706900D02*
X138726300Y-102452500D01*
X139900200Y-81533000D02*
X138726300Y-82706900D01*
X140208000Y-81533000D02*
X139900200Y-81533000D01*
X138381100Y-77063600D02*
X140208000Y-78890500D01*
X117806000Y-77063600D02*
X138381100Y-77063600D01*
X116550000Y-78319600D02*
X117806000Y-77063600D01*
X116550000Y-78608800D02*
X116550000Y-78319600D01*
X115694800Y-79464000D02*
X116550000Y-78608800D01*
X114736900Y-79464000D02*
X115694800Y-79464000D01*
X113732900Y-78460000D02*
X114736900Y-79464000D01*
%TO.N,/I{slash}O{slash}GCLK3*%
X168148000Y-105410000D02*
X168148000Y-104278300D01*
X128085400Y-136761100D02*
X128085400Y-137028100D01*
X128501000Y-136345500D02*
X128085400Y-136761100D01*
X129315500Y-136345500D02*
X128501000Y-136345500D01*
X170054800Y-61168900D02*
X168825500Y-59939600D01*
X170054800Y-102584400D02*
X170054800Y-61168900D01*
X168360900Y-104278300D02*
X170054800Y-102584400D01*
X168148000Y-104278300D02*
X168360900Y-104278300D01*
%TO.N,/B_{slash}RD*%
X92026600Y-82146600D02*
X84580000Y-74700000D01*
X92026600Y-92189100D02*
X92026600Y-82146600D01*
X97181500Y-97344000D02*
X92026600Y-92189100D01*
X97468700Y-97344000D02*
X97181500Y-97344000D01*
X98960000Y-98835300D02*
X97468700Y-97344000D01*
X98960000Y-100240000D02*
X98960000Y-98835300D01*
X100040000Y-101320000D02*
X98960000Y-100240000D01*
%TO.N,B_D1*%
X131669000Y-129874000D02*
X131669000Y-128430200D01*
X131728000Y-129933000D02*
X131669000Y-129874000D01*
X123027600Y-83412400D02*
X125440000Y-81000000D01*
X123027600Y-101147300D02*
X123027600Y-83412400D01*
X122759600Y-101415300D02*
X123027600Y-101147300D01*
X122759600Y-101504900D02*
X122759600Y-101415300D01*
X121885800Y-102378700D02*
X122759600Y-101504900D01*
X121885800Y-120398000D02*
X121885800Y-102378700D01*
X125424500Y-123936700D02*
X121885800Y-120398000D01*
X125424500Y-127046000D02*
X125424500Y-123936700D01*
X126547300Y-128168800D02*
X125424500Y-127046000D01*
%TO.N,/B_{slash}IRQ1*%
X79770800Y-78510000D02*
X79156200Y-78510000D01*
X80577900Y-79317100D02*
X79770800Y-78510000D01*
X80577900Y-83397900D02*
X80577900Y-79317100D01*
X82040000Y-84860000D02*
X80577900Y-83397900D01*
%TO.N,/B_{slash}DREQ*%
X98770000Y-102590000D02*
X100040000Y-103860000D01*
X98770000Y-101127900D02*
X98770000Y-102590000D01*
X97951200Y-100309100D02*
X98770000Y-101127900D01*
X97616200Y-100309100D02*
X97951200Y-100309100D01*
X91533300Y-94226200D02*
X97616200Y-100309100D01*
X91533300Y-85205900D02*
X91533300Y-94226200D01*
X84837400Y-78510000D02*
X91533300Y-85205900D01*
X83310000Y-78510000D02*
X84837400Y-78510000D01*
X82040000Y-77240000D02*
X83310000Y-78510000D01*
%TO.N,B_D5*%
X130436300Y-131845500D02*
X130543600Y-131952800D01*
X129315500Y-131845500D02*
X130436300Y-131845500D01*
X122260400Y-130634100D02*
X118614200Y-126987900D01*
X122260400Y-131952800D02*
X122260400Y-130634100D01*
X114831100Y-85631100D02*
X110200000Y-81000000D01*
X114831100Y-95292100D02*
X114831100Y-85631100D01*
X114997800Y-95458800D02*
X114831100Y-95292100D01*
X114997800Y-101998800D02*
X114997800Y-95458800D01*
X114285100Y-102711500D02*
X114997800Y-101998800D01*
X114285100Y-122658800D02*
X114285100Y-102711500D01*
X118614200Y-126987900D02*
X114285100Y-122658800D01*
%TO.N,B_D2*%
X164476300Y-87321300D02*
X160403900Y-83248900D01*
X164476300Y-87630000D02*
X164476300Y-87321300D01*
X165608000Y-87630000D02*
X164476300Y-87630000D01*
X131228000Y-128989400D02*
X131228000Y-129933000D01*
X130987800Y-128749200D02*
X131228000Y-128989400D01*
X130987800Y-127798200D02*
X130987800Y-128749200D01*
X123895200Y-79455200D02*
X122900000Y-78460000D01*
X127902900Y-79455200D02*
X123895200Y-79455200D01*
X131955700Y-83508000D02*
X127902900Y-79455200D01*
X131955700Y-84814800D02*
X131955700Y-83508000D01*
X132030600Y-84889700D02*
X131955700Y-84814800D01*
X132612300Y-85471400D02*
X132030600Y-84889700D01*
X132612300Y-94762400D02*
X132612300Y-85471400D01*
X132232100Y-95142600D02*
X132612300Y-94762400D01*
X132232100Y-126010800D02*
X132232100Y-95142600D01*
X130987800Y-127255100D02*
X132232100Y-126010800D01*
X130987800Y-127798200D02*
X130987800Y-127255100D01*
%TO.N,B_D4*%
X126720500Y-128750500D02*
X129315500Y-131345500D01*
X126306400Y-128750500D02*
X126720500Y-128750500D01*
X119544500Y-121988600D02*
X126306400Y-128750500D01*
X119544500Y-121902300D02*
X119544500Y-121988600D01*
X154379300Y-90170000D02*
X154042900Y-90506400D01*
X165608000Y-90170000D02*
X154379300Y-90170000D01*
X121218200Y-89578600D02*
X120654200Y-89578600D01*
X120360000Y-89284400D02*
X120360000Y-81000000D01*
X120654200Y-89578600D02*
X120360000Y-89284400D01*
X120654200Y-103642500D02*
X120654200Y-89578600D01*
X119328200Y-104968500D02*
X120654200Y-103642500D01*
X119328200Y-109464300D02*
X119328200Y-104968500D01*
X119544500Y-109680600D02*
X119328200Y-109464300D01*
X119544500Y-121902300D02*
X119544500Y-109680600D01*
%TO.N,B_D0*%
X163758300Y-85090000D02*
X161284000Y-82615700D01*
X165608000Y-85090000D02*
X163758300Y-85090000D01*
X127447500Y-78460000D02*
X125440000Y-78460000D01*
X132584200Y-83596700D02*
X127447500Y-78460000D01*
X132584200Y-84116300D02*
X132584200Y-83596700D01*
X132228000Y-131400600D02*
X132228000Y-129933000D01*
X132094300Y-131534300D02*
X132228000Y-131400600D01*
X132994000Y-84526100D02*
X132584200Y-84116300D01*
X132994000Y-94920500D02*
X132994000Y-84526100D01*
X132613800Y-95300700D02*
X132994000Y-94920500D01*
X132613800Y-126168900D02*
X132613800Y-95300700D01*
X132082400Y-126700300D02*
X132613800Y-126168900D01*
X132082400Y-127182100D02*
X132082400Y-126700300D01*
X132250700Y-127350400D02*
X132082400Y-127182100D01*
X132250700Y-129910300D02*
X132250700Y-127350400D01*
X132228000Y-129933000D02*
X132250700Y-129910300D01*
%TO.N,/I{slash}OE1*%
X118938300Y-124764600D02*
X118938300Y-116970900D01*
X128519200Y-134345500D02*
X118938300Y-124764600D01*
X129315500Y-134345500D02*
X128519200Y-134345500D01*
X118727300Y-84447300D02*
X115280000Y-81000000D01*
X118727300Y-99876100D02*
X118727300Y-84447300D01*
X119490700Y-100639500D02*
X118727300Y-99876100D01*
X119490700Y-104266200D02*
X119490700Y-100639500D01*
X118938300Y-104818600D02*
X119490700Y-104266200D01*
X118938300Y-116970900D02*
X118938300Y-104818600D01*
D34*
%TO.N,B_VCC*%
X87322500Y-135862500D02*
X84580000Y-133120000D01*
X88204000Y-135862500D02*
X87322500Y-135862500D01*
D35*
%TO.N,Net-(U4-XTOUT)*%
X134228000Y-124290800D02*
X135196300Y-123322500D01*
X134228000Y-129933000D02*
X134228000Y-124290800D01*
X135962200Y-123322500D02*
X135196300Y-123322500D01*
X135962200Y-123322500D02*
X136728000Y-123322500D01*
X138583500Y-123322500D02*
X139446000Y-122460000D01*
X136728000Y-123322500D02*
X138583500Y-123322500D01*
%TO.N,/TCK*%
X168148000Y-113030000D02*
X167016300Y-113030000D01*
X130728000Y-136890900D02*
X131229500Y-136389400D01*
X130728000Y-138258000D02*
X130728000Y-136890900D01*
X157278800Y-101203500D02*
X151998200Y-95922900D01*
X157278900Y-101203500D02*
X157278800Y-101203500D01*
X157278900Y-103799000D02*
X157278900Y-101203500D01*
X165378200Y-111898300D02*
X157278900Y-103799000D01*
X166096900Y-111898300D02*
X165378200Y-111898300D01*
X167016300Y-112817700D02*
X166096900Y-111898300D01*
X167016300Y-113030000D02*
X167016300Y-112817700D01*
%TO.N,/I{slash}OE2{slash}GCLK2*%
X116817500Y-103628700D02*
X116864100Y-103675300D01*
X116817500Y-85077500D02*
X116817500Y-103628700D01*
X112740000Y-81000000D02*
X116817500Y-85077500D01*
X116798700Y-103740700D02*
X116864100Y-103675300D01*
X116798700Y-123270200D02*
X116798700Y-103740700D01*
X128374000Y-134845500D02*
X116798700Y-123270200D01*
X129315500Y-134845500D02*
X128374000Y-134845500D01*
X118335500Y-103675300D02*
X118527300Y-103867100D01*
X116864100Y-103675300D02*
X118335500Y-103675300D01*
%TO.N,Net-(U4-XTIN)*%
X127608500Y-123322500D02*
X126746000Y-122460000D01*
X130228000Y-123322500D02*
X127608500Y-123322500D01*
X133728000Y-128005100D02*
X132664100Y-126941200D01*
X133728000Y-129933000D02*
X133728000Y-128005100D01*
X130162300Y-125169900D02*
X130228000Y-125104200D01*
X130162300Y-126333200D02*
X130162300Y-125169900D01*
X130228000Y-123322500D02*
X130228000Y-125104200D01*
%TO.N,/TDO*%
X126441200Y-111603800D02*
X127913700Y-113076300D01*
X126441200Y-87081200D02*
X126441200Y-111603800D01*
X125440000Y-86080000D02*
X126441200Y-87081200D01*
X128359400Y-113076300D02*
X127913700Y-113076300D01*
X128422500Y-113139400D02*
X128359400Y-113076300D01*
%TO.N,Net-(U4-EECS)*%
X108220700Y-133591100D02*
X108220700Y-133662800D01*
X104997800Y-130368200D02*
X108220700Y-133591100D01*
X104501300Y-130368200D02*
X104997800Y-130368200D01*
X101345000Y-133524500D02*
X104501300Y-130368200D01*
X101345000Y-134775000D02*
X101345000Y-133524500D01*
X135648600Y-131988900D02*
X135648600Y-132543800D01*
X136228000Y-131409500D02*
X135648600Y-131988900D01*
X136228000Y-129933000D02*
X136228000Y-131409500D01*
%TO.N,Net-(U4-EECLK)*%
X102615000Y-133090400D02*
X102615000Y-134775000D01*
X104747700Y-130957700D02*
X102615000Y-133090400D01*
X137640500Y-130331100D02*
X137588800Y-130279400D01*
X137640500Y-131345500D02*
X137640500Y-130331100D01*
%TO.N,/I{slash}O{slash}PD2*%
X115280000Y-122831100D02*
X115280000Y-108940000D01*
X128294400Y-135845500D02*
X115280000Y-122831100D01*
X129315500Y-135845500D02*
X128294400Y-135845500D01*
%TO.N,Net-(U5-DO)*%
X95758000Y-139670500D02*
X95837500Y-139750000D01*
X95758000Y-136802500D02*
X95758000Y-139670500D01*
X105155000Y-135193500D02*
X105155000Y-134775000D01*
X103546000Y-136802500D02*
X105155000Y-135193500D01*
X95758000Y-136802500D02*
X103546000Y-136802500D01*
%TO.N,/TMS*%
X132228000Y-139053500D02*
X132228000Y-138258000D01*
X131588300Y-139693200D02*
X132228000Y-139053500D01*
X128565800Y-139693200D02*
X131588300Y-139693200D01*
X106260100Y-117387500D02*
X128565800Y-139693200D01*
X106260100Y-111069600D02*
X106260100Y-117387500D01*
X106149700Y-110959200D02*
X106260100Y-111069600D01*
X106149700Y-99809700D02*
X106149700Y-110959200D01*
X100040000Y-93700000D02*
X106149700Y-99809700D01*
%TO.N,/TDI*%
X131228000Y-139053500D02*
X131228000Y-138258000D01*
X130970000Y-139311500D02*
X131228000Y-139053500D01*
X128794200Y-139311500D02*
X130970000Y-139311500D01*
X110184400Y-120701700D02*
X128794200Y-139311500D01*
X110184400Y-110801300D02*
X110184400Y-120701700D01*
X110317600Y-110668100D02*
X110184400Y-110801300D01*
%TO.N,Net-(U4-EEDATA)*%
X103885000Y-135158900D02*
X103885000Y-134775000D01*
X103008800Y-136035100D02*
X103885000Y-135158900D01*
X96815600Y-136035100D02*
X103008800Y-136035100D01*
X95758000Y-134977500D02*
X96815600Y-136035100D01*
%TO.N,B_A13*%
X85951000Y-63135500D02*
X86968500Y-64153000D01*
X80635500Y-63135500D02*
X85951000Y-63135500D01*
X79500000Y-62000000D02*
X80635500Y-63135500D01*
X133528800Y-83685100D02*
X133528800Y-103949100D01*
X131676800Y-81833100D02*
X133528800Y-83685100D01*
%TO.N,B_A8*%
X124447100Y-113087600D02*
X124487900Y-113128400D01*
X124447100Y-97232900D02*
X124447100Y-113087600D01*
X125440000Y-96240000D02*
X124447100Y-97232900D01*
%TO.N,B_A6*%
X121936200Y-94793400D02*
X121936200Y-101505600D01*
X122445900Y-94283700D02*
X121936200Y-94793400D01*
X103698500Y-107808900D02*
X103698400Y-107808900D01*
X103698500Y-102085300D02*
X103698500Y-107808900D01*
X104679800Y-101104000D02*
X103698500Y-102085300D01*
X80573400Y-113873400D02*
X79500000Y-112800000D01*
X82510300Y-113873400D02*
X80573400Y-113873400D01*
X83096700Y-113287000D02*
X82510300Y-113873400D01*
X83096700Y-112720400D02*
X83096700Y-113287000D01*
X84073800Y-111743300D02*
X83096700Y-112720400D01*
X86221700Y-111743300D02*
X84073800Y-111743300D01*
X87162000Y-110803000D02*
X86221700Y-111743300D01*
%TO.N,B_A7*%
X128978100Y-110846600D02*
X127742300Y-112082400D01*
X128978100Y-94698100D02*
X128978100Y-110846600D01*
X127980000Y-93700000D02*
X128978100Y-94698100D01*
%TO.N,B_A12*%
X120072500Y-96225500D02*
X119732900Y-95885900D01*
X120072500Y-103377000D02*
X120072500Y-96225500D01*
%TO.N,B_A2*%
X85476200Y-121531200D02*
X87162000Y-119845400D01*
X80611200Y-121531200D02*
X85476200Y-121531200D01*
X79500000Y-120420000D02*
X80611200Y-121531200D01*
X131087000Y-113556900D02*
X126386400Y-118257500D01*
X131087000Y-94573100D02*
X131087000Y-113556900D01*
X131467200Y-94192900D02*
X131087000Y-94573100D01*
X131467200Y-90346200D02*
X131467200Y-94192900D01*
X129527400Y-88406400D02*
X131467200Y-90346200D01*
X129527400Y-84824700D02*
X129527400Y-88406400D01*
%TO.N,B_A11*%
X88211000Y-95332600D02*
X88211000Y-94262800D01*
X88304700Y-95426300D02*
X88211000Y-95332600D01*
%TO.N,B_A1*%
X123894400Y-117916100D02*
X122761500Y-119049000D01*
X123894400Y-85085600D02*
X123894400Y-117916100D01*
X125440000Y-83540000D02*
X123894400Y-85085600D01*
%TO.N,B_A0*%
X129536800Y-82556800D02*
X127980000Y-81000000D01*
X129536800Y-83411500D02*
X129536800Y-82556800D01*
X132230600Y-86105300D02*
X129536800Y-83411500D01*
X132230600Y-94604300D02*
X132230600Y-86105300D01*
X131850400Y-94984500D02*
X132230600Y-94604300D01*
X131850400Y-118130200D02*
X131850400Y-94984500D01*
X128807800Y-121172800D02*
X131850400Y-118130200D01*
%TO.N,B_A4*%
X127980000Y-89114600D02*
X127980000Y-88620000D01*
X129370400Y-90505000D02*
X127980000Y-89114600D01*
X129370400Y-113048000D02*
X129370400Y-90505000D01*
X127110700Y-115307700D02*
X129370400Y-113048000D01*
X126538600Y-115307700D02*
X127110700Y-115307700D01*
%TO.N,B_A3*%
X131468700Y-113997900D02*
X128710200Y-116756400D01*
X131468700Y-94826400D02*
X131468700Y-113997900D01*
X131848900Y-94446200D02*
X131468700Y-94826400D01*
X131848900Y-86877700D02*
X131848900Y-94446200D01*
X130237900Y-85266700D02*
X131848900Y-86877700D01*
%TO.N,B_A9*%
X113394800Y-91829900D02*
X113394800Y-98888700D01*
X103850000Y-82285100D02*
X113394800Y-91829900D01*
X103850000Y-80851200D02*
X103850000Y-82285100D01*
X102728800Y-79730000D02*
X103850000Y-80851200D01*
X102443100Y-79730000D02*
X102728800Y-79730000D01*
X101543900Y-78830800D02*
X102443100Y-79730000D01*
X101543900Y-77715800D02*
X101543900Y-78830800D01*
X100716200Y-76888100D02*
X101543900Y-77715800D01*
X100716200Y-76604400D02*
X100716200Y-76888100D01*
X84974400Y-60862600D02*
X100716200Y-76604400D01*
X84463800Y-60862600D02*
X84974400Y-60862600D01*
X83310000Y-59708800D02*
X84463800Y-60862600D01*
X83310000Y-59225000D02*
X83310000Y-59708800D01*
X82436100Y-58351100D02*
X83310000Y-59225000D01*
X80608900Y-58351100D02*
X82436100Y-58351100D01*
X79500000Y-59460000D02*
X80608900Y-58351100D01*
%TO.N,B_A5*%
X134315600Y-90280000D02*
X134666300Y-89929300D01*
X134315600Y-113665000D02*
X134315600Y-90280000D01*
X85566300Y-114273300D02*
X87162000Y-115869000D01*
X80566700Y-114273300D02*
X85566300Y-114273300D01*
X79500000Y-115340000D02*
X80566700Y-114273300D01*
%TO.N,/GCLK1*%
X118750000Y-74990000D02*
X118750000Y-71912500D01*
X115280000Y-78460000D02*
X118750000Y-74990000D01*
D34*
%TO.N,+3.3V*%
X121314700Y-60198000D02*
X121380700Y-60264000D01*
X120496500Y-60198000D02*
X121314700Y-60198000D01*
X118750000Y-63578500D02*
X118750000Y-64975000D01*
X121380700Y-60947800D02*
X118750000Y-63578500D01*
X121380700Y-60264000D02*
X121380700Y-60947800D01*
X117637500Y-63862500D02*
X116000000Y-63862500D01*
X118750000Y-64975000D02*
X117637500Y-63862500D01*
X112319200Y-60181700D02*
X112319200Y-60010000D01*
X116000000Y-63862500D02*
X112319200Y-60181700D01*
X111137500Y-60010000D02*
X112319200Y-60010000D01*
X121380700Y-60264000D02*
X123830500Y-60264000D01*
X126818900Y-64247600D02*
X132648200Y-64247600D01*
X124968000Y-62396700D02*
X126818900Y-64247600D01*
X124968000Y-61401500D02*
X124968000Y-62396700D01*
X123830500Y-60264000D02*
X124968000Y-61401500D01*
%TO.N,GND*%
X105155000Y-142261000D02*
X105155000Y-139725000D01*
X104844600Y-142571400D02*
X105155000Y-142261000D01*
X166612200Y-130062200D02*
X166612200Y-131397200D01*
X167187200Y-129487200D02*
X166612200Y-130062200D01*
X166612200Y-139132200D02*
X166612200Y-137797200D01*
X167187200Y-139707200D02*
X166612200Y-139132200D01*
X171117200Y-128610500D02*
X171117200Y-129487200D01*
X169913500Y-127406800D02*
X171117200Y-128610500D01*
X167187200Y-128322500D02*
X167187200Y-129487200D01*
X166502600Y-127637900D02*
X167187200Y-128322500D01*
X171117200Y-141135000D02*
X171117200Y-139707200D01*
X169680800Y-142571400D02*
X171117200Y-141135000D01*
X167187200Y-142117900D02*
X167187200Y-139707200D01*
X166733700Y-142571400D02*
X167187200Y-142117900D01*
X118771500Y-59311200D02*
X118771500Y-60198000D01*
X118638400Y-59178100D02*
X118771500Y-59311200D01*
X143610500Y-128417200D02*
X143610500Y-127357500D01*
X143527200Y-128500500D02*
X143610500Y-128417200D01*
X143610500Y-128583800D02*
X143610500Y-129643500D01*
X143527200Y-128500500D02*
X143610500Y-128583800D01*
X130910500Y-59486500D02*
X130910500Y-60198000D01*
X130602100Y-59178100D02*
X130910500Y-59486500D01*
X139446000Y-124213700D02*
X139446000Y-124185000D01*
X140750300Y-125518000D02*
X139446000Y-124213700D01*
X116000000Y-60740600D02*
X116000000Y-62137500D01*
X116633000Y-60107600D02*
X116000000Y-60740600D01*
X126691100Y-61214000D02*
X126105500Y-61214000D01*
X127797500Y-60107600D02*
X126691100Y-61214000D01*
X89154000Y-137409000D02*
X89154000Y-135862500D01*
X89252500Y-137507500D02*
X89154000Y-137409000D01*
X119700000Y-63738200D02*
X119700000Y-64975000D01*
X120234200Y-63204000D02*
X119700000Y-63738200D01*
X101987500Y-125210900D02*
X101987500Y-124437500D01*
X102573100Y-125796500D02*
X101987500Y-125210900D01*
X102211500Y-126158100D02*
X102211500Y-127762000D01*
X102573100Y-125796500D02*
X102211500Y-126158100D01*
X162814000Y-140420400D02*
X162814000Y-139224500D01*
X162801500Y-140432900D02*
X162814000Y-140420400D01*
X135728000Y-130783900D02*
X135728000Y-129933000D01*
X135507800Y-131004100D02*
X135728000Y-130783900D01*
X134728000Y-131004100D02*
X135507800Y-131004100D01*
X134728000Y-129933000D02*
X134728000Y-131004100D01*
X126746000Y-125300100D02*
X126608600Y-125437500D01*
X126746000Y-124185000D02*
X126746000Y-125300100D01*
X134728000Y-131342500D02*
X134594300Y-131476200D01*
X134728000Y-131004100D02*
X134728000Y-131342500D01*
X133728000Y-139386400D02*
X133728000Y-138258000D01*
X133628300Y-139486100D02*
X133728000Y-139386400D01*
X139610000Y-83760000D02*
X140297300Y-83760000D01*
X139350000Y-83500000D02*
X139610000Y-83760000D01*
X128453600Y-132345500D02*
X129315500Y-132345500D01*
X127432300Y-131324200D02*
X128453600Y-132345500D01*
X127432300Y-130373200D02*
X127432300Y-131324200D01*
X136349500Y-134873700D02*
X136349500Y-134781200D01*
X136821300Y-135345500D02*
X136349500Y-134873700D01*
X137640500Y-135345500D02*
X136821300Y-135345500D01*
X91387500Y-73128300D02*
X90107500Y-71848300D01*
X91387500Y-73750000D02*
X91387500Y-73128300D01*
X129315500Y-137545300D02*
X129259600Y-137601200D01*
X129315500Y-136845500D02*
X129315500Y-137545300D01*
X144526000Y-86336700D02*
X144526000Y-84412500D01*
X144231200Y-86631500D02*
X144526000Y-86336700D01*
%TD*%
M02*
