%TF.GenerationSoftware,KiCad,Pcbnew,8.0.2*%
%TF.CreationDate,2024-06-07T17:43:04+02:00*%
%TF.ProjectId,interruptus,696e7465-7272-4757-9074-75732e6b6963,rev?*%
%TF.SameCoordinates,Original*%
%TF.FileFunction,Paste,Bot*%
%TF.FilePolarity,Positive*%
%FSLAX46Y46*%
G04 Gerber Fmt 4.6, Leading zero omitted, Abs format (unit mm)*
G04 Created by KiCad (PCBNEW 8.0.2) date 2024-06-07 17:43:04*
%MOMM*%
%LPD*%
G01*
G04 APERTURE LIST*
G04 Aperture macros list*
%AMRoundRect*
0 Rectangle with rounded corners*
0 $1 Rounding radius*
0 $2 $3 $4 $5 $6 $7 $8 $9 X,Y pos of 4 corners*
0 Add a 4 corners polygon primitive as box body*
4,1,4,$2,$3,$4,$5,$6,$7,$8,$9,$2,$3,0*
0 Add four circle primitives for the rounded corners*
1,1,$1+$1,$2,$3*
1,1,$1+$1,$4,$5*
1,1,$1+$1,$6,$7*
1,1,$1+$1,$8,$9*
0 Add four rect primitives between the rounded corners*
20,1,$1+$1,$2,$3,$4,$5,0*
20,1,$1+$1,$4,$5,$6,$7,0*
20,1,$1+$1,$6,$7,$8,$9,0*
20,1,$1+$1,$8,$9,$2,$3,0*%
G04 Aperture macros list end*
%ADD10RoundRect,0.150000X-0.425000X0.150000X-0.425000X-0.150000X0.425000X-0.150000X0.425000X0.150000X0*%
%ADD11RoundRect,0.075000X-0.500000X0.075000X-0.500000X-0.075000X0.500000X-0.075000X0.500000X0.075000X0*%
%ADD12RoundRect,0.250000X-0.750000X0.840000X-0.750000X-0.840000X0.750000X-0.840000X0.750000X0.840000X0*%
%ADD13RoundRect,0.150000X-0.150000X0.512500X-0.150000X-0.512500X0.150000X-0.512500X0.150000X0.512500X0*%
%ADD14R,1.200000X1.200000*%
%ADD15RoundRect,0.090000X-0.139000X-0.090000X0.139000X-0.090000X0.139000X0.090000X-0.139000X0.090000X0*%
%ADD16RoundRect,0.090000X-0.090000X0.139000X-0.090000X-0.139000X0.090000X-0.139000X0.090000X0.139000X0*%
%ADD17RoundRect,0.150000X0.150000X-0.587500X0.150000X0.587500X-0.150000X0.587500X-0.150000X-0.587500X0*%
%ADD18RoundRect,0.150000X0.512500X0.150000X-0.512500X0.150000X-0.512500X-0.150000X0.512500X-0.150000X0*%
%ADD19RoundRect,0.237500X0.237500X-0.300000X0.237500X0.300000X-0.237500X0.300000X-0.237500X-0.300000X0*%
%ADD20R,2.500000X3.000000*%
%ADD21RoundRect,0.075000X0.662500X0.075000X-0.662500X0.075000X-0.662500X-0.075000X0.662500X-0.075000X0*%
%ADD22RoundRect,0.075000X0.075000X0.662500X-0.075000X0.662500X-0.075000X-0.662500X0.075000X-0.662500X0*%
%ADD23RoundRect,0.237500X0.300000X0.237500X-0.300000X0.237500X-0.300000X-0.237500X0.300000X-0.237500X0*%
%ADD24RoundRect,0.090000X0.090000X-0.139000X0.090000X0.139000X-0.090000X0.139000X-0.090000X-0.139000X0*%
G04 APERTURE END LIST*
D10*
%TO.C,J3*%
X142070000Y-119800000D03*
X142070000Y-120600000D03*
D11*
X142070000Y-121750000D03*
X142070000Y-122750000D03*
X142070000Y-123250000D03*
X142070000Y-124250000D03*
D10*
X142070000Y-126200000D03*
X142070000Y-125400000D03*
D11*
X142070000Y-124750000D03*
X142070000Y-123750000D03*
X142070000Y-122250000D03*
X142070000Y-121250000D03*
D12*
X142645000Y-117890000D03*
X146575000Y-117890000D03*
X142645000Y-128110000D03*
X146575000Y-128110000D03*
%TD*%
D13*
%TO.C,U2*%
X118750000Y-64975000D03*
X119700000Y-64975000D03*
X120650000Y-64975000D03*
X120650000Y-67250000D03*
X118750000Y-67250000D03*
%TD*%
D14*
%TO.C,D2*%
X91400000Y-133500000D03*
X88600000Y-133500000D03*
%TD*%
D15*
%TO.C,R2*%
X97635000Y-122000000D03*
X98500000Y-122000000D03*
%TD*%
D16*
%TO.C,R1*%
X140250000Y-78317500D03*
X140250000Y-79182500D03*
%TD*%
D17*
%TO.C,Q1*%
X141250000Y-83500000D03*
X139350000Y-83500000D03*
X140300000Y-81625000D03*
%TD*%
D18*
%TO.C,U3*%
X126275000Y-60600000D03*
X126275000Y-61550000D03*
X126275000Y-62500000D03*
X124000000Y-62500000D03*
X124000000Y-60600000D03*
%TD*%
D15*
%TO.C,R8*%
X139000000Y-123500000D03*
X139865000Y-123500000D03*
%TD*%
D19*
%TO.C,C5*%
X111000000Y-125862500D03*
X111000000Y-124137500D03*
%TD*%
D20*
%TO.C,Y1*%
X115750000Y-124775000D03*
X122250000Y-124775000D03*
%TD*%
D19*
%TO.C,C3*%
X116750000Y-64975000D03*
X116750000Y-63250000D03*
%TD*%
D21*
%TO.C,U4*%
X123162500Y-131750000D03*
X123162500Y-132250000D03*
X123162500Y-132750000D03*
X123162500Y-133250000D03*
X123162500Y-133750000D03*
X123162500Y-134250000D03*
X123162500Y-134750000D03*
X123162500Y-135250000D03*
X123162500Y-135750000D03*
X123162500Y-136250000D03*
X123162500Y-136750000D03*
X123162500Y-137250000D03*
D22*
X121750000Y-138662500D03*
X121250000Y-138662500D03*
X120750000Y-138662500D03*
X120250000Y-138662500D03*
X119750000Y-138662500D03*
X119250000Y-138662500D03*
X118750000Y-138662500D03*
X118250000Y-138662500D03*
X117750000Y-138662500D03*
X117250000Y-138662500D03*
X116750000Y-138662500D03*
X116250000Y-138662500D03*
D21*
X114837500Y-137250000D03*
X114837500Y-136750000D03*
X114837500Y-136250000D03*
X114837500Y-135750000D03*
X114837500Y-135250000D03*
X114837500Y-134750000D03*
X114837500Y-134250000D03*
X114837500Y-133750000D03*
X114837500Y-133250000D03*
X114837500Y-132750000D03*
X114837500Y-132250000D03*
X114837500Y-131750000D03*
D22*
X116250000Y-130337500D03*
X116750000Y-130337500D03*
X117250000Y-130337500D03*
X117750000Y-130337500D03*
X118250000Y-130337500D03*
X118750000Y-130337500D03*
X119250000Y-130337500D03*
X119750000Y-130337500D03*
X120250000Y-130337500D03*
X120750000Y-130337500D03*
X121250000Y-130337500D03*
X121750000Y-130337500D03*
%TD*%
D23*
%TO.C,C1*%
X93112500Y-73750000D03*
X91387500Y-73750000D03*
%TD*%
D16*
%TO.C,R6*%
X139000000Y-117567500D03*
X139000000Y-118432500D03*
%TD*%
D15*
%TO.C,R4*%
X106317500Y-126500000D03*
X107182500Y-126500000D03*
%TD*%
D16*
%TO.C,R10*%
X125500000Y-133750000D03*
X125500000Y-134615000D03*
%TD*%
%TO.C,R3*%
X143000000Y-83067500D03*
X143000000Y-83932500D03*
%TD*%
D23*
%TO.C,C2*%
X130500000Y-60550000D03*
X128775000Y-60550000D03*
%TD*%
D16*
%TO.C,R5*%
X118750000Y-70567500D03*
X118750000Y-71432500D03*
%TD*%
D19*
%TO.C,C6*%
X125000000Y-125862500D03*
X125000000Y-124137500D03*
%TD*%
D17*
%TO.C,Q2*%
X103887500Y-124437500D03*
X101987500Y-124437500D03*
X102937500Y-122562500D03*
%TD*%
D23*
%TO.C,C7*%
X127475000Y-130750000D03*
X125750000Y-130750000D03*
%TD*%
%TO.C,C8*%
X127500000Y-129000000D03*
X125775000Y-129000000D03*
%TD*%
D14*
%TO.C,D1*%
X133100000Y-119750000D03*
X135900000Y-119750000D03*
%TD*%
D24*
%TO.C,R7*%
X139000000Y-128932500D03*
X139000000Y-128067500D03*
%TD*%
D15*
%TO.C,R9*%
X139000000Y-122500000D03*
X139865000Y-122500000D03*
%TD*%
D23*
%TO.C,C4*%
X121112500Y-60500000D03*
X119387500Y-60500000D03*
%TD*%
D15*
%TO.C,R11*%
X123567500Y-129000000D03*
X124432500Y-129000000D03*
%TD*%
M02*
